<?xml version="1.0" standalone="no"?>
<!DOCTYPE svg PUBLIC "-//W3C//DTD SVG 1.1//EN" "http://www.w3.org/Graphics/SVG/1.1/DTD/svg11.dtd" >
<svg xmlns="http://www.w3.org/2000/svg" xmlns:xlink="http://www.w3.org/1999/xlink" version="1.1">
<metadata>
Created by FontForge 20170731 at Mon Jan  7 13:49:21 2019
 By Aleksey,,,
Copyright (c) 2018 by Cosimo Lorenzo Pancini, Francesco Canovaro. All rights reserved.
</metadata>
<defs>
<font id="CocogooseClassicTrial-Black" horiz-adv-x="1086" >
  <font-face 
    font-family="Cocogoose Classic Trial Black"
    font-weight="950"
    font-stretch="normal"
    units-per-em="2048"
    panose-1="2 11 0 3 2 2 0 0 0 2"
    ascent="1638"
    descent="-410"
    x-height="876"
    cap-height="1460"
    bbox="-1526 -647 2767 2300"
    underline-thickness="98"
    underline-position="-245"
    unicode-range="U+000D-FB02"
  />
<missing-glyph horiz-adv-x="1105" 
d="M553 57q-139 0 -253 68t-179.5 182.5t-65.5 246.5q0 139 68 253.5t182.5 180.5t247.5 66q139 0 253 -69.5t179 -184.5t65 -246q0 -117 -48 -215t-130.5 -166t-185.5 -98q-60 -18 -133 -18zM553 1013q-129 0 -233.5 -63t-164 -168.5t-59.5 -227.5t60.5 -228t165.5 -169
t231 -63q124 0 229 62t167 167.5t62 230.5q0 108 -45.5 199.5t-122 153.5t-170.5 88q-54 18 -120 18zM275 861q57 51 128 79t150 28q77 0 147.5 -28.5t124.5 -78.5h-550zM940 414q-24 -67 -69 -123h-548l536 540q105 -129 105 -277q0 -73 -24 -140zM244 278q-49 56 -76 127
t-27 149q0 146 92 262h547zM829 246q-58 -49 -129 -77t-147 -28q-77 0 -147 28t-128 77h551z" />
    <glyph glyph-name="f_f" unicode="ff" horiz-adv-x="1480" 
d="M1623 1406q0 -6 -4 -18l-111 -277q-9 -23 -28 -23q-7 0 -17 5q-14 8 -33.5 12.5t-38.5 4.5q-57 0 -90 -38t-33 -105v-89h139q18 0 28.5 -10.5t10.5 -28.5v-256q0 -19 -10.5 -29t-28.5 -10h-139v-505q0 -19 -10.5 -29t-28.5 -10h-317q-18 0 -28.5 10t-10.5 29v465h-336
v-465q0 -16 -11.5 -27.5t-27.5 -11.5h-317q-16 0 -27.5 11.5t-11.5 27.5v465h-79q-16 0 -27 11.5t-11 27.5v296q0 16 11 27.5t27 11.5h79v83q0 165 66 285t190.5 184t294.5 64q87 0 173.5 -33t159.5 -93q66 62 157.5 94t203.5 32q58 0 116 -15t102 -42q18 -12 18 -31z
M537 878h336v83q0 20 2 58q-57 53 -93 72t-91 19q-72 0 -113 -38t-41 -105v-89z" />
    <glyph glyph-name="f_f_i" unicode="ffi" horiz-adv-x="2015" 
d="M1934 867.5q10 -10.5 10 -28.5v-800q0 -19 -10 -29t-28 -10h-317q-18 0 -28.5 10t-10.5 29v465h-282v-465q0 -19 -10.5 -29t-28.5 -10h-317q-18 0 -28.5 10t-10.5 29v465h-336v-465q0 -16 -11.5 -27.5t-27.5 -11.5h-317q-16 0 -27.5 11.5t-11.5 27.5v465h-79
q-16 0 -27 11.5t-11 27.5v296q0 16 11 27.5t27 11.5h79v83q0 165 66 285t190.5 184t294.5 64q89 0 177 -34t162 -97q71 64 170.5 97.5t221.5 33.5q113 0 222.5 -54.5t189.5 -149.5q16 -19 16 -38q0 -17 -12 -29l-218 -210q-13 -13 -29 -13q-22 0 -40 23q-4 6 -26 33.5
t-47.5 40.5t-57.5 13q-72 0 -113 -38t-41 -105v-89h638q18 0 28 -10.5zM873 878v83q0 20 2 58q-57 53 -93 72t-91 19q-72 0 -113 -38t-41 -105v-89h336z" />
    <glyph glyph-name="f_i" unicode="fi" horiz-adv-x="1284" 
d="M1203 867.5q10 -10.5 10 -28.5v-800q0 -19 -10 -29t-28 -10h-317q-18 0 -28.5 10t-10.5 29v465h-282v-465q0 -19 -10.5 -29t-28.5 -10h-317q-18 0 -28.5 10t-10.5 29v465h-79q-18 0 -28 10t-10 29v296q0 18 10 28.5t28 10.5h79v83q0 165 66 285t190.5 184t294.5 64
q113 0 222.5 -54.5t189.5 -149.5q16 -19 16 -38q0 -17 -12 -29l-218 -210q-13 -13 -29 -13q-22 0 -40 23q-4 6 -26 33.5t-47.5 40.5t-57.5 13q-72 0 -113 -38t-41 -105v-89h638q18 0 28 -10.5z" />
    <glyph glyph-name="f_b.liga" unicode="fb" horiz-adv-x="1821" 
d="M1612 849.5q89 -60.5 138 -168.5t49 -245q0 -136 -49 -243t-138 -167t-204 -60q-83 0 -148.5 35t-109.5 103l-43 -65q-3 -5 -10 -16.5t-14.5 -17t-19.5 -5.5h-191q-19 0 -29 10t-10 29v1003q-25 30 -61.5 49t-80.5 19q-43 0 -78 -19t-55.5 -52t-20.5 -72v-89h139
q18 0 28.5 -10.5t10.5 -28.5v-256q0 -19 -10.5 -29t-28.5 -10h-139v-505q0 -19 -10.5 -29t-28.5 -10h-317q-18 0 -28.5 10t-10.5 29v505h-79q-18 0 -28 10t-10 29v256q0 18 10 28.5t28 10.5h79v83q0 167 67 287.5t182.5 183t259.5 62.5q80 0 160 -32t146 -90l23 50
q17 39 49 39h159q19 0 29 -10t10 -29v-568q76 56 181 56q115 0 204 -60.5zM1400 366.5q29 29.5 29 71.5q0 43 -29 72t-71 29t-71.5 -29t-29.5 -72q0 -42 29.5 -71.5t71.5 -29.5t71 29.5z" />
    <glyph glyph-name="f_f_b.liga" unicode="ffb" horiz-adv-x="2552" 
d="M2343 849.5q89 -60.5 138 -168.5t49 -245q0 -136 -49 -243t-138 -167t-204 -60q-83 0 -148.5 35t-109.5 103l-43 -65q-3 -5 -10 -16.5t-14.5 -17t-19.5 -5.5h-191q-19 0 -29 10t-10 29v1003q-25 30 -61.5 49t-80.5 19q-43 0 -78 -19t-55.5 -52t-20.5 -72v-89h139
q18 0 28.5 -10.5t10.5 -28.5v-256q0 -19 -10.5 -29t-28.5 -10h-139v-505q0 -19 -10.5 -29t-28.5 -10h-317q-18 0 -28.5 10t-10.5 29v465h-336v-465q0 -16 -11.5 -27.5t-27.5 -11.5h-317q-16 0 -27.5 11.5t-11.5 27.5v465h-79q-16 0 -27 11.5t-11 27.5v296q0 16 11 27.5
t27 11.5h79v83q0 165 66 285t190.5 184t294.5 64q88 0 175.5 -33.5t161.5 -95.5q68 63 158.5 96t193.5 33q80 0 160 -32t146 -90l23 50q17 39 49 39h159q19 0 29 -10t10 -29v-568q76 56 181 56q115 0 204 -60.5zM537 878h336v83q0 20 2 58q-57 53 -93 72t-91 19
q-72 0 -113 -38t-41 -105v-89zM2131 366.5q29 29.5 29 71.5q0 43 -29 72t-71 29t-71.5 -29t-29.5 -72q0 -42 29.5 -71.5t71.5 -29.5t71 29.5z" />
    <glyph glyph-name="f_f_h.liga" unicode="ffh" horiz-adv-x="2543" 
d="M2397.5 802q83.5 -108 83.5 -325v-434q0 -41 -41 -41h-312q-41 0 -41 41v437q0 25 -18.5 39.5t-42.5 14.5q-25 0 -43.5 -14.5t-24.5 -42.5v-438q0 -19 -10 -29t-29 -10h-316q-19 0 -29 10t-10 29v1003q-25 30 -61.5 49t-80.5 19q-43 0 -78 -19t-55.5 -52t-20.5 -72v-89
h139q18 0 28.5 -10.5t10.5 -28.5v-256q0 -19 -10.5 -29t-28.5 -10h-139v-505q0 -19 -10.5 -29t-28.5 -10h-317q-18 0 -28.5 10t-10.5 29v465h-336v-465q0 -16 -11.5 -27.5t-27.5 -11.5h-317q-16 0 -27.5 11.5t-11.5 27.5v465h-79q-16 0 -27 11.5t-11 27.5v296q0 16 11 27.5
t27 11.5h79v83q0 165 66 285t190.5 184t294.5 64q88 0 175.5 -33.5t161.5 -95.5q68 63 158.5 96t193.5 33q80 0 160 -32t146 -90l23 50q17 39 49 39h159q19 0 29 -10t10 -29v-564q82 52 180 52q176 0 259.5 -108zM537 878h336v83q0 20 2 58q-57 53 -93 72t-91 19
q-72 0 -113 -38t-41 -105v-89z" />
    <glyph glyph-name="f_f_ij.liga" unicode="ff&#x133;" horiz-adv-x="2540" 
d="M1268 504v-465q0 -19 -10.5 -29t-28.5 -10h-317q-18 0 -28.5 10t-10.5 29v465h-336v-465q0 -16 -11.5 -27.5t-27.5 -11.5h-317q-16 0 -27.5 11.5t-11.5 27.5v465h-79q-16 0 -27 11.5t-11 27.5v296q0 16 11 27.5t27 11.5h79v83q0 165 66 285t190.5 184t294.5 64
q89 0 177 -34t162 -97q71 64 170.5 97.5t221.5 33.5q113 0 222.5 -54.5t189.5 -149.5q16 -19 16 -38q0 -17 -12 -29l-218 -210q-13 -13 -29 -13q-22 0 -40 23q-4 6 -26 33.5t-47.5 40.5t-57.5 13q-72 0 -113 -38t-41 -105v-89h626q19 0 29 -10.5t10 -28.5v-800
q0 -19 -10 -29t-29 -10h-316q-19 0 -29 10t-10 29v465h-271zM2159 1058.5q-52 30.5 -82.5 82t-30.5 113.5t30.5 114t82.5 82.5t114 30.5q61 0 113 -31t82.5 -83t30.5 -113t-30.5 -113t-82.5 -82.5t-113 -30.5q-62 0 -114 30.5zM873 878v83q0 20 2 58q-57 53 -93 72t-91 19
q-72 0 -113 -38t-41 -105v-89h336zM2459 867.5q10 -10.5 10 -28.5v-1007q0 -140 -56 -241t-161.5 -155t-250.5 -54t-250.5 53.5t-161.5 153.5t-56 239v21q0 19 11 29.5t30 10.5h312q20 0 30.5 -11t10.5 -30v-16q0 -32 20 -50t54 -18t53.5 19t19.5 53v203h1v800q0 18 10 28.5
t29 10.5h316q19 0 29 -10.5z" />
    <glyph glyph-name="f_f_j.liga" unicode="ffj" horiz-adv-x="2004" 
d="M1923 867.5q10 -10.5 10 -28.5v-845q0 -229 -126 -343.5t-373 -114.5h-12q-19 0 -30 10.5t-11 30.5v261q0 20 10.5 30.5t30.5 10.5h10q54 0 80.5 18.5t26.5 61.5v545h-271v-465q0 -19 -10.5 -29t-28.5 -10h-317q-18 0 -28.5 10t-10.5 29v465h-336v-465q0 -16 -11.5 -27.5
t-27.5 -11.5h-317q-16 0 -27.5 11.5t-11.5 27.5v465h-79q-16 0 -27 11.5t-11 27.5v296q0 16 11 27.5t27 11.5h79v83q0 165 66 285t190.5 184t294.5 64q89 0 177 -34t162 -97q71 64 170.5 97.5t221.5 33.5q113 0 222.5 -54.5t189.5 -149.5q16 -19 16 -38q0 -17 -12 -29
l-218 -210q-13 -13 -29 -13q-22 0 -40 23q-4 6 -26 33.5t-47.5 40.5t-57.5 13q-72 0 -113 -38t-41 -105v-89h626q19 0 29 -10.5zM873 878v83q0 20 2 58q-57 53 -93 72t-91 19q-72 0 -113 -38t-41 -105v-89h336z" />
    <glyph glyph-name="f_f_k.liga" unicode="ffk" horiz-adv-x="2559" 
d="M2555 31q0 -14 -9.5 -22.5t-25.5 -8.5h-354q-20 0 -32 9t-22 30l-118 226l-36 -41v-185q0 -19 -10 -29t-29 -10h-316q-19 0 -29 10t-10 29v1003q-25 30 -61.5 49t-80.5 19q-43 0 -78 -19t-55.5 -52t-20.5 -72v-89h139q18 0 28.5 -10.5t10.5 -28.5v-256q0 -19 -10.5 -29
t-28.5 -10h-139v-505q0 -19 -10.5 -29t-28.5 -10h-317q-18 0 -28.5 10t-10.5 29v465h-336v-465q0 -16 -11.5 -27.5t-27.5 -11.5h-317q-16 0 -27.5 11.5t-11.5 27.5v465h-79q-16 0 -27 11.5t-11 27.5v296q0 16 11 27.5t27 11.5h79v83q0 165 66 285t190.5 184t294.5 64
q88 0 175.5 -33.5t161.5 -95.5q68 63 158.5 96t193.5 33q80 0 160 -32t146 -90l23 50q17 39 49 39h159q19 0 29 -10t10 -29v-779l150 207q14 19 29 23.5t42 4.5h338q20 0 29 -8t9 -21q0 -15 -10 -28l-268 -308l269 -452q9 -16 9 -30zM537 878h336v83q0 20 2 58
q-57 53 -93 72t-91 19q-72 0 -113 -38t-41 -105v-89z" />
    <glyph glyph-name="f_f_l.liga" unicode="ffl" horiz-adv-x="2032" 
d="M1948 1451q10 -10 10 -29v-1383q0 -19 -10 -29t-29 -10h-316q-19 0 -29 10t-10 29v1003q-25 30 -61.5 49t-80.5 19q-43 0 -78 -19t-55.5 -52t-20.5 -72v-89h139q18 0 28.5 -10.5t10.5 -28.5v-256q0 -19 -10.5 -29t-28.5 -10h-139v-505q0 -19 -10.5 -29t-28.5 -10h-317
q-18 0 -28.5 10t-10.5 29v465h-336v-465q0 -16 -11.5 -27.5t-27.5 -11.5h-317q-16 0 -27.5 11.5t-11.5 27.5v465h-79q-16 0 -27 11.5t-11 27.5v296q0 16 11 27.5t27 11.5h79v83q0 165 66 285t190.5 184t294.5 64q88 0 175.5 -33.5t161.5 -95.5q68 63 158.5 96t193.5 33
q80 0 160 -32t146 -90l23 50q17 39 49 39h159q19 0 29 -10zM537 878h336v83q0 20 2 58q-57 53 -93 72t-91 19q-72 0 -113 -38t-41 -105v-89z" />
    <glyph glyph-name="f_h.liga" unicode="fh" horiz-adv-x="1812" 
d="M1666.5 802q83.5 -108 83.5 -325v-434q0 -41 -41 -41h-312q-41 0 -41 41v437q0 25 -18.5 39.5t-42.5 14.5q-25 0 -43.5 -14.5t-24.5 -42.5v-438q0 -19 -10 -29t-29 -10h-316q-19 0 -29 10t-10 29v1003q-25 30 -61.5 49t-80.5 19q-43 0 -78 -19t-55.5 -52t-20.5 -72v-89
h139q18 0 28.5 -10.5t10.5 -28.5v-256q0 -19 -10.5 -29t-28.5 -10h-139v-505q0 -19 -10.5 -29t-28.5 -10h-317q-18 0 -28.5 10t-10.5 29v505h-79q-18 0 -28 10t-10 29v256q0 18 10 28.5t28 10.5h79v83q0 167 67 287.5t182.5 183t259.5 62.5q80 0 160 -32t146 -90l23 50
q17 39 49 39h159q19 0 29 -10t10 -29v-564q82 52 180 52q176 0 259.5 -108z" />
    <glyph glyph-name="f_ij.liga" unicode="f&#x133;" horiz-adv-x="1809" 
d="M537 504v-465q0 -19 -10.5 -29t-28.5 -10h-317q-18 0 -28.5 10t-10.5 29v465h-79q-18 0 -28 10t-10 29v296q0 18 10 28.5t28 10.5h79v83q0 165 66 285t190.5 184t294.5 64q113 0 222.5 -54.5t189.5 -149.5q16 -19 16 -38q0 -17 -12 -29l-218 -210q-13 -13 -29 -13
q-22 0 -40 23q-4 6 -26 33.5t-47.5 40.5t-57.5 13q-72 0 -113 -38t-41 -105v-89h626q19 0 29 -10.5t10 -28.5v-800q0 -19 -10 -29t-29 -10h-316q-19 0 -29 10t-10 29v465h-271zM1428 1058.5q-52 30.5 -82.5 82t-30.5 113.5t30.5 114t82.5 82.5t114 30.5q61 0 113 -31
t82.5 -83t30.5 -113t-30.5 -113t-82.5 -82.5t-113 -30.5q-62 0 -114 30.5zM1728 867.5q10 -10.5 10 -28.5v-1007q0 -140 -56 -241t-161.5 -155t-250.5 -54t-250.5 53.5t-161.5 153.5t-56 239v21q0 19 11 29.5t30 10.5h312q20 0 30.5 -11t10.5 -30v-16q0 -32 20 -50t54 -18
t53.5 19t19.5 53v203h1v800q0 18 10 28.5t29 10.5h316q19 0 29 -10.5z" />
    <glyph glyph-name="f_j.liga" unicode="fj" horiz-adv-x="1273" 
d="M1192 867.5q10 -10.5 10 -28.5v-845q0 -229 -126 -343.5t-373 -114.5h-12q-19 0 -30 10.5t-11 30.5v261q0 20 10.5 30.5t30.5 10.5h10q54 0 80.5 18.5t26.5 61.5v545h-271v-465q0 -19 -10.5 -29t-28.5 -10h-317q-18 0 -28.5 10t-10.5 29v465h-79q-18 0 -28 10t-10 29v296
q0 18 10 28.5t28 10.5h79v83q0 165 66 285t190.5 184t294.5 64q113 0 222.5 -54.5t189.5 -149.5q16 -19 16 -38q0 -17 -12 -29l-218 -210q-13 -13 -29 -13q-22 0 -40 23q-4 6 -26 33.5t-47.5 40.5t-57.5 13q-72 0 -113 -38t-41 -105v-89h626q19 0 29 -10.5z" />
    <glyph glyph-name="f_k.liga" unicode="fk" horiz-adv-x="1828" 
d="M1824 31q0 -14 -9.5 -22.5t-25.5 -8.5h-354q-20 0 -32 9t-22 30l-118 226l-36 -41v-185q0 -19 -10 -29t-29 -10h-316q-19 0 -29 10t-10 29v1003q-25 30 -61.5 49t-80.5 19q-43 0 -78 -19t-55.5 -52t-20.5 -72v-89h139q18 0 28.5 -10.5t10.5 -28.5v-256q0 -19 -10.5 -29
t-28.5 -10h-139v-505q0 -19 -10.5 -29t-28.5 -10h-317q-18 0 -28.5 10t-10.5 29v505h-79q-18 0 -28 10t-10 29v256q0 18 10 28.5t28 10.5h79v83q0 167 67 287.5t182.5 183t259.5 62.5q80 0 160 -32t146 -90l23 50q17 39 49 39h159q19 0 29 -10t10 -29v-779l150 207
q14 19 29 23.5t42 4.5h338q20 0 29 -8t9 -21q0 -15 -10 -28l-268 -308l269 -452q9 -16 9 -30z" />
    <glyph glyph-name="f_l.liga" unicode="fl" horiz-adv-x="1301" 
d="M1217 1451q10 -10 10 -29v-1383q0 -19 -10 -29t-29 -10h-316q-19 0 -29 10t-10 29v1003q-25 30 -61.5 49t-80.5 19q-43 0 -78 -19t-55.5 -52t-20.5 -72v-89h139q18 0 28.5 -10.5t10.5 -28.5v-256q0 -19 -10.5 -29t-28.5 -10h-139v-505q0 -19 -10.5 -29t-28.5 -10h-317
q-18 0 -28.5 10t-10.5 29v505h-79q-18 0 -28 10t-10 29v256q0 18 10 28.5t28 10.5h79v83q0 167 67 287.5t182.5 183t259.5 62.5q80 0 160 -32t146 -90l23 50q17 39 49 39h159q19 0 29 -10z" />
    <glyph glyph-name="f_t.liga" unicode="ft" horiz-adv-x="1442" 
d="M1411 867.5q10 -10.5 10 -28.5v-256q0 -19 -10 -29t-28 -10h-139v-505q0 -19 -10 -29t-29 -10h-316q-19 0 -29 10t-10 29v465h-313v-465q0 -19 -10.5 -29t-28.5 -10h-317q-18 0 -28.5 10t-10.5 29v465h-79q-18 0 -28 10t-10 29v296q0 18 10 28.5t28 10.5h79v83
q0 165 61.5 285t177.5 184t275 64q58 0 116 -15t102 -42q18 -12 18 -31q0 -6 -4 -18l-110 -277q-9 -23 -28 -23q-10 0 -18 5q-14 8 -33.5 12.5t-38.5 4.5q-57 0 -90 -38t-33 -105v-89h312v153q0 35 33 47l314 124q8 4 18 4q14 0 21.5 -10t7.5 -27v-291h140q18 0 28 -10.5z
" />
    <glyph glyph-name=".notdef" horiz-adv-x="1105" 
d="M553 57q-139 0 -253 68t-179.5 182.5t-65.5 246.5q0 139 68 253.5t182.5 180.5t247.5 66q139 0 253 -69.5t179 -184.5t65 -246q0 -117 -48 -215t-130.5 -166t-185.5 -98q-60 -18 -133 -18zM553 1013q-129 0 -233.5 -63t-164 -168.5t-59.5 -227.5t60.5 -228t165.5 -169
t231 -63q124 0 229 62t167 167.5t62 230.5q0 108 -45.5 199.5t-122 153.5t-170.5 88q-54 18 -120 18zM275 861q57 51 128 79t150 28q77 0 147.5 -28.5t124.5 -78.5h-550zM940 414q-24 -67 -69 -123h-548l536 540q105 -129 105 -277q0 -73 -24 -140zM244 278q-49 56 -76 127
t-27 149q0 146 92 262h547zM829 246q-58 -49 -129 -77t-147 -28q-77 0 -147 28t-128 77h551z" />
    <glyph glyph-name=".null" horiz-adv-x="614" 
 />
    <glyph glyph-name="nonmarkingreturn" unicode="&#xd;" horiz-adv-x="614" 
 />
    <glyph glyph-name="space" unicode=" " horiz-adv-x="538" 
 />
    <glyph glyph-name="exclam" unicode="!" horiz-adv-x="610" 
d="M90 1432q-1 20 10.5 31.5t32.5 11.5h343q21 0 32.5 -11.5t10.5 -31.5l-30 -906q-1 -20 -12.5 -31.5t-31.5 -11.5h-281q-20 0 -31.5 11.5t-12.5 31.5zM192 -3q-51 30 -81 81t-30 111q0 61 30 111.5t81 80.5t112 30q60 0 111 -30t80.5 -81t29.5 -111t-30 -111t-80.5 -81
t-110.5 -30q-61 0 -112 30z" />
    <glyph glyph-name="quotedbl" unicode="&#x22;" horiz-adv-x="854" 
d="M75 1416q0 44 43 44h196q24 0 31 -12t7 -32l-10 -489q0 -21 -8 -29.5t-27 -8.5h-190q-21 0 -26.5 10.5t-6.5 32.5zM502 1416q0 44 43 44h196q24 0 31 -12t7 -32l-10 -489q0 -21 -8 -29.5t-27 -8.5h-190q-21 0 -26.5 10.5t-6.5 32.5z" />
    <glyph glyph-name="numbersign" unicode="#" horiz-adv-x="1236" 
d="M1196 1089.5q11 -11.5 8 -29.5l-30 -196q-3 -19 -14 -29.5t-28 -10.5h-130l-31 -199h121q20 0 31 -11.5t8 -29.5l-30 -196q-3 -19 -14 -29.5t-28 -10.5h-130l-47 -305q-4 -19 -15.5 -31t-27.5 -12h-202q-17 0 -26.5 9t-9.5 25l1 9l47 305h-177l-47 -305
q-4 -20 -15.5 -31.5t-27.5 -11.5h-202q-17 0 -26.5 9t-9.5 25l1 9l47 305h-123q-12 0 -26.5 13t-12.5 27l30 194q3 19 13.5 31t28.5 12h132l31 199h-123q-12 0 -26.5 13t-12.5 27l30 194q3 19 13.5 31t28.5 12h132l49 316q3 20 14.5 32t28.5 12h200q17 0 27.5 -10t10.5 -26
l-1 -8l-49 -316h177l49 316q3 20 14.5 32t28.5 12h200q17 0 27.5 -10t10.5 -26l-1 -8l-49 -316h121q20 0 31 -11.5zM722 824h-177l-31 -199h177z" />
    <glyph glyph-name="dollar" unicode="$" horiz-adv-x="1261" 
d="M1159 205q-63 -104 -173.5 -165.5t-250.5 -74.5v-85q0 -20 -11 -32.5t-28 -13.5h-76q-18 1 -28.5 13.5t-10.5 32.5v85q-137 10 -271.5 43.5t-219.5 86.5q-27 17 -27 45q0 21 12 43l131 270q8 16 22 24.5t32 8.5q13 0 34 -7q85 -30 152.5 -47.5t134.5 -23.5v152
q-35 11 -33 10q-165 49 -260.5 106t-139.5 138.5t-44 205.5q0 136 67 236t175.5 157t234.5 71v139q0 20 10.5 33t28.5 13h76q17 0 28 -13t11 -33v-138q122 -13 232 -56t173 -82q39 -26 39 -55q0 -18 -14 -46l-131 -277q-13 -28 -43 -28q-25 0 -59 17q-55 26 -100 44.5
t-97 31.5v-148l40 -12q151 -44 241.5 -87t148 -125t57.5 -219q0 -134 -63 -238zM581 948v98q-22 -6 -33.5 -19.5t-11.5 -30.5q0 -22 45 -48zM765 455q0 15 -6.5 26t-23.5 21v-91q30 15 30 44z" />
    <glyph glyph-name="percent" unicode="%" horiz-adv-x="1924" 
d="M706 1439q97 -56 153.5 -153t56.5 -214q0 -116 -56.5 -213t-153.5 -153.5t-214 -56.5q-116 0 -212 56.5t-152 153.5t-56 213q0 117 56 214t152 153t212 56q117 0 214 -56zM562.5 953q31.5 18 50 49.5t18.5 69.5t-18.5 69.5t-50 49.5t-69.5 18q-37 0 -68.5 -18t-50 -49.5
t-18.5 -69.5t18.5 -69.5t50 -49.5t68.5 -18q38 0 69.5 18zM1858 557q35 -80 35 -171q0 -116 -56.5 -213t-153.5 -153.5t-214 -56.5q-82 0 -154 29q-34 -1 -92 8q-122 21 -215.5 93t-145 176t-51.5 220q0 41 8 87q21 122 93 216t177 145.5t221 51.5q45 0 86 -7
q126 -23 220.5 -99.5t143.5 -186.5q63 -59 98 -139zM1231 36q-46 31 -80 72q-94 40 -167 126l99 -18q-12 32 -17 49l-30 5l24 17q-7 28 -8 51l-96 -67q-59 99 -59 216q0 37 6 74q26 143 136 242l234 -41q35 18 80 31l-265 47q101 63 220 63q37 0 73 -6q116 -21 204 -104
q53 -14 97 -39q-69 96 -178 149q-52 27 -115 38q-39 7 -82 7q-111 0 -206.5 -49.5t-159.5 -136.5t-82 -194q-7 -38 -7 -79q0 -107 47.5 -203.5t133.5 -163t196 -86.5h2z" />
    <glyph glyph-name="ampersand" unicode="&#x26;" horiz-adv-x="1651" 
d="M1639.5 779.5q10.5 -16.5 10.5 -39.5q0 -18 -5 -33q-27 -84 -81 -148.5t-126 -100.5t-151 -36h-17q-19 -136 -96.5 -239t-203 -159.5t-282.5 -56.5q-179 0 -317 66t-214.5 185.5t-76.5 273.5q0 85 40 155.5t114 121.5q-51 58 -78 130t-27 151q0 131 63.5 232t178 157
t262.5 56q146 0 258.5 -56t175 -157t62.5 -232q0 -31 -21.5 -50t-55.5 -19l-247 -2q-31 0 -50.5 20t-19.5 51q0 39 -29 63.5t-75 24.5q-48 0 -78 -25t-30 -65q0 -44 24.5 -74t64.5 -34q32 -4 51 -24.5t16 -48.5l-24 -223q-3 -23 -19.5 -37t-41.5 -14q-8 0 -12 1l-10 1
q-5 1 -16 1q-39 0 -60.5 -25.5t-21.5 -77.5q0 -38 27 -67.5t75.5 -45.5t111.5 -16q90 0 146 39t56 103v10q-23 -1 -48.5 -6.5t-34.5 -7.5q-8 -2 -23 -2q-33 0 -52 20.5t-17 54.5l17 227q2 28 19.5 49t43.5 29q48 13 103 13q19 0 29 -1q45 -5 79 -16t76 -29
q46 -20 78.5 -29.5t75.5 -9.5q21 0 37 10.5t22 28.5q7 20 23 31t39 11q14 0 35 -7l218 -79q19 -7 29.5 -23.5z" />
    <glyph glyph-name="quotesingle" unicode="'" horiz-adv-x="427" 
d="M75 1416q0 44 43 44h196q24 0 31 -12t7 -32l-10 -489q0 -21 -8 -29.5t-27 -8.5h-190q-21 0 -26.5 10.5t-6.5 32.5z" />
    <glyph glyph-name="parenleft" unicode="(" horiz-adv-x="778" 
d="M789 -107q0 -8 -1 -12l-27 -261q-3 -28 -42 -28q-219 0 -356 107.5t-204 343t-67 623.5q0 5 1 7q-1 2 -1 7q0 1073 627 1073q39 0 42 -28l27 -261q1 -4 1 -11q0 -39 -48 -39q-126 0 -187.5 -190.5t-61.5 -547.5v-3v-3q0 -380 60.5 -559.5t188.5 -179.5q48 0 48 -38z" />
    <glyph glyph-name="parenright" unicode=")" horiz-adv-x="778" 
d="M685 673q1 -2 1 -7q0 -388 -67 -623.5t-204 -343t-356 -107.5q-39 0 -42 28l-27 261q-1 4 -1 12q0 38 48 38q128 0 188.5 179.5t60.5 559.5v3v3q0 357 -61.5 547.5t-187.5 190.5q-48 0 -48 39q0 7 1 11l27 261q3 28 42 28q627 0 627 -1073q0 -5 -1 -7z" />
    <glyph glyph-name="asterisk" unicode="*" horiz-adv-x="966" 
d="M869 1187.5q12 -8.5 12 -24.5v-222q0 -15 -9.5 -24t-24.5 -9l-9 1l-150 25l93 -117q12 -13 12 -27q0 -17 -17 -26l-190 -109q-10 -5 -18 -5q-10 0 -19 6.5t-13 18.5l-53 129l-53 -127q-5 -13 -14 -20t-20 -7q-7 0 -14 4l-193 112q-17 9 -17 26q0 13 11 27l94 116
l-146 -23q-3 -1 -9 -1q-16 0 -25 8.5t-9 23.5l1 220q0 17 11.5 26.5t30.5 7.5l137 -19l-84 110q-10 14 -10 28q0 16 14 24l194 112q10 5 17 5q10 0 19 -7t13 -19l54 -142l55 141q9 26 30 26q11 0 18 -5l189 -111q18 -9 18 -28q0 -14 -10 -25l-87 -111l140 18q19 2 31 -6.5z
" />
    <glyph glyph-name="plus" unicode="+" horiz-adv-x="882" 
d="M823.5 611q12.5 -13 12.5 -33v-185q0 -20 -13.5 -33t-34.5 -13h-208v-212q0 -18 -13.5 -31.5t-32.5 -13.5h-183q-20 0 -34 13.5t-14 33.5v210h-212q-18 0 -31.5 13.5t-13.5 32.5v182q0 21 13.5 35t33.5 14h210v211q0 20 13 32.5t33 12.5h185q20 0 33 -13.5t13 -33.5v-209
h211q20 0 32.5 -13z" />
    <glyph glyph-name="comma" unicode="," horiz-adv-x="620" 
d="M112 300q29 51 79 80.5t110 29.5q65 0 119 -35.5t85.5 -97.5t31.5 -136q0 -140 -38.5 -246t-119.5 -192q-14 -14 -36 -14q-20 0 -34 11l-89 69q-12 10 -12 27q0 22 19 44q28 30 47 64t19 54q0 8 -4.5 14t-10.5 6h-17q-49 0 -89.5 28t-64.5 76t-24 106q0 61 29 112z" />
    <glyph glyph-name="hyphen" unicode="-" horiz-adv-x="876" 
d="M109 566q0 26 15.5 41.5t34.5 15.5h557q51 0 51 -53v-256q0 -24 -16 -37t-41 -13h-551q-19 0 -34.5 13.5t-15.5 36.5v252z" />
    <glyph glyph-name="period" unicode="." horiz-adv-x="610" 
d="M194 -4q-51 30 -81 81t-30 111q0 61 30 111.5t81 80.5t112 30q60 0 111 -30t80.5 -81t29.5 -111t-30 -111t-80.5 -81t-110.5 -30q-61 0 -112 30z" />
    <glyph glyph-name="slash" unicode="/" horiz-adv-x="1078" 
d="M386 0h-347q-29 0 -29 22q0 8 5 21l617 1373q20 44 62 44h344q30 0 30 -22q0 -11 -5 -22l-615 -1373q-18 -43 -62 -43z" />
    <glyph glyph-name="zero" unicode="0" 
d="M544 57q-139 0 -253 68t-179.5 182.5t-65.5 246.5q0 139 68 253.5t182.5 180.5t247.5 66q139 0 252.5 -69.5t178.5 -184.5t65 -246q0 -117 -47.5 -215t-130 -166t-185.5 -98q-60 -18 -133 -18zM544 1013q-129 0 -233.5 -63t-164 -168.5t-59.5 -227.5t60.5 -228
t165.5 -169t231 -63q124 0 229 61.5t166.5 167.5t61.5 231q0 108 -45 199.5t-122 153.5t-170 88q-54 18 -120 18zM266 861q57 51 128 79t150 28q77 0 147 -28.5t125 -78.5h-550zM930.5 413q-23.5 -67 -68.5 -122h-549l537 540q104 -128 104 -277q0 -74 -23.5 -141zM234 278
q-49 56 -75.5 127t-26.5 149q0 146 92 262h547zM820 246q-59 -49 -129.5 -77t-146.5 -28q-77 0 -147 28t-129 77h552z" />
    <glyph glyph-name="one" unicode="1" 
d="M544 57q-139 0 -253 68t-179.5 182.5t-65.5 246.5q0 139 68 253.5t182.5 180.5t247.5 66q139 0 252.5 -69.5t178.5 -184.5t65 -246q0 -117 -47.5 -215t-130 -166t-185.5 -98q-60 -18 -133 -18zM544 1013q-129 0 -233.5 -63t-164 -168.5t-59.5 -227.5t60.5 -228
t165.5 -169t231 -63q124 0 229 61.5t166.5 167.5t61.5 231q0 108 -45 199.5t-122 153.5t-170 88q-54 18 -120 18zM266 861q57 51 128 79t150 28q77 0 147 -28.5t125 -78.5h-550zM930.5 413q-23.5 -67 -68.5 -122h-549l537 540q104 -128 104 -277q0 -74 -23.5 -141zM234 278
q-49 56 -75.5 127t-26.5 149q0 146 92 262h547zM820 246q-59 -49 -129.5 -77t-146.5 -28q-77 0 -147 28t-129 77h552z" />
    <glyph glyph-name="two" unicode="2" 
d="M544 57q-139 0 -253 68t-179.5 182.5t-65.5 246.5q0 139 68 253.5t182.5 180.5t247.5 66q139 0 252.5 -69.5t178.5 -184.5t65 -246q0 -117 -47.5 -215t-130 -166t-185.5 -98q-60 -18 -133 -18zM544 1013q-129 0 -233.5 -63t-164 -168.5t-59.5 -227.5t60.5 -228
t165.5 -169t231 -63q124 0 229 61.5t166.5 167.5t61.5 231q0 108 -45 199.5t-122 153.5t-170 88q-54 18 -120 18zM266 861q57 51 128 79t150 28q77 0 147 -28.5t125 -78.5h-550zM930.5 413q-23.5 -67 -68.5 -122h-549l537 540q104 -128 104 -277q0 -74 -23.5 -141zM234 278
q-49 56 -75.5 127t-26.5 149q0 146 92 262h547zM820 246q-59 -49 -129.5 -77t-146.5 -28q-77 0 -147 28t-129 77h552z" />
    <glyph glyph-name="three" unicode="3" 
d="M544 57q-139 0 -253 68t-179.5 182.5t-65.5 246.5q0 139 68 253.5t182.5 180.5t247.5 66q139 0 252.5 -69.5t178.5 -184.5t65 -246q0 -117 -47.5 -215t-130 -166t-185.5 -98q-60 -18 -133 -18zM544 1013q-129 0 -233.5 -63t-164 -168.5t-59.5 -227.5t60.5 -228
t165.5 -169t231 -63q124 0 229 61.5t166.5 167.5t61.5 231q0 108 -45 199.5t-122 153.5t-170 88q-54 18 -120 18zM266 861q57 51 128 79t150 28q77 0 147 -28.5t125 -78.5h-550zM930.5 413q-23.5 -67 -68.5 -122h-549l537 540q104 -128 104 -277q0 -74 -23.5 -141zM234 278
q-49 56 -75.5 127t-26.5 149q0 146 92 262h547zM820 246q-59 -49 -129.5 -77t-146.5 -28q-77 0 -147 28t-129 77h552z" />
    <glyph glyph-name="four" unicode="4" 
d="M544 57q-139 0 -253 68t-179.5 182.5t-65.5 246.5q0 139 68 253.5t182.5 180.5t247.5 66q139 0 252.5 -69.5t178.5 -184.5t65 -246q0 -117 -47.5 -215t-130 -166t-185.5 -98q-60 -18 -133 -18zM544 1013q-129 0 -233.5 -63t-164 -168.5t-59.5 -227.5t60.5 -228
t165.5 -169t231 -63q124 0 229 61.5t166.5 167.5t61.5 231q0 108 -45 199.5t-122 153.5t-170 88q-54 18 -120 18zM266 861q57 51 128 79t150 28q77 0 147 -28.5t125 -78.5h-550zM930.5 413q-23.5 -67 -68.5 -122h-549l537 540q104 -128 104 -277q0 -74 -23.5 -141zM234 278
q-49 56 -75.5 127t-26.5 149q0 146 92 262h547zM820 246q-59 -49 -129.5 -77t-146.5 -28q-77 0 -147 28t-129 77h552z" />
    <glyph glyph-name="five" unicode="5" 
d="M544 57q-139 0 -253 68t-179.5 182.5t-65.5 246.5q0 139 68 253.5t182.5 180.5t247.5 66q139 0 252.5 -69.5t178.5 -184.5t65 -246q0 -117 -47.5 -215t-130 -166t-185.5 -98q-60 -18 -133 -18zM544 1013q-129 0 -233.5 -63t-164 -168.5t-59.5 -227.5t60.5 -228
t165.5 -169t231 -63q124 0 229 61.5t166.5 167.5t61.5 231q0 108 -45 199.5t-122 153.5t-170 88q-54 18 -120 18zM266 861q57 51 128 79t150 28q77 0 147 -28.5t125 -78.5h-550zM930.5 413q-23.5 -67 -68.5 -122h-549l537 540q104 -128 104 -277q0 -74 -23.5 -141zM234 278
q-49 56 -75.5 127t-26.5 149q0 146 92 262h547zM820 246q-59 -49 -129.5 -77t-146.5 -28q-77 0 -147 28t-129 77h552z" />
    <glyph glyph-name="six" unicode="6" 
d="M544 57q-139 0 -253 68t-179.5 182.5t-65.5 246.5q0 139 68 253.5t182.5 180.5t247.5 66q139 0 252.5 -69.5t178.5 -184.5t65 -246q0 -117 -47.5 -215t-130 -166t-185.5 -98q-60 -18 -133 -18zM544 1013q-129 0 -233.5 -63t-164 -168.5t-59.5 -227.5t60.5 -228
t165.5 -169t231 -63q124 0 229 61.5t166.5 167.5t61.5 231q0 108 -45 199.5t-122 153.5t-170 88q-54 18 -120 18zM266 861q57 51 128 79t150 28q77 0 147 -28.5t125 -78.5h-550zM930.5 413q-23.5 -67 -68.5 -122h-549l537 540q104 -128 104 -277q0 -74 -23.5 -141zM234 278
q-49 56 -75.5 127t-26.5 149q0 146 92 262h547zM820 246q-59 -49 -129.5 -77t-146.5 -28q-77 0 -147 28t-129 77h552z" />
    <glyph glyph-name="seven" unicode="7" 
d="M544 57q-139 0 -253 68t-179.5 182.5t-65.5 246.5q0 139 68 253.5t182.5 180.5t247.5 66q139 0 252.5 -69.5t178.5 -184.5t65 -246q0 -117 -47.5 -215t-130 -166t-185.5 -98q-60 -18 -133 -18zM544 1013q-129 0 -233.5 -63t-164 -168.5t-59.5 -227.5t60.5 -228
t165.5 -169t231 -63q124 0 229 61.5t166.5 167.5t61.5 231q0 108 -45 199.5t-122 153.5t-170 88q-54 18 -120 18zM266 861q57 51 128 79t150 28q77 0 147 -28.5t125 -78.5h-550zM930.5 413q-23.5 -67 -68.5 -122h-549l537 540q104 -128 104 -277q0 -74 -23.5 -141zM234 278
q-49 56 -75.5 127t-26.5 149q0 146 92 262h547zM820 246q-59 -49 -129.5 -77t-146.5 -28q-77 0 -147 28t-129 77h552z" />
    <glyph glyph-name="eight" unicode="8" 
d="M544 57q-139 0 -253 68t-179.5 182.5t-65.5 246.5q0 139 68 253.5t182.5 180.5t247.5 66q139 0 252.5 -69.5t178.5 -184.5t65 -246q0 -117 -47.5 -215t-130 -166t-185.5 -98q-60 -18 -133 -18zM544 1013q-129 0 -233.5 -63t-164 -168.5t-59.5 -227.5t60.5 -228
t165.5 -169t231 -63q124 0 229 61.5t166.5 167.5t61.5 231q0 108 -45 199.5t-122 153.5t-170 88q-54 18 -120 18zM266 861q57 51 128 79t150 28q77 0 147 -28.5t125 -78.5h-550zM930.5 413q-23.5 -67 -68.5 -122h-549l537 540q104 -128 104 -277q0 -74 -23.5 -141zM234 278
q-49 56 -75.5 127t-26.5 149q0 146 92 262h547zM820 246q-59 -49 -129.5 -77t-146.5 -28q-77 0 -147 28t-129 77h552z" />
    <glyph glyph-name="nine" unicode="9" 
d="M544 57q-139 0 -253 68t-179.5 182.5t-65.5 246.5q0 139 68 253.5t182.5 180.5t247.5 66q139 0 252.5 -69.5t178.5 -184.5t65 -246q0 -117 -47.5 -215t-130 -166t-185.5 -98q-60 -18 -133 -18zM544 1013q-129 0 -233.5 -63t-164 -168.5t-59.5 -227.5t60.5 -228
t165.5 -169t231 -63q124 0 229 61.5t166.5 167.5t61.5 231q0 108 -45 199.5t-122 153.5t-170 88q-54 18 -120 18zM266 861q57 51 128 79t150 28q77 0 147 -28.5t125 -78.5h-550zM930.5 413q-23.5 -67 -68.5 -122h-549l537 540q104 -128 104 -277q0 -74 -23.5 -141zM234 278
q-49 56 -75.5 127t-26.5 149q0 146 92 262h547zM820 246q-59 -49 -129.5 -77t-146.5 -28q-77 0 -147 28t-129 77h552z" />
    <glyph glyph-name="colon" unicode=":" horiz-adv-x="610" 
d="M194 502q-51 30 -81 81t-30 111q0 61 30 111.5t81 80.5t112 30q60 0 111 -30t80.5 -81t29.5 -111t-30 -111t-80.5 -81t-110.5 -30q-61 0 -112 30zM194 -4q-51 30 -81 81t-30 111q0 61 30 111.5t81 80.5t112 30q60 0 111 -30t80.5 -81t29.5 -111t-30 -111t-80.5 -81
t-110.5 -30q-61 0 -112 30z" />
    <glyph glyph-name="semicolon" unicode=";" horiz-adv-x="627" 
d="M119 288q29 51 79 80.5t110 29.5q65 0 119 -35.5t85.5 -97.5t31.5 -136q0 -140 -38.5 -246t-119.5 -192q-14 -14 -36 -14q-20 0 -34 11l-89 69q-12 10 -12 27q0 22 19 44q28 30 47 64t19 54q0 8 -4.5 14t-10.5 6h-17q-49 0 -89.5 28t-64.5 76t-24 106q0 61 29 112z
M194 502q-51 30 -81 81t-30 111q0 61 30 111.5t81 80.5t112 30q60 0 111 -30t80.5 -81t29.5 -111t-30 -111t-80.5 -81t-110.5 -30q-61 0 -112 30z" />
    <glyph glyph-name="less" unicode="&#x3c;" horiz-adv-x="882" 
d="M823.5 678q-12.5 -15 -32.5 -22l-365 -140l365 -141q20 -7 32.5 -22t12.5 -32v-189q0 -24 -11.5 -37t-31.5 -13q-17 0 -38 9l-672 296q-16 7 -26.5 23t-10.5 33v145q0 17 10.5 33t26.5 23l672 296q21 9 38 9q20 0 31.5 -13t11.5 -37v-189q0 -17 -12.5 -32z" />
    <glyph glyph-name="equal" unicode="=" horiz-adv-x="882" 
d="M46 802q0 21 13.5 35t33.5 14h698q20 0 32.5 -13t12.5 -33v-185q0 -20 -13.5 -33t-34.5 -13h-697q-18 0 -31.5 13.5t-13.5 32.5v182zM46 349q0 21 13.5 35t33.5 14h698q20 0 32.5 -13t12.5 -33v-185q0 -20 -13.5 -33t-34.5 -13h-697q-18 0 -31.5 13.5t-13.5 32.5v182z
" />
    <glyph glyph-name="greater" unicode="&#x3e;" horiz-adv-x="882" 
d="M825.5 621q10.5 -16 10.5 -33v-145q0 -17 -10.5 -33t-26.5 -23l-672 -296q-21 -9 -38 -9q-20 0 -31.5 13t-11.5 37v189q0 17 12.5 32t32.5 22l365 141l-365 140q-20 7 -32.5 22t-12.5 32v189q0 24 11.5 37t31.5 13q17 0 38 -9l672 -296q16 -7 26.5 -23z" />
    <glyph glyph-name="question" unicode="?" horiz-adv-x="1039" 
d="M690 523q-2 -17 -17 -28.5t-36 -11.5l-262 -2q-23 0 -40 12.5t-18 30.5l-8 102l-1 18q0 55 22.5 113t60 104t80.5 66q67 31 99.5 55t32.5 56q0 24 -20.5 41t-50.5 17q-26 0 -43.5 -17.5t-17.5 -43.5q0 -21 -17.5 -39t-40.5 -18h-297q-21 0 -37 17.5t-16 37.5
q0 142 61.5 246.5t168.5 159.5t239 55q129 0 236.5 -60.5t169.5 -165t62 -230.5q0 -75 -43 -153.5t-139 -133.5q-57 -32 -90 -75t-33 -80zM400 -5q-51 30 -81 81t-30 111q0 61 30 111.5t81 80.5t112 30q60 0 111 -30t80.5 -81t29.5 -111t-30 -111t-80.5 -81t-110.5 -30
q-61 0 -112 30z" />
    <glyph glyph-name="at" unicode="@" horiz-adv-x="1854" 
d="M1371.5 1207q201.5 -106 319 -295.5t117.5 -428.5q0 -156 -53.5 -269t-150.5 -173t-225 -60q-119 0 -202.5 41.5t-113.5 113.5q-39 -57 -94.5 -87t-126.5 -30q-99 0 -174.5 51.5t-117.5 142.5t-42 208t42 209t118 144t174 52q121 0 197 -87l27 35q8 13 26 13h196
q17 0 26.5 -9t9.5 -26v-394q0 -46 23 -76t53 -30q62 0 98 59t36 172q0 163 -81 289.5t-219.5 196t-305.5 69.5q-165 0 -304.5 -81.5t-221 -220.5t-81.5 -304q0 -173 72.5 -306t203 -207t300.5 -74q73 0 147 19q4 1 10 1q11 0 19.5 -6.5t10.5 -18.5l46 -208q4 -12 -3 -22
t-19 -13q-102 -27 -211 -27q-239 0 -433 108t-306 304t-112 450q0 240 118.5 442.5t320.5 320.5t443 118q242 0 443.5 -106zM971 361q25 25 25 61q0 37 -25 62t-61 25t-61 -25t-25 -62q0 -36 25 -61t61 -25t61 25z" />
    <glyph glyph-name="A" unicode="A" horiz-adv-x="1474" 
d="M1469 39q0 -18 -13 -29t-37 -11h-350q-26 0 -47 15.5t-29 40.5l-43 138h-426l-43 -137q-7 -23 -28 -39.5t-49 -16.5h-350q-24 0 -36.5 11t-12.5 30q0 15 5 26l518 1337q11 27 33.5 42t46.5 15h260q25 0 46.5 -15.5t31.5 -41.5l517 -1338q6 -13 6 -27zM837 555l-101 323
l-100 -323h201z" />
    <glyph glyph-name="B" unicode="B" horiz-adv-x="1306" 
d="M1211 644.5q49 -85.5 49 -191.5q0 -142 -63.5 -243.5t-184 -155.5t-288.5 -54h-578q-20 0 -32 11.5t-12 32.5v1373q0 21 12 32.5t32 11.5h536q161 0 276.5 -52t176.5 -150.5t61 -234.5q0 -77 -32 -143t-89 -105q87 -46 136 -131.5zM735 1046q-22 21 -62 21h-130v-159h130
q40 0 62 21t22 59q0 37 -22 58zM791 422.5q28 27.5 28 76.5q0 46 -27.5 71.5t-77.5 25.5h-171v-201h171q49 0 77 27.5z" />
    <glyph glyph-name="C" unicode="C" horiz-adv-x="1318" 
d="M1042 480q29 0 45 -22l184 -284q6 -9 6 -20q0 -15 -9 -29.5t-25 -25.5q-79 -56 -203 -95t-223 -39q-213 0 -389.5 101.5t-279 276.5t-102.5 385q0 211 102.5 386t279 276.5t389.5 101.5q98 0 224 -41t211 -100q12 -9 19 -22t7 -26q0 -17 -8 -28l-187 -281
q-14 -20 -41 -20q-24 0 -45 15q-35 26 -87.5 44.5t-92.5 18.5q-91 0 -167 -43t-120 -117.5t-44 -163.5t44 -162.5t120 -116.5t167 -43q38 0 88.5 16.5t85.5 40.5q26 17 51 17z" />
    <glyph glyph-name="D" unicode="D" horiz-adv-x="1420" 
d="M102 1399q0 25 18.5 43.5t43.5 18.5h481q213 0 379 -92.5t258 -259t92 -380.5q0 -213 -92 -379t-257.5 -258t-379.5 -92h-481q-25 0 -43.5 18.5t-18.5 42.5v1338zM645 418q83 0 148.5 41.5t102 113t36.5 156.5q0 91 -36.5 164t-101.5 115t-149 41l-102 -1v-630h102z" />
    <glyph glyph-name="E" unicode="E" horiz-adv-x="1277" 
d="M102 1398q0 30 16.5 46.5t45.5 16.5h951q29 0 45.5 -17t16.5 -46v-292q0 -29 -16.5 -46t-45.5 -17h-572v-154h416q32 0 50 -17t18 -47v-199q0 -29 -18 -46t-50 -17h-416v-146h567q40 0 63 -22t23 -59v-275q0 -28 -17 -44.5t-45 -16.5h-970q-29 0 -45.5 16.5t-16.5 44.5
v1337z" />
    <glyph glyph-name="F" unicode="F" horiz-adv-x="1175" 
d="M102 1399q0 29 16.5 45.5t45.5 16.5h908q29 0 45.5 -16.5t16.5 -46.5v-293q0 -29 -16.5 -45.5t-45.5 -16.5h-528v-233h398q29 0 45.5 -16.5t16.5 -45.5v-219q0 -29 -16.5 -45.5t-45.5 -16.5h-398v-406q0 -28 -16.5 -44.5t-45.5 -16.5h-318q-29 0 -45.5 16.5t-16.5 44.5
v1338z" />
    <glyph glyph-name="G" unicode="G" horiz-adv-x="1375" 
d="M848 409q20 3 37 7v204q0 26 17.5 43.5t43.5 17.5h318q25 0 42.5 -18t17.5 -43v-475q0 -18 -9.5 -36t-23.5 -26q-82 -49 -219 -83t-254 -34q-213 0 -390 101.5t-279.5 276.5t-102.5 385t102.5 385t279 276t389.5 101q110 0 235 -39.5t198 -97.5q12 -10 18.5 -23t6.5 -27
q0 -16 -10 -33l-182 -273q-7 -12 -19 -18.5t-25 -6.5q-21 0 -39 15q-32 27 -84.5 45.5t-97.5 18.5q-91 0 -167 -43t-120 -117t-44 -163t44 -163t120 -117t167 -43q10 0 30 3z" />
    <glyph glyph-name="H" unicode="H" horiz-adv-x="1497" 
d="M1383 1448.5q12 -11.5 12 -32.5v-1372q0 -21 -12 -32.5t-32 -11.5h-353q-20 0 -32 12t-12 32v493h-411v-493q0 -20 -12 -32t-32 -12h-353q-20 0 -32 11.5t-12 32.5v1372q0 21 12 32.5t32 11.5h353q20 0 32 -12t12 -32v-495h411v495q0 20 12 32t32 12h353q20 0 32 -11.5z
" />
    <glyph glyph-name="I" unicode="I" horiz-adv-x="644" 
d="M542 44q0 -21 -11.5 -32.5t-32.5 -11.5h-352q-21 0 -32.5 11.5t-11.5 32.5v1373q0 21 11.5 32.5t32.5 11.5h352q21 0 32.5 -11.5t11.5 -32.5v-1373z" />
    <glyph glyph-name="J" unicode="J" horiz-adv-x="1061" 
d="M533 1416q0 45 51 45h337q53 0 53 -45v-960q0 -149 -61 -260t-174.5 -171t-265.5 -60q-247 0 -391 186q-22 26 -22 50q0 21 17 36l224 204q20 18 41 18q25 0 43 -23q16 -20 36 -30.5t52 -10.5q26 0 43 19t17 42v960z" />
    <glyph glyph-name="K" unicode="K" horiz-adv-x="1535" 
d="M1527 33q0 -15 -10.5 -24t-30.5 -9h-416q-37 0 -59 25l-296 473l-172 -211v-243q0 -21 -12 -32.5t-32 -11.5h-353q-20 0 -32 11.5t-12 32.5v1373q0 21 12 32.5t32 11.5h353q20 0 32 -11.5t12 -32.5v-526l377 528q18 25 37 33t53 8h404q20 0 30.5 -10t10.5 -26
q0 -20 -16 -40l-433 -530l506 -780q15 -22 15 -41z" />
    <glyph glyph-name="L" unicode="L" horiz-adv-x="1146" 
d="M1074.5 406q11.5 -12 11.5 -32v-330q0 -21 -11.5 -32.5t-32.5 -11.5h-896q-20 0 -32 11.5t-12 32.5v1372q0 21 12 32.5t32 11.5h353q20 0 32 -11.5t12 -32.5v-998h499q21 0 32.5 -12z" />
    <glyph glyph-name="M" unicode="M" horiz-adv-x="1896" 
d="M1833 15.5q-17 -15.5 -49 -15.5h-331q-29 0 -43.5 14t-17.5 45l-71 656l-141 -667q-9 -34 -23.5 -47t-43.5 -13h-331q-28 0 -42.5 12.5t-23.5 47.5l-141 665l-71 -654q-3 -31 -18 -45t-44 -14h-330q-32 0 -49.5 15.5t-13.5 46.5l171 1339q8 60 62 60h423q58 0 71 -59
l172 -787l171 787q13 59 72 59h423q54 0 61 -60l171 -1339q4 -31 -13 -46.5z" />
    <glyph glyph-name="N" unicode="N" horiz-adv-x="1552" 
d="M1438.5 1448q11.5 -12 11.5 -32v-1372q0 -21 -12 -32.5t-32 -11.5h-336q-28 0 -50.5 13.5t-38.5 39.5l-438 702v-711q0 -21 -12 -32.5t-32 -11.5h-353q-20 0 -32 11.5t-12 32.5v1372q0 21 12 32.5t32 11.5h365q51 0 87 -54l412 -645v655q0 21 11.5 32.5t32.5 11.5h352
q21 0 32.5 -12z" />
    <glyph glyph-name="O" unicode="O" horiz-adv-x="1618" 
d="M147.5 1113.5q101.5 174.5 276.5 276t385 101.5t385 -101.5t276.5 -276t101.5 -385.5q0 -210 -101.5 -384.5t-276 -276t-385.5 -101.5t-385.5 101.5t-276 276t-101.5 384.5q0 211 101.5 385.5zM529 566.5q43 -73.5 117 -116.5t163 -43t163 43t117 116.5t43 161.5
q0 89 -43 163t-117 117t-163 43t-163 -43t-117 -117t-43 -163q0 -88 43 -161.5z" />
    <glyph glyph-name="P" unicode="P" horiz-adv-x="1235" 
d="M948.5 1397q121.5 -63 189 -180.5t67.5 -274.5q0 -156 -67.5 -272.5t-189 -179.5t-279.5 -63h-126v-366q0 -28 -17.5 -44.5t-47.5 -16.5h-315q-29 0 -45 16t-16 45v1336q0 28 17 45.5t44 17.5h160h157h189q158 0 279.5 -63zM728 851.5q37 37.5 37 92.5t-37 92.5t-90 37.5
h-95v-260h95q53 0 90 37.5z" />
    <glyph glyph-name="Q" unicode="Q" horiz-adv-x="1618" 
d="M1500.5 401q-71.5 -152 -198 -258.5t-288.5 -149.5v-293q0 -28 -15 -43.5t-43 -15.5h-294q-28 0 -43 15.5t-15 43.5v293q-162 43 -288.5 149.5t-198 258.5t-71.5 327q0 211 101.5 385.5t276.5 276t385 101.5t385 -101.5t276.5 -276t101.5 -385.5q0 -175 -71.5 -327z
M972 450q74 43 117 116.5t43 161.5q0 89 -43 163t-117 117t-163 43t-163 -43t-117 -117t-43 -163q0 -88 43 -161.5t117 -116.5t163 -43t163 43z" />
    <glyph glyph-name="R" unicode="R" horiz-adv-x="1321" 
d="M1287 45q0 -19 -13 -32t-33 -13h-359q-26 0 -40 10t-31 42l-199 386h-69v-377q0 -28 -17.5 -44.5t-47.5 -16.5h-315q-29 0 -45 16t-16 45v1338q0 27 17 44.5t44 17.5h82h235h221q158 0 280 -63t190 -180.5t68 -274.5q0 -129 -55.5 -235.5t-155.5 -174.5l253 -463
q6 -12 6 -25zM763 1039q-36 36 -92 36h-128v-280h128q36 0 65.5 21t46 55.5t16.5 73.5q0 58 -36 94z" />
    <glyph glyph-name="S" unicode="S" horiz-adv-x="1261" 
d="M63 140q0 21 12 43l131 270q8 16 22 24.5t32 8.5q13 0 34 -7q115 -41 204 -59t192 -18q35 0 55 15.5t20 37.5t-16.5 37.5t-61.5 32.5t-139 45q-165 49 -260.5 106t-139.5 138.5t-44 205.5q0 150 81 256t209 159.5t266 53.5q140 0 271.5 -47.5t208.5 -94.5q39 -26 39 -55
q0 -18 -14 -46l-131 -277q-13 -28 -43 -28q-25 0 -59 17q-85 41 -159.5 66t-162.5 25q-35 0 -54.5 -15.5t-19.5 -37.5q0 -51 239 -122q151 -44 241.5 -87t148 -125t57.5 -219q0 -145 -72.5 -254t-199 -168t-282.5 -59q-146 0 -311.5 35.5t-266.5 97.5q-27 17 -27 45z" />
    <glyph glyph-name="T" unicode="T" horiz-adv-x="1205" 
d="M47 1398q0 30 16.5 46.5t45.5 16.5h988q28 0 44.5 -17t16.5 -46v-293q0 -29 -16.5 -46t-44.5 -17h-276v-996q0 -29 -16 -45t-46 -16h-316q-29 0 -45.5 16t-16.5 45v996h-272q-29 0 -45.5 16.5t-16.5 46.5v293z" />
    <glyph glyph-name="U" unicode="U" horiz-adv-x="1376" 
d="M511 613q0 -103 38 -160t139 -57t139 57t38 160v800q0 21 13 34t34 13h342q23 0 37 -13t14 -34v-795q0 -318 -158 -485t-459 -167q-314 0 -465.5 164.5t-151.5 486.5v796q0 21 11 34t30 13h355q20 0 32 -13t12 -34v-800z" />
    <glyph glyph-name="V" unicode="V" horiz-adv-x="1454" 
d="M1446 1450q13 -11 13 -29q0 -12 -6 -27l-519 -1338q-10 -27 -32 -42t-47 -15h-260q-26 0 -48 16.5t-31 40.5l-516 1338q-5 11 -5 26q0 18 12.5 29t36.5 11h350q27 0 48 -15.5t29 -41.5l253 -748l259 750q9 26 30 41t46 15h350q24 0 37 -11z" />
    <glyph glyph-name="W" unicode="W" horiz-adv-x="2108" 
d="M2099.5 1450.5q13.5 -10.5 13.5 -29.5q0 -12 -6 -27l-519 -1338q-10 -25 -32 -41t-47 -16h-260q-25 0 -47.5 16t-31.5 41l-109 327l-127 -327q-10 -27 -32 -42t-47 -15h-260q-26 0 -48 16.5t-31 40.5l-516 1338q-5 11 -5 26q0 18 12.5 29t36.5 11h350q27 0 48 -15.5
t29 -41.5l253 -748l259 750q9 26 30 41t46 15h350q24 0 37 -11t13 -29q0 -12 -6 -27l-174 -449l100 -292l257 752q9 25 30 40.5t47 15.5h349q24 0 37.5 -10.5z" />
    <glyph glyph-name="X" unicode="X" horiz-adv-x="1484" 
d="M1476 34q0 -16 -13.5 -25t-38.5 -9h-400q-21 0 -43.5 14.5t-36.5 38.5l-203 358l-201 -358q-14 -24 -37 -38.5t-43 -14.5h-401q-24 0 -37.5 9t-13.5 24t14 37l445 683l-414 636q-15 23 -15 40q0 15 12.5 23.5t34.5 8.5h407q20 0 43 -15.5t36 -39.5l171 -309l170 309
q14 24 37.5 39.5t42.5 15.5h407q22 0 34 -8.5t12 -23.5q0 -18 -14 -39l-394 -636l425 -684q14 -22 14 -36z" />
    <glyph glyph-name="Y" unicode="Y" horiz-adv-x="1392" 
d="M1384 1449.5q13 -10.5 13 -30.5q0 -12 -6 -29l-475 -845v-484q0 -28 -16 -44.5t-45 -16.5h-317q-29 0 -46 16.5t-17 44.5v486l-474 843q-6 17 -6 29q0 20 13.5 30.5t37.5 10.5h371q22 0 43 -16t34 -41l201 -399l203 401q13 26 34 40.5t44 14.5h370q25 0 38 -10.5z" />
    <glyph glyph-name="Z" unicode="Z" horiz-adv-x="1408" 
d="M1331.5 423q15.5 -15 15.5 -41v-327q0 -26 -15.5 -41t-41.5 -15h-1163q-27 0 -42 15.5t-15 40.5v221q0 22 6 41.5t16 31.5l561 673h-518q-27 0 -42 15t-15 42v325q0 26 15 41.5t42 15.5h1114q28 0 43.5 -15.5t15.5 -41.5v-214q0 -40 -19 -58l-577 -694h578q26 0 41.5 -15
z" />
    <glyph glyph-name="bracketleft" unicode="[" horiz-adv-x="638" 
d="M620 -42q14 0 21.5 -8.5t7.5 -22.5v-273q0 -15 -9 -23t-23 -8h-474q-20 0 -30.5 11.5t-10.5 31.5v2038q0 43 41 43h474q14 0 23 -8t9 -23v-273q0 -14 -7.5 -22.5t-21.5 -8.5h-118v-1454h118z" />
    <glyph glyph-name="backslash" unicode="\" horiz-adv-x="1078" 
d="M15 1416q-5 11 -5 22q0 22 30 22h344q42 0 62 -44l617 -1373q5 -13 5 -21q0 -22 -29 -22h-347q-44 0 -62 43z" />
    <glyph glyph-name="bracketright" unicode="]" horiz-adv-x="638" 
d="M536 1704v-2038q0 -20 -10.5 -31.5t-30.5 -11.5h-474q-14 0 -23 8t-9 23v273q0 14 7.5 22.5t21.5 8.5h118v1454h-118q-14 0 -21.5 8.5t-7.5 22.5v273q0 15 9 23t23 8h474q41 0 41 -43z" />
    <glyph glyph-name="asciicircum" unicode="^" 
d="M30 911q0 29 43 76l381 437q20 24 43.5 35.5t45.5 11.5q20 0 45 -13t44 -34l382 -437q42 -48 42 -76q0 -29 -45 -29h-293q-42 0 -81 39l-93 136l-101 -134q-30 -41 -74 -41h-293q-46 0 -46 29z" />
    <glyph glyph-name="underscore" unicode="_" horiz-adv-x="1078" 
d="M-31 -124q0 15 9.5 24t24.5 9h1073q15 0 24 -8.5t9 -22.5v-215q0 -14 -9.5 -22.5t-25.5 -8.5h-1073q-14 0 -23 9t-9 22v213z" />
    <glyph glyph-name="grave" unicode="`" horiz-adv-x="614" 
d="M51 1174q-12 7 -18.5 19t-6.5 25q0 23 15 42l66 83q16 21 38 21q24 0 54 -23l248 -189q21 -17 21 -37q0 -18 -19 -46l-42 -58q-15 -21 -37 -21t-54 21z" />
    <glyph glyph-name="a" unicode="a" horiz-adv-x="1009" 
d="M731 869q105 -42 160.5 -120.5t55.5 -186.5v-517q0 -21 -11 -33t-30 -12l-189 2q-9 0 -17.5 4.5t-13.5 12.5l-39 61q-47 -52 -126 -83t-155 -31q-156 0 -243.5 74.5t-87.5 213.5q0 122 80 183.5t247 62.5l201 1v31q0 27 -27 42.5t-73 15.5q-73 0 -125.5 -8.5t-99.5 -25.5
q-15 -6 -27 -6q-20 0 -31 23l-75 186q-6 15 -6 26q0 25 33 41q68 34 170 59.5t181 25.5q143 0 248 -42zM539 257.5q23 24.5 24 89.5h-79q-40 0 -57 -17t-17 -41q0 -26 16 -41t45 -15q45 0 68 24.5z" />
    <glyph glyph-name="b" unicode="b" horiz-adv-x="1048" 
d="M839 849.5q89 -60.5 138 -168.5t49 -245q0 -136 -49 -243t-138 -167t-204 -60q-80 0 -144.5 33t-108.5 96l-50 -77q-11 -16 -30 -16h-189q-19 0 -30.5 11.5t-11.5 30.5v1376q0 19 11.5 30.5t30.5 11.5h314q17 0 28 -11.5t11 -30.5l-3 -560q73 50 172 50q115 0 204 -60.5z
M627 366.5q29 29.5 29 71.5q0 43 -29 72t-71 29t-71.5 -29t-29.5 -72q0 -42 29.5 -71.5t71.5 -29.5t71 29.5z" />
    <glyph glyph-name="c" unicode="c" horiz-adv-x="842" 
d="M621 380q19 0 33 -20l159 -230q9 -13 9 -27q0 -18 -18 -32q-63 -51 -138.5 -78.5t-158.5 -27.5q-132 0 -243.5 63t-176.5 171.5t-65 236.5q0 129 65 238t176.5 172.5t243.5 63.5q83 0 159.5 -26.5t137.5 -74.5q18 -13 18 -31q0 -12 -9 -26l-157 -240q-11 -20 -31 -20
q-12 0 -27 9q-8 4 -24 14q-20 12 -32.5 18t-28.5 6q-41 0 -64.5 -26.5t-23.5 -74.5q0 -47 23.5 -74t64.5 -27q16 0 29.5 6t30.5 17q16 10 24 14q14 6 24 6z" />
    <glyph glyph-name="d" unicode="d" horiz-adv-x="1048" 
d="M965.5 1450.5q11.5 -11.5 11.5 -30.5v-1376q0 -19 -11.5 -30.5t-30.5 -11.5h-189q-19 0 -30 16l-50 77q-44 -63 -108.5 -96t-144.5 -33q-115 0 -204 60t-138 167t-49 243q0 137 49 245t138 168.5t204 60.5q99 0 172 -50l-3 560q0 19 11 30.5t28 11.5h314q19 0 30.5 -11.5
zM563.5 366.5q29.5 29.5 29.5 71.5q0 43 -29.5 72t-71.5 29t-71 -29t-29 -72q0 -42 29 -71.5t71 -29.5t71.5 29.5z" />
    <glyph glyph-name="e" unicode="e" horiz-adv-x="977" 
d="M928 398.5q-27 -40.5 -85 -44.5h-4h-462q10 -41 48 -66.5t91 -25.5q81 0 135 35q12 8 25 8q18 0 34 -21q28 -43 110 -158q10 -14 10 -28q0 -17 -18 -31q-63 -49 -142 -75.5t-163 -26.5q-132 0 -243.5 63t-176.5 171.5t-65 236.5q0 130 64 238.5t174.5 172t243.5 63.5
q132 0 234.5 -52.5t159.5 -146t57 -210.5q0 -62 -27 -102.5zM422 576.5q-32 -26.5 -43 -66.5h231q-8 41 -39.5 67t-75.5 26q-41 0 -73 -26.5z" />
    <glyph glyph-name="f" unicode="f" horiz-adv-x="749" 
d="M892 1406q0 -6 -4 -18l-111 -277q-9 -23 -28 -23q-7 0 -17 5q-14 8 -33.5 12.5t-38.5 4.5q-57 0 -90 -38t-33 -105v-89h139q18 0 28.5 -10.5t10.5 -28.5v-256q0 -19 -10.5 -29t-28.5 -10h-139v-505q0 -19 -10.5 -29t-28.5 -10h-317q-18 0 -28.5 10t-10.5 29v505h-79
q-18 0 -28 10t-10 29v256q0 18 10 28.5t28 10.5h79v83q0 165 61.5 285t177.5 184t275 64q58 0 116 -15t102 -42q18 -12 18 -31z" />
    <glyph glyph-name="g" unicode="g" horiz-adv-x="971" 
d="M957 863.5q14 -14.5 14 -36.5v-187q0 -24 -14 -38.5t-36 -12.5l-77 8q41 -54 41 -144q0 -98 -52 -179t-146 -128t-213 -47q-67 0 -130 20q-15 -4 -24 -14.5t-9 -22.5q0 -9 12.5 -19.5t29.5 -10.5l212 1q115 0 203 -36.5t136.5 -106t48.5 -162.5q0 -113 -51 -198
t-150 -132t-239 -47q-113 0 -235 19.5t-196 50.5q-13 6 -20.5 17t-7.5 25q0 10 3 19l72 220q4 11 14.5 17t24.5 6q12 0 18 -2q111 -29 166 -37.5t117 -8.5q83 0 111.5 11.5t28.5 30.5q0 32 -60 32h-200q-166 0 -250 76.5t-84 213.5q0 70 31.5 125.5t86.5 95.5
q-62 99 -62 222q0 121 51 213.5t143 144t211 51.5q37 0 83 -9t92 -26h270q22 0 36 -14.5zM539.5 445.5q25.5 25.5 25.5 61.5q0 35 -26 61t-61 26q-36 0 -62 -26t-26 -61t26 -61t62 -26t61.5 25.5z" />
    <glyph glyph-name="h" unicode="h" horiz-adv-x="1052" 
d="M906.5 802q83.5 -108 83.5 -325v-434q0 -41 -41 -41h-312q-41 0 -41 41v437q0 25 -18.5 39.5t-42.5 14.5q-30 0 -50 -20t-20 -59v-416q0 -19 -10 -29t-29 -10h-316q-19 0 -29 10t-10 29v1383q0 19 10 29t29 10h316q19 0 29 -10t10 -29v-566q83 54 182 54
q176 0 259.5 -108z" />
    <glyph glyph-name="i" unicode="i" horiz-adv-x="536" 
d="M155 1058.5q-52 30.5 -82.5 82t-30.5 113.5t30.5 114t82.5 82.5t114 30.5q61 0 113 -31t82.5 -83t30.5 -113t-30.5 -113t-82.5 -82.5t-113 -30.5q-62 0 -114 30.5zM455 867.5q10 -10.5 10 -28.5v-800q0 -19 -10 -29t-29 -10h-316q-19 0 -29 10t-10 29v800q0 18 10 28.5
t29 10.5h316q19 0 29 -10.5z" />
    <glyph glyph-name="j" unicode="j" horiz-adv-x="536" 
d="M155 1058.5q-52 30.5 -82.5 82t-30.5 113.5t30.5 114t82.5 82.5t114 30.5q61 0 113 -31t82.5 -83t30.5 -113t-30.5 -113t-82.5 -82.5t-113 -30.5q-62 0 -114 30.5zM455 867.5q10 -10.5 10 -28.5v-845q0 -229 -126 -343.5t-373 -114.5h-12q-20 0 -30.5 10.5t-10.5 30.5
v261q0 20 10.5 30.5t30.5 10.5h10q54 0 80.5 18.5t26.5 61.5v880q0 18 10 28.5t29 10.5h316q19 0 29 -10.5z" />
    <glyph glyph-name="k" unicode="k" horiz-adv-x="1068" 
d="M1064 31q0 -14 -9.5 -22.5t-25.5 -8.5h-354q-20 0 -32 9t-22 30l-118 226l-38 -43v-183q0 -19 -10 -29t-29 -10h-316q-19 0 -29 10t-10 29v1383q0 19 10 29t29 10h316q19 0 29 -10t10 -29v-782l152 210q14 19 29 23.5t42 4.5h338q20 0 29 -8t9 -21q0 -15 -10 -28
l-268 -308l269 -452q9 -16 9 -30z" />
    <glyph glyph-name="l" unicode="l" horiz-adv-x="536" 
d="M455 1451q10 -10 10 -29v-1383q0 -19 -10 -29t-29 -10h-316q-19 0 -29 10t-10 29v1383q0 19 10 29t29 10h316q19 0 29 -10z" />
    <glyph glyph-name="m" unicode="m" horiz-adv-x="1585" 
d="M1436.5 800.5q86.5 -109.5 86.5 -323.5v-434q0 -20 -10.5 -30.5t-30.5 -10.5h-313q-20 0 -30.5 10.5t-10.5 30.5v437q0 25 -17.5 39.5t-38.5 14.5q-33 0 -57 -17.5t-24 -48.5v-425q0 -41 -41 -41h-312q-41 0 -41 41v437q0 24 -17.5 39t-38.5 15q-31 0 -53 -23.5
t-22 -55.5v-412q0 -20 -10.5 -30.5t-30.5 -10.5h-313q-20 0 -30.5 10.5t-10.5 30.5v794q0 19 11.5 30.5t30.5 11.5h182q13 0 24.5 -6.5t19.5 -18.5l50 -78q53 65 121 99.5t138 34.5q176 0 263 -117q47 56 120.5 86.5t148.5 30.5q170 0 256.5 -109.5z" />
    <glyph glyph-name="n" unicode="n" horiz-adv-x="1053" 
d="M907.5 802q83.5 -108 83.5 -325v-434q0 -41 -41 -41h-312q-41 0 -41 41v437q0 25 -18.5 39.5t-42.5 14.5q-30 0 -50 -20t-20 -59v-412q0 -20 -10.5 -30.5t-30.5 -10.5h-313q-20 0 -30.5 10.5t-10.5 30.5v794q0 19 11.5 30.5t30.5 11.5h182q13 0 24.5 -6.5t19.5 -18.5
l45 -70q53 62 121 94t143 32q176 0 259.5 -108z" />
    <glyph glyph-name="o" unicode="o" horiz-adv-x="1011" 
d="M87 674q65 109 176.5 172.5t243.5 63.5q131 0 242 -64t175.5 -173t64.5 -237t-65 -236t-176 -171.5t-241 -63.5q-132 0 -243.5 63t-176.5 171.5t-65 236.5q0 129 65 238zM433.5 366.5q29.5 -29.5 71.5 -29.5t71 29.5t29 71.5q0 43 -29 72t-71 29t-71.5 -29t-29.5 -72
q0 -42 29.5 -71.5z" />
    <glyph glyph-name="p" unicode="p" horiz-adv-x="1047" 
d="M838 851q89 -60 138 -167t49 -243q0 -137 -49 -245t-138 -168.5t-204 -60.5q-99 0 -172 50l3 -396q0 -19 -10.5 -30.5t-28.5 -11.5h-313q-19 0 -30.5 11.5t-11.5 30.5v1213q0 19 11.5 30.5t30.5 11.5h188q9 0 17 -5t13 -12l50 -77q44 63 108.5 96t144.5 33q115 0 204 -60
zM626 368q29 29 29 71q0 43 -29 72.5t-71 29.5t-71.5 -29.5t-29.5 -72.5q0 -42 29.5 -71t71.5 -29t71 29z" />
    <glyph glyph-name="q" unicode="q" horiz-adv-x="1047" 
d="M964.5 864.5q11.5 -11.5 11.5 -30.5v-1213q0 -19 -11.5 -30.5t-30.5 -11.5h-313q-18 0 -28.5 11.5t-10.5 30.5l3 396q-73 -50 -172 -50q-116 0 -204.5 60.5t-137.5 168.5t-49 245t49 243.5t137.5 166.5t204.5 60q80 0 144.5 -33t108.5 -96l50 77q5 7 12.5 12t16.5 5h189
q19 0 30.5 -11.5zM563.5 368q29.5 29 29.5 71q0 43 -29.5 72.5t-71.5 29.5q-43 0 -72 -29.5t-29 -72.5q0 -42 29 -71t72 -29q42 0 71.5 29z" />
    <glyph glyph-name="r" unicode="r" horiz-adv-x="876" 
d="M877 792q0 -16 -10 -30l-141 -222q-10 -18 -34 -18q-11 0 -15 4l-4 4q-19 19 -47 27.5t-51 8.5q-48 0 -78.5 -31.5t-30.5 -76.5v-415q0 -20 -10.5 -30.5t-30.5 -10.5h-313q-20 0 -30.5 10.5t-10.5 30.5v794q0 19 11.5 30.5t30.5 11.5h182q13 0 24.5 -6.5t19.5 -18.5
l52 -80q51 63 117 99.5t130 36.5q71 0 132.5 -23.5t96.5 -69.5q10 -9 10 -25z" />
    <glyph glyph-name="s" unicode="s" horiz-adv-x="874" 
d="M436 591.5q-9 -7.5 -9 -21.5q0 -23 62 -41q132 -34 205.5 -65t115 -81.5t41.5 -133.5q0 -86 -51 -150t-146.5 -98.5t-226.5 -34.5q-113 0 -221.5 28t-171.5 76q-25 18 -25 43q0 19 13 38l118 183q13 19 42 19q24 0 51 -12q59 -26 113 -41.5t82 -15.5q17 0 25.5 5t8.5 17
q0 15 -18.5 27t-69.5 26q-108 30 -171.5 59t-100.5 80.5t-37 137.5q0 78 43 141.5t130 101t213 37.5q91 0 186 -25.5t158 -70.5q22 -16 32 -27.5t10 -24.5q0 -17 -18 -44l-96 -145q-16 -27 -52 -27q-21 0 -40 8q-45 19 -89.5 29t-79.5 10q-17 0 -26 -7.5z" />
    <glyph glyph-name="t" unicode="t" horiz-adv-x="724" 
d="M13 839q0 18 10.5 28.5t28.5 10.5h79v153q0 35 33 47l314 124q8 4 18 4q14 0 21.5 -10t7.5 -27v-291h140q18 0 28 -10.5t10 -28.5v-256q0 -19 -10 -29t-28 -10h-139v-505q0 -19 -10 -29t-29 -10h-316q-19 0 -29 10t-10 29v505h-80q-18 0 -28.5 10t-10.5 29v256z" />
    <glyph glyph-name="u" unicode="u" horiz-adv-x="1053" 
d="M971.5 865.5q10.5 -10.5 10.5 -30.5v-794q0 -19 -11.5 -30.5t-30.5 -11.5h-182q-13 0 -24.5 6.5t-19.5 18.5l-45 70q-53 -62 -121 -94t-143 -32q-176 0 -259.5 108t-83.5 325v434q0 41 41 41h312q41 0 41 -41v-437q0 -25 18.5 -39.5t42.5 -14.5q30 0 50 20t20 59v412
q0 20 10.5 30.5t30.5 10.5h313q20 0 30.5 -10.5z" />
    <glyph glyph-name="v" unicode="v" horiz-adv-x="975" 
d="M972 868.5q10 -9.5 10 -25.5q0 -12 -5 -22l-313 -783q-7 -17 -25 -27.5t-40 -10.5h-222q-22 0 -40 10.5t-25 27.5l-313 783q-5 10 -5 22q0 16 10 25.5t23 9.5h336q19 0 35 -10.5t20 -27.5l70 -326l70 326q4 17 20 27.5t35 10.5h336q13 0 23 -9.5z" />
    <glyph glyph-name="w" unicode="w" horiz-adv-x="1503" 
d="M1500.5 868.5q9.5 -9.5 9.5 -25.5q0 -9 -5 -22l-313 -783q-7 -17 -25 -27.5t-40 -10.5h-199q-22 0 -40 10.5t-25 27.5l-97 235l-91 -235q-6 -17 -24.5 -27.5t-40.5 -10.5h-223q-22 0 -39.5 10.5t-24.5 27.5l-324 783q-5 13 -5 22q0 16 10 25.5t24 9.5h335q19 0 35 -10.5
t20 -27.5l78 -327l73 327q4 17 20 27.5t35 10.5h325q14 0 23.5 -10t9.5 -25q0 -11 -4 -22l-55 -143l63 -143l100 304q7 18 21 28.5t32 10.5h338q14 0 23.5 -9.5z" />
    <glyph glyph-name="x" unicode="x" horiz-adv-x="1035" 
d="M1031 42q0 -20 -17 -31t-50 -11h-319q-23 0 -42.5 13.5t-29.5 35.5l-55 134l-56 -134q-10 -22 -29.5 -35.5t-42.5 -13.5h-318q-33 0 -50 11t-17 31q0 25 27 62l254 362l-243 342q-17 23 -17 40q0 14 12.5 22t37.5 8h316q21 0 39.5 -12.5t31.5 -34.5l55 -113l54 113
q13 22 31.5 34.5t39.5 12.5h316q25 0 38 -8t13 -22q0 -16 -18 -40l-243 -342l255 -362q27 -36 27 -62z" />
    <glyph glyph-name="y" unicode="y" horiz-adv-x="975" 
d="M972 868.5q10 -9.5 10 -25.5q0 -12 -5 -22l-313 -783l-0.5 -0.5l-0.5 -0.5l-173 -423q-14 -36 -52 -36h-283q-59 0 -59 40q0 14 9 35l181 450l-287 718q-5 10 -5 22q0 16 10 25.5t23 9.5h336q19 0 35 -10.5t20 -27.5l70 -326l70 326q4 17 20 27.5t35 10.5h336
q13 0 23 -9.5z" />
    <glyph glyph-name="z" unicode="z" horiz-adv-x="897" 
d="M836.5 344q12.5 -13 12.5 -31v-268q0 -20 -11.5 -32.5t-30.5 -12.5h-682q-29 0 -51 17.5t-22 44.5v160q0 26 4 39.5t19 32.5l255 226h-218q-17 0 -29.5 13.5t-12.5 30.5v267q0 20 12 33.5t30 13.5h683q21 0 32 -11t11 -31l4 -192q0 -22 -4 -31t-17 -21l-229 -235h215
q17 0 29.5 -13z" />
    <glyph glyph-name="braceleft" unicode="{" horiz-adv-x="793" 
d="M793.5 -73q12.5 -13 10.5 -37l-29 -261q-1 -13 -12.5 -20.5t-29.5 -8.5q-154 -4 -266.5 49t-172.5 158t-60 253q0 87 11 245q8 110 8 143q0 21 -34 42t-94 37q-20 6 -31.5 23t-11.5 42v180q0 25 11.5 42t31.5 23q60 16 94 37t34 42q0 33 -8 143q-11 158 -11 245
q0 148 60 253t172.5 158t266.5 49q18 -1 29.5 -8.5t12.5 -20.5l29 -261q2 -24 -10.5 -37t-36.5 -13q-59 0 -93 -34t-34 -93q0 -46 10 -198q1 -18 6 -100.5t5 -140.5q0 -60 -34.5 -105t-98.5 -71q64 -26 98.5 -71t34.5 -105q0 -58 -5 -140.5t-6 -100.5q-10 -152 -10 -198
q0 -59 34 -93t93 -34q24 0 36.5 -13z" />
    <glyph glyph-name="bar" unicode="|" horiz-adv-x="481" 
d="M102 1416q0 25 17 42.5t42 17.5h160q24 0 41 -17.5t17 -42.5v-1959q0 -24 -17 -41t-41 -17h-160q-25 0 -42 17t-17 41v1959z" />
    <glyph glyph-name="braceright" unicode="}" horiz-adv-x="793" 
d="M699.5 814q11.5 -17 11.5 -42v-180q0 -25 -11.5 -42t-31.5 -23q-60 -16 -94 -37t-34 -42q0 -33 8 -143q11 -158 11 -245q0 -148 -60 -253t-172.5 -158t-266.5 -49q-18 1 -29.5 8.5t-12.5 20.5l-29 261q-2 24 10.5 37t36.5 13q59 0 93 34t34 93q0 46 -10 198
q-1 18 -6 100.5t-5 140.5q0 60 34.5 105t98.5 71q-64 26 -98.5 71t-34.5 105q0 58 5 140.5t6 100.5q10 152 10 198q0 59 -34 93t-93 34q-24 0 -36.5 13t-10.5 37l29 261q1 13 12.5 20.5t29.5 8.5q154 4 266.5 -49t172.5 -158t60 -253q0 -87 -11 -245q-8 -110 -8 -143
q0 -21 34 -42t94 -37q20 -6 31.5 -23z" />
    <glyph glyph-name="asciitilde" unicode="~" horiz-adv-x="888" 
d="M76 511.5q30 70.5 87 110.5t134 40q52 0 91.5 -14.5t81.5 -38.5q25 -13 38.5 -19t26.5 -6t21.5 9.5t8.5 23.5q0 24 17 39.5t43 15.5h156q27 0 44 -15.5t17 -39.5q0 -95 -30.5 -165t-87.5 -107.5t-137 -37.5q-52 0 -88.5 13.5t-81.5 38.5q-26 14 -38.5 20t-25.5 6
t-21.5 -10t-8.5 -24q0 -22 -17.5 -38t-42.5 -16h-157q-26 0 -43 15t-17 39q0 90 30 160.5z" />
    <glyph glyph-name="uni00A0" unicode="&#xa0;" horiz-adv-x="538" 
 />
    <glyph glyph-name="exclamdown" unicode="&#xa1;" horiz-adv-x="610" 
d="M414.5 887q50.5 -30 80.5 -81t30 -111t-29.5 -111t-80.5 -81t-111 -30q-61 0 -112 30t-81 80.5t-30 111.5q0 60 30 111t81 81t112 30q60 0 110.5 -30zM132.5 389.5q11.5 11.5 31.5 11.5h281q20 0 31.5 -11.5t12.5 -31.5l30 -906q1 -20 -10.5 -31.5t-32.5 -11.5h-343
q-21 0 -32.5 11.5t-10.5 31.5l30 906q1 20 12.5 31.5z" />
    <glyph glyph-name="cent" unicode="&#xa2;" horiz-adv-x="842" 
d="M822 103q0 -18 -18 -32q-115 -92 -255 -104l-6 -65q-2 -18 -13 -27.5t-29 -7.5l-75 6q-18 1 -27.5 12.5t-7.5 29.5l5 62q-107 24 -192 90.5t-133.5 162.5t-48.5 206q0 124 60.5 229.5t164.5 170.5t229 73l6 71q2 18 12.5 27t29.5 8l75 -7q19 -1 28.5 -12t7.5 -29l-7 -72
q100 -26 176 -86q18 -13 18 -31q0 -12 -9 -26l-157 -240q-11 -20 -31 -20q-12 0 -27 9q-8 4 -24 14q-20 12 -32.5 18t-28.5 6q-41 0 -64.5 -26.5t-23.5 -74.5q0 -47 23.5 -74t64.5 -27q16 0 29.5 6t30.5 17q16 10 24 14q14 6 24 6q19 0 33 -20l159 -230q9 -13 9 -27z" />
    <glyph glyph-name="sterling" unicode="&#xa3;" horiz-adv-x="1134" 
d="M1032 378.5q21 -20.5 21 -57.5v-242q0 -37 -21 -58t-58 -21h-825q-37 0 -57.5 21t-20.5 58v885q0 164 65 283.5t187 183t290 63.5q83 0 169.5 -29t156.5 -80q28 -20 43 -43t15 -45q0 -18 -11 -35l-122 -188q-28 -46 -74 -46q-32 0 -64 23q-29 20 -59 32t-54 12
q-67 0 -105 -35t-38 -96v-94h316q31 0 48.5 -17.5t17.5 -48.5v-201q0 -31 -18 -48.5t-50 -17.5h-314v-138h504q37 0 58 -20.5z" />
    <glyph glyph-name="currency" unicode="&#xa4;" horiz-adv-x="1070" 
d="M1060 24q0 -17 -15 -32l-64 -63q-15 -16 -32 -16t-33 16l-106 106q-56 -34 -120 -52t-132 -18q-78 0 -149.5 22.5t-131.5 64.5l-123 -123q-15 -16 -33 -16q-17 0 -32 16l-63 63q-16 16 -16 32q0 17 16 33l124 124q-37 55 -57 120t-20 135t20.5 135.5t57.5 122.5l-125 125
q-16 18 -16 33q0 17 16 33l63 62q16 16 33 16t32 -16l124 -124q60 42 131.5 64.5t148.5 22.5q137 0 251 -70l107 107q16 16 33 16t32 -16l63 -62q16 -15 16 -33q0 -17 -16 -33l-100 -100q46 -60 71 -132.5t25 -150.5t-24.5 -148.5t-70.5 -130.5l100 -100q15 -15 15 -33z
M627 366.5q29 29.5 29 71.5q0 43 -29 72t-71 29t-71.5 -29t-29.5 -72q0 -42 29.5 -71.5t71.5 -29.5t71 29.5z" />
    <glyph glyph-name="yen" unicode="&#xa5;" horiz-adv-x="1392" 
d="M1384 1449.5q13 -10.5 13 -30.5q0 -12 -6 -29l-430 -765h145q18 0 27.5 -10t9.5 -29v-75q0 -19 -9.5 -29t-27.5 -10h-190v-103h190q18 0 27.5 -10t9.5 -29v-75q0 -19 -9.5 -29t-27.5 -10h-190v-155q0 -28 -16 -44.5t-45 -16.5h-317q-29 0 -46 16.5t-17 44.5v155h-194
q-18 0 -28.5 10.5t-10.5 28.5v75q0 18 10.5 28.5t28.5 10.5h194v103h-194q-18 0 -28.5 10.5t-10.5 28.5v75q0 18 10.5 28.5t28.5 10.5h150l-430 765q-6 17 -6 29q0 20 13.5 30.5t37.5 10.5h371q22 0 43 -16t34 -41l201 -399l203 401q13 26 34 40.5t44 14.5h370
q25 0 38 -10.5z" />
    <glyph glyph-name="brokenbar" unicode="&#xa6;" horiz-adv-x="481" 
d="M102 1416q0 26 16.5 43t42.5 17h160q25 0 41.5 -17t16.5 -43v-832q0 -26 -16 -42.5t-42 -16.5h-160q-26 0 -42.5 16.5t-16.5 42.5v832zM102 292q0 26 16.5 42.5t42.5 16.5h160q26 0 42 -16.5t16 -42.5v-833q0 -26 -16 -42t-42 -16h-160q-26 0 -42.5 16t-16.5 42v833z" />
    <glyph glyph-name="section" unicode="&#xa7;" horiz-adv-x="1064" 
d="M798 512q40 -37 59.5 -86.5t19.5 -118.5q0 -109 -49 -184.5t-134 -113.5t-193 -38q-110 0 -198.5 26t-151.5 60q-22 12 -22 34q0 13 8 29l102 189q13 23 36 23q9 0 24 -5q56 -22 111 -35.5t91 -13.5q40 0 59 7.5t19 23.5q0 15 -18 28.5t-54 23.5q-138 38 -225.5 78.5
t-133.5 96t-46 132.5q0 168 164 225q-40 37 -59.5 86.5t-19.5 118.5q0 109 49 184.5t134 113.5t193 38q110 0 198.5 -26t151.5 -60q22 -12 22 -34q0 -13 -8 -29l-102 -189q-13 -23 -36 -23q-9 0 -24 5q-56 22 -111 35.5t-91 13.5q-40 0 -59 -7.5t-19 -23.5q0 -15 18 -28.5
t54 -23.5q138 -38 225.5 -78.5t133.5 -96t46 -132.5q0 -168 -164 -225zM643 719.5q-11 12.5 -38 23.5q-22 6 -96 18q-11 2 -29 2q-34 0 -52 -13.5t-18 -33.5q0 -18 11 -30.5t38 -23.5q22 -6 96 -18q11 -2 29 -2q34 0 52 13.5t18 33.5q0 18 -11 30.5z" />
    <glyph glyph-name="dieresis" unicode="&#xa8;" horiz-adv-x="614" 
d="M182 1031.5q-37 21.5 -58.5 58.5t-21.5 81q0 43 21.5 79.5t58.5 58t81 21.5q43 0 80 -21.5t58.5 -58t21.5 -79.5q0 -44 -21.5 -81t-58.5 -58.5t-80 -21.5q-44 0 -81 21.5zM530 1031.5q-37 21.5 -58.5 58.5t-21.5 81q0 43 21.5 79.5t58.5 58t81 21.5q43 0 80 -21.5
t58.5 -58t21.5 -79.5q0 -44 -21.5 -81t-58.5 -58.5t-80 -21.5q-44 0 -81 21.5z" />
    <glyph glyph-name="copyright" unicode="&#xa9;" horiz-adv-x="1855" 
d="M485.5 -350.5q-202.5 118.5 -321 321t-118.5 442.5t118.5 442t321 320.5t442.5 118.5t442.5 -118.5t320.5 -320.5t118 -442t-118 -442.5t-320.5 -321t-442.5 -118.5t-442.5 118.5zM1232 -112.5q139 81.5 220.5 221t81.5 304.5t-81.5 304t-220.5 220.5t-304 81.5
t-304.5 -81.5t-221 -220.5t-81.5 -304t81.5 -304.5t221 -221t304.5 -81.5t304 81.5zM1026 357q19 0 31 -19l149 -216q9 -13 9 -25q0 -16 -17 -30q-59 -48 -130 -74t-149 -26q-124 0 -229 59.5t-166 161t-61 222.5t61.5 223.5t166 162t228.5 59.5q78 0 150 -24.5t129 -70.5
q16 -12 16 -28q0 -12 -8 -25l-147 -226q-13 -19 -29 -19q-13 0 -26 9q-7 4 -12.5 7.5t-9.5 5.5q-17 12 -30 17.5t-28 5.5q-38 0 -60 -25t-22 -70q0 -44 22 -69.5t60 -25.5q16 0 29 6t30 17l20 12q13 5 23 5z" />
    <glyph glyph-name="ordfeminine" unicode="&#xaa;" horiz-adv-x="734" 
d="M678.5 1447.5q8.5 -8.5 8.5 -22.5v-553q0 -14 -8.5 -22t-22.5 -8h-174q-13 0 -21 11l-22 27q-59 -65 -152 -65q-81 0 -142.5 42t-95.5 117.5t-34 171.5t34 171.5t95.5 118.5t142.5 43q92 0 151 -64l23 30q9 11 21 11h174q14 0 22.5 -8.5zM378.5 1114.5
q13.5 13.5 13.5 32.5q0 18 -13.5 32t-32.5 14q-18 0 -32 -14t-14 -32q0 -19 14 -32.5t32 -13.5q19 0 32.5 13.5z" />
    <glyph glyph-name="guillemotleft" unicode="&#xab;" horiz-adv-x="1226" 
d="M630 163q10 -11 10 -28q0 -16 -11 -24l-166 -129q-11 -8 -21 -8q-13 0 -22 11l-386 433q-6 6 -9.5 12.5t-3.5 10.5t3.5 11t9.5 13l386 434q9 10 21 10q11 0 22 -8l166 -129q11 -8 11 -24q0 -17 -10 -27l-246 -279zM1123 163q10 -11 10 -28q0 -16 -11 -24l-166 -129
q-11 -8 -21 -8q-13 0 -22 11l-386 433q-6 6 -9.5 12.5t-3.5 10.5t3.5 11t9.5 13l386 434q9 10 21 10q11 0 22 -8l166 -129q11 -8 11 -24q0 -17 -10 -27l-246 -279z" />
    <glyph glyph-name="logicalnot" unicode="&#xac;" horiz-adv-x="990" 
d="M103 347q-25 0 -41 13.5t-16 35.5v157q0 71 58 71h781q28 0 43.5 -16t15.5 -43v-379q0 -24 -14.5 -40.5t-36.5 -16.5l-157 -2q-28 0 -48 17t-20 41v162h-565z" />
    <glyph glyph-name="uni00AD" unicode="&#xad;" horiz-adv-x="876" 
d="M109 566q0 26 15.5 41.5t34.5 15.5h557q51 0 51 -53v-256q0 -24 -16 -37t-41 -13h-551q-19 0 -34.5 13.5t-15.5 36.5v252z" />
    <glyph glyph-name="registered" unicode="&#xae;" horiz-adv-x="1854" 
d="M1370 1174q202 -118 320 -320t118 -442q0 -241 -118 -443t-320 -320.5t-442 -118.5q-241 0 -443 118.5t-320.5 320.5t-118.5 443q0 240 118.5 442t320.5 320t443 118q240 0 442 -118zM1232 -114.5q139 81.5 220.5 221.5t81.5 305q0 164 -81.5 303.5t-220.5 221t-304 81.5
t-304.5 -81.5t-221 -221t-81.5 -303.5q0 -165 81.5 -305t221 -221.5t304.5 -81.5t304 81.5zM1194.5 782q74.5 -43 117.5 -116.5t43 -161.5q0 -65 -24 -123.5t-67 -102.5l83 -222q4 -12 4 -18q0 -18 -16 -28.5t-45 -10.5h-234q-26 0 -46 14.5t-29 40.5l-48 131h-3h-5v-122
q0 -27 -17.5 -45.5t-42.5 -18.5h-251q-26 0 -44.5 20.5t-18.5 50.5v703q0 22 16 37t39 15h425q89 0 163.5 -43zM989 475.5q9 10.5 9 26.5t-9 27.5t-22 11.5h-42v-76h42q13 0 22 10.5z" />
    <glyph glyph-name="macron" unicode="&#xaf;" horiz-adv-x="614" 
d="M261 1174q0 14 9 23t23 9h389q14 0 22 -8t8 -22v-136q0 -14 -9.5 -22t-22.5 -8h-389q-10 0 -20 8t-10 22v134z" />
    <glyph glyph-name="degree" unicode="&#xb0;" horiz-adv-x="851" 
d="M74.5 1279.5q54.5 93.5 147.5 148.5t203 55t203 -55t147.5 -148.5t54.5 -203.5t-54.5 -202.5t-147.5 -147t-203 -54.5t-203 54.5t-147.5 147t-54.5 202.5t54.5 203.5zM334 985q37 -37 89 -37q53 0 90 37t37 90q0 54 -36.5 90.5t-90.5 36.5q-53 0 -89.5 -37t-36.5 -90
t37 -90z" />
    <glyph glyph-name="plusminus" unicode="&#xb1;" horiz-adv-x="882" 
d="M823.5 823q12.5 -13 12.5 -33v-185q0 -20 -13.5 -33t-34.5 -13h-208v-212q0 -18 -13.5 -31.5t-32.5 -13.5h-183q-20 0 -34 13.5t-14 33.5v210h-212q-18 0 -31.5 13.5t-13.5 32.5v182q0 21 13.5 35t33.5 14h210v211q0 20 13 32.5t33 12.5h185q20 0 33 -13.5t13 -33.5v-209
h211q20 0 32.5 -13zM46 217q0 21 13.5 35t33.5 14h698q20 0 32.5 -13t12.5 -33v-185q0 -20 -13.5 -33t-34.5 -13h-697q-18 0 -31.5 13.5t-13.5 32.5v182z" />
    <glyph glyph-name="uni00B2" unicode="&#xb2;" 
d="M544 57q-139 0 -253 68t-179.5 182.5t-65.5 246.5q0 139 68 253.5t182.5 180.5t247.5 66q139 0 252.5 -69.5t178.5 -184.5t65 -246q0 -117 -47.5 -215t-130 -166t-185.5 -98q-60 -18 -133 -18zM544 1013q-129 0 -233.5 -63t-164 -168.5t-59.5 -227.5t60.5 -228
t165.5 -169t231 -63q124 0 229 61.5t166.5 167.5t61.5 231q0 108 -45 199.5t-122 153.5t-170 88q-54 18 -120 18zM266 861q57 51 128 79t150 28q77 0 147 -28.5t125 -78.5h-550zM930.5 413q-23.5 -67 -68.5 -122h-549l537 540q104 -128 104 -277q0 -74 -23.5 -141zM234 278
q-49 56 -75.5 127t-26.5 149q0 146 92 262h547zM820 246q-59 -49 -129.5 -77t-146.5 -28q-77 0 -147 28t-129 77h552z" />
    <glyph glyph-name="uni00B3" unicode="&#xb3;" 
d="M544 57q-139 0 -253 68t-179.5 182.5t-65.5 246.5q0 139 68 253.5t182.5 180.5t247.5 66q139 0 252.5 -69.5t178.5 -184.5t65 -246q0 -117 -47.5 -215t-130 -166t-185.5 -98q-60 -18 -133 -18zM544 1013q-129 0 -233.5 -63t-164 -168.5t-59.5 -227.5t60.5 -228
t165.5 -169t231 -63q124 0 229 61.5t166.5 167.5t61.5 231q0 108 -45 199.5t-122 153.5t-170 88q-54 18 -120 18zM266 861q57 51 128 79t150 28q77 0 147 -28.5t125 -78.5h-550zM930.5 413q-23.5 -67 -68.5 -122h-549l537 540q104 -128 104 -277q0 -74 -23.5 -141zM234 278
q-49 56 -75.5 127t-26.5 149q0 146 92 262h547zM820 246q-59 -49 -129.5 -77t-146.5 -28q-77 0 -147 28t-129 77h552z" />
    <glyph glyph-name="acute" unicode="&#xb4;" horiz-adv-x="614" 
d="M170 990q-22 0 -37 21l-42 58q-19 28 -19 46q0 20 21 37l248 189q30 23 54 23q21 0 38 -21l66 -83q15 -19 15 -42q0 -13 -6.5 -25t-18.5 -19l-265 -163q-32 -21 -54 -21z" />
    <glyph glyph-name="uni00B5" unicode="&#xb5;" horiz-adv-x="1052" 
d="M990 835v-434q0 -217 -83.5 -325t-259.5 -108q-99 0 -182 54v-566q0 -19 -10 -29t-29 -10h-316q-19 0 -29 10t-10 29v1383q0 19 10 29t29 10h316q19 0 29 -10t10 -29v-416q0 -39 20 -59t50 -20q24 0 42.5 14.5t18.5 39.5v437q0 41 41 41h312q41 0 41 -41z" />
    <glyph glyph-name="paragraph" unicode="&#xb6;" horiz-adv-x="1500" 
d="M1319 1461q66 0 66 -53v-150q0 -26 -19 -42t-50 -16h-122v-1149q0 -50 -46 -50h-177q-46 0 -46 46v1153h-60v-1153q0 -46 -44 -46h-302q-20 0 -32.5 13t-12.5 34v584q-113 4 -208.5 60t-151 149t-55.5 203q0 113 56 209t151 152t207 56h846z" />
    <glyph glyph-name="periodcentered" unicode="&#xb7;" horiz-adv-x="610" 
d="M194 307q-51 30 -81 81t-30 111q0 61 30 111.5t81 80.5t112 30q60 0 111 -30t80.5 -81t29.5 -111t-30 -111t-80.5 -81t-110.5 -30q-61 0 -112 30z" />
    <glyph glyph-name="cedilla" unicode="&#xb8;" horiz-adv-x="614" 
d="M440 19l-14 -110q44 0 68 -30.5t24 -86.5q0 -10 -2 -34l-6 -52q-12 -99 -78.5 -155.5t-170.5 -56.5h-114q-9 0 -13 6.5t-3 18.5l19 151q1 18 21 18h114q12 0 19.5 5t8.5 14l6 51l1 5q0 7 -6 11.5t-16 4.5h-65q-18 0 -16 17l27 223h196z" />
    <glyph glyph-name="uni00B9" unicode="&#xb9;" 
d="M544 57q-139 0 -253 68t-179.5 182.5t-65.5 246.5q0 139 68 253.5t182.5 180.5t247.5 66q139 0 252.5 -69.5t178.5 -184.5t65 -246q0 -117 -47.5 -215t-130 -166t-185.5 -98q-60 -18 -133 -18zM544 1013q-129 0 -233.5 -63t-164 -168.5t-59.5 -227.5t60.5 -228
t165.5 -169t231 -63q124 0 229 61.5t166.5 167.5t61.5 231q0 108 -45 199.5t-122 153.5t-170 88q-54 18 -120 18zM266 861q57 51 128 79t150 28q77 0 147 -28.5t125 -78.5h-550zM930.5 413q-23.5 -67 -68.5 -122h-549l537 540q104 -128 104 -277q0 -74 -23.5 -141zM234 278
q-49 56 -75.5 127t-26.5 149q0 146 92 262h547zM820 246q-59 -49 -129.5 -77t-146.5 -28q-77 0 -147 28t-129 77h552z" />
    <glyph glyph-name="ordmasculine" unicode="&#xba;" horiz-adv-x="711" 
d="M61 1312.5q46 76.5 124.5 121.5t171.5 45q92 0 170 -45t123.5 -121.5t45.5 -166.5q0 -89 -46 -165.5t-124 -121.5t-169 -45q-93 0 -171.5 44.5t-124.5 121t-46 166.5t46 166.5zM324 1115q14 -14 31 -14q19 0 32.5 14t13.5 32t-13.5 32t-32.5 14q-17 0 -31 -14t-14 -32
t14 -32z" />
    <glyph glyph-name="guillemotright" unicode="&#xbb;" horiz-adv-x="1226" 
d="M708.5 452q3.5 -7 3.5 -11t-3.5 -10.5t-9.5 -12.5l-386 -433q-9 -11 -22 -11q-10 0 -21 8l-166 129q-11 8 -11 24q0 17 10 28l246 279l-246 279q-10 10 -10 27q0 16 11 24l166 129q11 8 22 8q12 0 21 -10l386 -434q6 -6 9.5 -13zM1201.5 452q3.5 -7 3.5 -11t-3.5 -10.5
t-9.5 -12.5l-386 -433q-9 -11 -22 -11q-10 0 -21 8l-166 129q-11 8 -11 24q0 17 10 28l246 279l-246 279q-10 10 -10 27q0 16 11 24l166 129q11 8 22 8q12 0 21 -10l386 -434q6 -6 9.5 -13z" />
    <glyph glyph-name="onequarter" unicode="&#xbc;" 
d="M544 57q-139 0 -253 68t-179.5 182.5t-65.5 246.5q0 139 68 253.5t182.5 180.5t247.5 66q139 0 252.5 -69.5t178.5 -184.5t65 -246q0 -117 -47.5 -215t-130 -166t-185.5 -98q-60 -18 -133 -18zM544 1013q-129 0 -233.5 -63t-164 -168.5t-59.5 -227.5t60.5 -228
t165.5 -169t231 -63q124 0 229 61.5t166.5 167.5t61.5 231q0 108 -45 199.5t-122 153.5t-170 88q-54 18 -120 18zM266 861q57 51 128 79t150 28q77 0 147 -28.5t125 -78.5h-550zM930.5 413q-23.5 -67 -68.5 -122h-549l537 540q104 -128 104 -277q0 -74 -23.5 -141zM234 278
q-49 56 -75.5 127t-26.5 149q0 146 92 262h547zM820 246q-59 -49 -129.5 -77t-146.5 -28q-77 0 -147 28t-129 77h552z" />
    <glyph glyph-name="onehalf" unicode="&#xbd;" 
d="M544 57q-139 0 -253 68t-179.5 182.5t-65.5 246.5q0 139 68 253.5t182.5 180.5t247.5 66q139 0 252.5 -69.5t178.5 -184.5t65 -246q0 -117 -47.5 -215t-130 -166t-185.5 -98q-60 -18 -133 -18zM544 1013q-129 0 -233.5 -63t-164 -168.5t-59.5 -227.5t60.5 -228
t165.5 -169t231 -63q124 0 229 61.5t166.5 167.5t61.5 231q0 108 -45 199.5t-122 153.5t-170 88q-54 18 -120 18zM266 861q57 51 128 79t150 28q77 0 147 -28.5t125 -78.5h-550zM930.5 413q-23.5 -67 -68.5 -122h-549l537 540q104 -128 104 -277q0 -74 -23.5 -141zM234 278
q-49 56 -75.5 127t-26.5 149q0 146 92 262h547zM820 246q-59 -49 -129.5 -77t-146.5 -28q-77 0 -147 28t-129 77h552z" />
    <glyph glyph-name="threequarters" unicode="&#xbe;" 
d="M544 57q-139 0 -253 68t-179.5 182.5t-65.5 246.5q0 139 68 253.5t182.5 180.5t247.5 66q139 0 252.5 -69.5t178.5 -184.5t65 -246q0 -117 -47.5 -215t-130 -166t-185.5 -98q-60 -18 -133 -18zM544 1013q-129 0 -233.5 -63t-164 -168.5t-59.5 -227.5t60.5 -228
t165.5 -169t231 -63q124 0 229 61.5t166.5 167.5t61.5 231q0 108 -45 199.5t-122 153.5t-170 88q-54 18 -120 18zM266 861q57 51 128 79t150 28q77 0 147 -28.5t125 -78.5h-550zM930.5 413q-23.5 -67 -68.5 -122h-549l537 540q104 -128 104 -277q0 -74 -23.5 -141zM234 278
q-49 56 -75.5 127t-26.5 149q0 146 92 262h547zM820 246q-59 -49 -129.5 -77t-146.5 -28q-77 0 -147 28t-129 77h552z" />
    <glyph glyph-name="questiondown" unicode="&#xbf;" horiz-adv-x="1039" 
d="M663 908q51 -30 81 -81t30 -111q0 -61 -30 -111.5t-81 -80.5t-112 -30q-60 0 -111 30t-80.5 81t-29.5 111t30 111t80.5 81t110.5 30q61 0 112 -30zM373 380q2 17 17 28.5t36 11.5l262 2q23 0 40 -12.5t18 -30.5l8 -102l1 -18q0 -55 -22.5 -113t-60 -104t-80.5 -66
q-67 -31 -99.5 -55t-32.5 -56q0 -24 20.5 -41t50.5 -17q26 0 43.5 17.5t17.5 43.5q0 21 17.5 39t40.5 18h297q21 0 37 -17.5t16 -37.5q0 -142 -61.5 -246.5t-168.5 -159.5t-239 -55q-129 0 -236.5 60.5t-169.5 165t-62 230.5q0 75 43 153.5t139 133.5q57 32 90 75t33 80z
" />
    <glyph glyph-name="Agrave" unicode="&#xc0;" horiz-adv-x="1474" 
d="M1469 39q0 -18 -13 -29t-37 -11h-350q-26 0 -47 15.5t-29 40.5l-43 138h-426l-43 -137q-7 -23 -28 -39.5t-49 -16.5h-350q-24 0 -36.5 11t-12.5 30q0 15 5 26l518 1337q11 27 33.5 42t46.5 15h260q25 0 46.5 -15.5t31.5 -41.5l517 -1338q6 -13 6 -27zM837 555l-101 323
l-100 -323h201zM492 1672q-17 6 -25 19t-8 30q0 19 8 34l50 93q14 28 43 28q22 0 48 -14l277 -143q28 -15 28 -41q0 -18 -11 -40l-32 -64q-13 -28 -41 -28q-17 0 -48 12z" />
    <glyph glyph-name="Aacute" unicode="&#xc1;" horiz-adv-x="1474" 
d="M1469 39q0 -18 -13 -29t-37 -11h-350q-26 0 -47 15.5t-29 40.5l-43 138h-426l-43 -137q-7 -23 -28 -39.5t-49 -16.5h-350q-24 0 -36.5 11t-12.5 30q0 15 5 26l518 1337q11 27 33.5 42t46.5 15h260q25 0 46.5 -15.5t31.5 -41.5l517 -1338q6 -13 6 -27zM837 555l-101 323
l-100 -323h201zM647 1546q-28 0 -41 28l-32 64q-11 22 -11 40q0 26 28 41l277 143q26 14 48 14q29 0 43 -28l50 -93q8 -15 8 -34q0 -17 -8 -30t-25 -19l-289 -114q-31 -12 -48 -12z" />
    <glyph glyph-name="Acircumflex" unicode="&#xc2;" horiz-adv-x="1474" 
d="M1469 39q0 -18 -13 -29t-37 -11h-350q-26 0 -47 15.5t-29 40.5l-43 138h-426l-43 -137q-7 -23 -28 -39.5t-49 -16.5h-350q-24 0 -36.5 11t-12.5 30q0 15 5 26l518 1337q11 27 33.5 42t46.5 15h260q25 0 46.5 -15.5t31.5 -41.5l517 -1338q6 -13 6 -27zM837 555l-101 323
l-100 -323h201zM705 1839q18 12 29 12q15 0 30 -12l228 -166q19 -14 19 -33q0 -10 -8 -23l-48 -63q-13 -16 -35 -16q-19 0 -37 11l-148 94l-147 -94q-19 -12 -38 -12q-20 0 -33 17l-49 65q-11 15 -11 27q0 9 5.5 15t12 10.5t9.5 6.5z" />
    <glyph glyph-name="Atilde" unicode="&#xc3;" horiz-adv-x="1474" 
d="M1469 39q0 -18 -13 -29t-37 -11h-350q-26 0 -47 15.5t-29 40.5l-43 138h-426l-43 -137q-7 -23 -28 -39.5t-49 -16.5h-350q-24 0 -36.5 11t-12.5 30q0 15 5 26l518 1337q11 27 33.5 42t46.5 15h260q25 0 46.5 -15.5t31.5 -41.5l517 -1338q6 -13 6 -27zM837 555l-101 323
l-100 -323h201zM494 1632q0 18 19 45q30 39 64 57.5t78 18.5q19 0 43.5 -10.5t62.5 -33.5q34 -19 51 -19q21 0 39 27q16 21 32 21q14 0 29 -17l57 -61q11 -11 11 -24q0 -9 -7 -19q-32 -52 -70.5 -76.5t-89.5 -24.5q-33 0 -101 40q-31 21 -56 21q-23 0 -49 -35
q-8 -11 -18 -11q-15 0 -39 24l-39 42q-17 17 -17 35z" />
    <glyph glyph-name="Adieresis" unicode="&#xc4;" horiz-adv-x="1474" 
d="M1469 39q0 -18 -13 -29t-37 -11h-350q-26 0 -47 15.5t-29 40.5l-43 138h-426l-43 -137q-7 -23 -28 -39.5t-49 -16.5h-350q-24 0 -36.5 11t-12.5 30q0 15 5 26l518 1337q11 27 33.5 42t46.5 15h260q25 0 46.5 -15.5t31.5 -41.5l517 -1338q6 -13 6 -27zM837 555l-101 323
l-100 -323h201zM499.5 1586.5q-29.5 17.5 -46.5 47t-17 64.5q0 34 17 63.5t46.5 46.5t64.5 17t64.5 -17t46.5 -46.5t17 -63.5q0 -35 -17 -64.5t-46.5 -47t-64.5 -17.5t-64.5 17.5zM845.5 1586.5q-29.5 17.5 -46.5 47t-17 64.5q0 34 17 63.5t46.5 46.5t64.5 17t64.5 -17
t46.5 -46.5t17 -63.5q0 -35 -17 -64.5t-46.5 -47t-64.5 -17.5t-64.5 17.5z" />
    <glyph glyph-name="Aring" unicode="&#xc5;" horiz-adv-x="1474" 
d="M1469 39q0 -18 -13 -29t-37 -11h-350q-26 0 -47 15.5t-29 40.5l-43 138h-426l-43 -137q-7 -23 -28 -39.5t-49 -16.5h-350q-24 0 -36.5 11t-12.5 30q0 15 5 26l518 1337q11 27 33.5 42t46.5 15h260q25 0 46.5 -15.5t31.5 -41.5l517 -1338q6 -13 6 -27zM837 555l-101 323
l-100 -323h201zM848 1942q50 -29 79.5 -78.5t29.5 -109.5t-29.5 -109.5t-79.5 -78t-111 -28.5q-60 0 -109.5 28.5t-78.5 78t-29 109.5t29 109.5t78.5 78.5t109.5 29q61 0 111 -29zM685.5 1806q-21.5 -21 -21.5 -52t21.5 -52.5t52.5 -21.5t53 21.5t22 52.5t-21.5 52t-53.5 21
q-31 0 -52.5 -21z" />
    <glyph glyph-name="AE" unicode="&#xc6;" horiz-adv-x="2202" 
d="M2098 395q23 -22 23 -59v-275q0 -28 -17 -44.5t-45 -16.5h-970q-29 0 -45.5 16.5t-16.5 44.5v153h-386l-106 -159q-19 -27 -38 -41t-44 -14h-396q-24 0 -38 13t-14 33q0 16 11 36l920 1324q22 31 37.5 43t43.5 12h1023q29 0 45.5 -17t16.5 -46v-292q0 -29 -16.5 -46
t-45.5 -17h-572v-154h416q32 0 50 -17t18 -47v-199q0 -29 -18 -46t-50 -17h-416v-146h567q40 0 63 -22zM1027 544v248l-165 -248h165z" />
    <glyph glyph-name="Ccedilla" unicode="&#xc7;" horiz-adv-x="1318" 
d="M1271 174q6 -9 6 -20q0 -15 -9 -29.5t-25 -25.5q-62 -44 -156 -78.5t-184 -48.5l-13 -99q44 0 68 -30.5t24 -86.5q0 -10 -2 -34l-6 -52q-12 -99 -78.5 -155.5t-170.5 -56.5h-114q-9 0 -13 6.5t-3 18.5l19 151q2 18 21 18h114q12 0 19.5 5t8.5 14l6 51l1 5q0 7 -6 11.5
t-16 4.5h-65q-18 0 -16 17l26 212q-187 26 -338 131.5t-237 269t-86 355.5q0 211 102.5 386t279 276.5t389.5 101.5q98 0 224 -41t211 -100q12 -9 19 -22t7 -26q0 -17 -8 -28l-187 -281q-14 -20 -41 -20q-24 0 -45 15q-35 26 -87.5 44.5t-92.5 18.5q-91 0 -167 -43
t-120 -117.5t-44 -163.5t44 -162.5t120 -116.5t167 -43q38 0 88.5 16.5t85.5 40.5q26 17 51 17q29 0 45 -22z" />
    <glyph glyph-name="Egrave" unicode="&#xc8;" horiz-adv-x="1277" 
d="M102 1398q0 30 16.5 46.5t45.5 16.5h951q29 0 45.5 -17t16.5 -46v-292q0 -29 -16.5 -46t-45.5 -17h-572v-154h416q32 0 50 -17t18 -47v-199q0 -29 -18 -46t-50 -17h-416v-146h567q40 0 63 -22t23 -59v-275q0 -28 -17 -44.5t-45 -16.5h-970q-29 0 -45.5 16.5t-16.5 44.5
v1337zM421 1672q-17 6 -25 19t-8 30q0 19 8 34l50 93q14 28 43 28q22 0 48 -14l277 -143q28 -15 28 -41q0 -18 -11 -40l-32 -64q-13 -28 -41 -28q-17 0 -48 12z" />
    <glyph glyph-name="Eacute" unicode="&#xc9;" horiz-adv-x="1277" 
d="M102 1398q0 30 16.5 46.5t45.5 16.5h951q29 0 45.5 -17t16.5 -46v-292q0 -29 -16.5 -46t-45.5 -17h-572v-154h416q32 0 50 -17t18 -47v-199q0 -29 -18 -46t-50 -17h-416v-146h567q40 0 63 -22t23 -59v-275q0 -28 -17 -44.5t-45 -16.5h-970q-29 0 -45.5 16.5t-16.5 44.5
v1337zM576 1546q-28 0 -41 28l-32 64q-11 22 -11 40q0 26 28 41l277 143q26 14 48 14q29 0 43 -28l50 -93q8 -15 8 -34q0 -17 -8 -30t-25 -19l-289 -114q-31 -12 -48 -12z" />
    <glyph glyph-name="Ecircumflex" unicode="&#xca;" horiz-adv-x="1277" 
d="M102 1398q0 30 16.5 46.5t45.5 16.5h951q29 0 45.5 -17t16.5 -46v-292q0 -29 -16.5 -46t-45.5 -17h-572v-154h416q32 0 50 -17t18 -47v-199q0 -29 -18 -46t-50 -17h-416v-146h567q40 0 63 -22t23 -59v-275q0 -28 -17 -44.5t-45 -16.5h-970q-29 0 -45.5 16.5t-16.5 44.5
v1337zM634 1839q18 12 29 12q15 0 30 -12l228 -166q19 -14 19 -33q0 -10 -8 -23l-48 -63q-13 -16 -35 -16q-19 0 -37 11l-148 94l-147 -94q-19 -12 -38 -12q-20 0 -33 17l-49 65q-11 15 -11 27q0 9 5.5 15t12 10.5t9.5 6.5z" />
    <glyph glyph-name="Edieresis" unicode="&#xcb;" horiz-adv-x="1277" 
d="M102 1398q0 30 16.5 46.5t45.5 16.5h951q29 0 45.5 -17t16.5 -46v-292q0 -29 -16.5 -46t-45.5 -17h-572v-154h416q32 0 50 -17t18 -47v-199q0 -29 -18 -46t-50 -17h-416v-146h567q40 0 63 -22t23 -59v-275q0 -28 -17 -44.5t-45 -16.5h-970q-29 0 -45.5 16.5t-16.5 44.5
v1337zM428.5 1586.5q-29.5 17.5 -46.5 47t-17 64.5q0 34 17 63.5t46.5 46.5t64.5 17t64.5 -17t46.5 -46.5t17 -63.5q0 -35 -17 -64.5t-46.5 -47t-64.5 -17.5t-64.5 17.5zM774.5 1586.5q-29.5 17.5 -46.5 47t-17 64.5q0 34 17 63.5t46.5 46.5t64.5 17t64.5 -17t46.5 -46.5
t17 -63.5q0 -35 -17 -64.5t-46.5 -47t-64.5 -17.5t-64.5 17.5z" />
    <glyph glyph-name="Igrave" unicode="&#xcc;" horiz-adv-x="644" 
d="M542 44q0 -21 -11.5 -32.5t-32.5 -11.5h-352q-21 0 -32.5 11.5t-11.5 32.5v1373q0 21 11.5 32.5t32.5 11.5h352q21 0 32.5 -11.5t11.5 -32.5v-1373zM87 1671q-17 6 -25 19t-8 30q0 19 8 34l50 93q14 28 43 28q22 0 48 -14l277 -143q28 -15 28 -41q0 -18 -11 -40l-32 -64
q-13 -28 -41 -28q-17 0 -48 12z" />
    <glyph glyph-name="Iacute" unicode="&#xcd;" horiz-adv-x="644" 
d="M542 44q0 -21 -11.5 -32.5t-32.5 -11.5h-352q-21 0 -32.5 11.5t-11.5 32.5v1373q0 21 11.5 32.5t32.5 11.5h352q21 0 32.5 -11.5t11.5 -32.5v-1373zM242 1545q-28 0 -41 28l-32 64q-11 22 -11 40q0 26 28 41l277 143q26 14 48 14q29 0 43 -28l50 -93q8 -15 8 -34
q0 -17 -8 -30t-25 -19l-289 -114q-31 -12 -48 -12z" />
    <glyph glyph-name="Icircumflex" unicode="&#xce;" horiz-adv-x="644" 
d="M542 44q0 -21 -11.5 -32.5t-32.5 -11.5h-352q-21 0 -32.5 11.5t-11.5 32.5v1373q0 21 11.5 32.5t32.5 11.5h352q21 0 32.5 -11.5t11.5 -32.5v-1373zM300 1838q18 12 29 12q15 0 30 -12l228 -166q19 -14 19 -33q0 -10 -8 -23l-48 -63q-13 -16 -35 -16q-19 0 -37 11
l-148 94l-147 -94q-19 -12 -38 -12q-20 0 -33 17l-49 65q-11 15 -11 27q0 9 5.5 15t12 10.5t9.5 6.5z" />
    <glyph glyph-name="Idieresis" unicode="&#xcf;" horiz-adv-x="644" 
d="M542 44q0 -21 -11.5 -32.5t-32.5 -11.5h-352q-21 0 -32.5 11.5t-11.5 32.5v1373q0 21 11.5 32.5t32.5 11.5h352q21 0 32.5 -11.5t11.5 -32.5v-1373zM94.5 1585.5q-29.5 17.5 -46.5 47t-17 64.5q0 34 17 63.5t46.5 46.5t64.5 17t64.5 -17t46.5 -46.5t17 -63.5
q0 -35 -17 -64.5t-46.5 -47t-64.5 -17.5t-64.5 17.5zM440.5 1585.5q-29.5 17.5 -46.5 47t-17 64.5q0 34 17 63.5t46.5 46.5t64.5 17t64.5 -17t46.5 -46.5t17 -63.5q0 -35 -17 -64.5t-46.5 -47t-64.5 -17.5t-64.5 17.5z" />
    <glyph glyph-name="Eth" unicode="&#xd0;" horiz-adv-x="1420" 
d="M1024 1368.5q166 -92.5 258 -259t92 -380.5q0 -213 -92 -379t-257.5 -258t-379.5 -92h-481q-25 0 -43.5 18.5t-18.5 42.5v594h-69q-18 0 -28.5 10t-10.5 29v75q0 19 10.5 29t28.5 10h69v591q0 25 18.5 43.5t43.5 18.5h481q213 0 379 -92.5zM793.5 459.5
q65.5 41.5 102 113t36.5 156.5q0 91 -36.5 164t-101.5 115t-149 41l-102 -1v-240h178q18 0 28 -10t10 -29v-75q0 -19 -10 -29t-28 -10h-178v-237h102q83 0 148.5 41.5z" />
    <glyph glyph-name="Ntilde" unicode="&#xd1;" horiz-adv-x="1552" 
d="M1438.5 1448q11.5 -12 11.5 -32v-1372q0 -21 -12 -32.5t-32 -11.5h-336q-28 0 -50.5 13.5t-38.5 39.5l-438 702v-711q0 -21 -12 -32.5t-32 -11.5h-353q-20 0 -32 11.5t-12 32.5v1372q0 21 12 32.5t32 11.5h365q51 0 87 -54l412 -645v655q0 21 11.5 32.5t32.5 11.5h352
q21 0 32.5 -12zM548 1634q0 18 19 45q30 39 64 57.5t78 18.5q19 0 43.5 -10.5t62.5 -33.5q34 -19 51 -19q21 0 39 27q16 21 32 21q14 0 29 -17l57 -61q11 -11 11 -24q0 -9 -7 -19q-32 -52 -70.5 -76.5t-89.5 -24.5q-33 0 -101 40q-31 21 -56 21q-23 0 -49 -35
q-8 -11 -18 -11q-15 0 -39 24l-39 42q-17 17 -17 35z" />
    <glyph glyph-name="Ograve" unicode="&#xd2;" horiz-adv-x="1618" 
d="M147.5 1113.5q101.5 174.5 276.5 276t385 101.5t385 -101.5t276.5 -276t101.5 -385.5q0 -210 -101.5 -384.5t-276 -276t-385.5 -101.5t-385.5 101.5t-276 276t-101.5 384.5q0 211 101.5 385.5zM529 566.5q43 -73.5 117 -116.5t163 -43t163 43t117 116.5t43 161.5
q0 89 -43 163t-117 117t-163 43t-163 -43t-117 -117t-43 -163q0 -88 43 -161.5zM563 1702q-17 6 -25 19t-8 30q0 19 8 34l50 93q14 28 43 28q22 0 48 -14l277 -143q28 -15 28 -41q0 -18 -11 -40l-32 -64q-13 -28 -41 -28q-17 0 -48 12z" />
    <glyph glyph-name="Oacute" unicode="&#xd3;" horiz-adv-x="1618" 
d="M147.5 1113.5q101.5 174.5 276.5 276t385 101.5t385 -101.5t276.5 -276t101.5 -385.5q0 -210 -101.5 -384.5t-276 -276t-385.5 -101.5t-385.5 101.5t-276 276t-101.5 384.5q0 211 101.5 385.5zM529 566.5q43 -73.5 117 -116.5t163 -43t163 43t117 116.5t43 161.5
q0 89 -43 163t-117 117t-163 43t-163 -43t-117 -117t-43 -163q0 -88 43 -161.5zM718 1576q-28 0 -41 28l-32 64q-11 22 -11 40q0 26 28 41l277 143q26 14 48 14q29 0 43 -28l50 -93q8 -15 8 -34q0 -17 -8 -30t-25 -19l-289 -114q-31 -12 -48 -12z" />
    <glyph glyph-name="Ocircumflex" unicode="&#xd4;" horiz-adv-x="1618" 
d="M147.5 1113.5q101.5 174.5 276.5 276t385 101.5t385 -101.5t276.5 -276t101.5 -385.5q0 -210 -101.5 -384.5t-276 -276t-385.5 -101.5t-385.5 101.5t-276 276t-101.5 384.5q0 211 101.5 385.5zM529 566.5q43 -73.5 117 -116.5t163 -43t163 43t117 116.5t43 161.5
q0 89 -43 163t-117 117t-163 43t-163 -43t-117 -117t-43 -163q0 -88 43 -161.5zM776 1869q18 12 29 12q15 0 30 -12l228 -166q19 -14 19 -33q0 -10 -8 -23l-48 -63q-13 -16 -35 -16q-19 0 -37 11l-148 94l-147 -94q-19 -12 -38 -12q-20 0 -33 17l-49 65q-11 15 -11 27
q0 9 5.5 15t12 10.5t9.5 6.5z" />
    <glyph glyph-name="Otilde" unicode="&#xd5;" horiz-adv-x="1618" 
d="M147.5 1113.5q101.5 174.5 276.5 276t385 101.5t385 -101.5t276.5 -276t101.5 -385.5q0 -210 -101.5 -384.5t-276 -276t-385.5 -101.5t-385.5 101.5t-276 276t-101.5 384.5q0 211 101.5 385.5zM529 566.5q43 -73.5 117 -116.5t163 -43t163 43t117 116.5t43 161.5
q0 89 -43 163t-117 117t-163 43t-163 -43t-117 -117t-43 -163q0 -88 43 -161.5zM565 1662q0 18 19 45q30 39 64 57.5t78 18.5q19 0 43.5 -10.5t62.5 -33.5q34 -19 51 -19q21 0 39 27q16 21 32 21q14 0 29 -17l57 -61q11 -11 11 -24q0 -9 -7 -19q-32 -52 -70.5 -76.5
t-89.5 -24.5q-33 0 -101 40q-31 21 -56 21q-23 0 -49 -35q-8 -11 -18 -11q-15 0 -39 24l-39 42q-17 17 -17 35z" />
    <glyph glyph-name="Odieresis" unicode="&#xd6;" horiz-adv-x="1618" 
d="M147.5 1113.5q101.5 174.5 276.5 276t385 101.5t385 -101.5t276.5 -276t101.5 -385.5q0 -210 -101.5 -384.5t-276 -276t-385.5 -101.5t-385.5 101.5t-276 276t-101.5 384.5q0 211 101.5 385.5zM529 566.5q43 -73.5 117 -116.5t163 -43t163 43t117 116.5t43 161.5
q0 89 -43 163t-117 117t-163 43t-163 -43t-117 -117t-43 -163q0 -88 43 -161.5zM570.5 1616.5q-29.5 17.5 -46.5 47t-17 64.5q0 34 17 63.5t46.5 46.5t64.5 17t64.5 -17t46.5 -46.5t17 -63.5q0 -35 -17 -64.5t-46.5 -47t-64.5 -17.5t-64.5 17.5zM916.5 1616.5
q-29.5 17.5 -46.5 47t-17 64.5q0 34 17 63.5t46.5 46.5t64.5 17t64.5 -17t46.5 -46.5t17 -63.5q0 -35 -17 -64.5t-46.5 -47t-64.5 -17.5t-64.5 17.5z" />
    <glyph glyph-name="multiply" unicode="&#xd7;" horiz-adv-x="809" 
d="M763 305q0 -19 -14 -33l-131 -131q-14 -14 -32 -14q-19 0 -34 15l-147 147l-150 -150q-13 -13 -32 -13t-33 14l-129 129q-14 14 -14 35q0 20 13 33l149 148l-150 150q-13 15 -13 32q0 19 13 32l129 129q15 15 35 15q19 0 33 -14l148 -148l150 149q14 14 31 14
q18 0 33 -15l131 -130q13 -13 13 -33q0 -19 -14 -33l-148 -148l150 -149q13 -13 13 -31z" />
    <glyph glyph-name="Oslash" unicode="&#xd8;" horiz-adv-x="1618" 
d="M1528 989q44 -124 44 -261q0 -210 -101.5 -384.5t-276 -276t-385.5 -101.5q-136 0 -260 44t-224 125l-89 -89q-12 -12 -27 -12q-14 0 -28 12l-53 54q-13 12 -13 27t13 28l88 88q-81 100 -125.5 224t-44.5 261q0 211 101.5 385.5t276.5 276t385 101.5q137 0 261 -44
t225 -126l89 89q12 12 24 12q14 0 28 -14l53 -53q15 -15 15 -29q0 -12 -12 -24l-89 -89q81 -100 125 -224zM533 560l445 444q-77 47 -169 47q-89 0 -163 -43t-117 -117t-43 -163q0 -93 47 -168zM972 450q74 43 117 116.5t43 161.5q0 90 -46 168l-444 -444q76 -45 167 -45
q89 0 163 43z" />
    <glyph glyph-name="Ugrave" unicode="&#xd9;" horiz-adv-x="1376" 
d="M511 613q0 -103 38 -160t139 -57t139 57t38 160v800q0 21 13 34t34 13h342q23 0 37 -13t14 -34v-795q0 -318 -158 -485t-459 -167q-314 0 -465.5 164.5t-151.5 486.5v796q0 21 11 34t30 13h355q20 0 32 -13t12 -34v-800zM441 1672q-17 6 -25 19t-8 30q0 19 8 34l50 93
q14 28 43 28q22 0 48 -14l277 -143q28 -15 28 -41q0 -18 -11 -40l-32 -64q-13 -28 -41 -28q-17 0 -48 12z" />
    <glyph glyph-name="Uacute" unicode="&#xda;" horiz-adv-x="1376" 
d="M511 613q0 -103 38 -160t139 -57t139 57t38 160v800q0 21 13 34t34 13h342q23 0 37 -13t14 -34v-795q0 -318 -158 -485t-459 -167q-314 0 -465.5 164.5t-151.5 486.5v796q0 21 11 34t30 13h355q20 0 32 -13t12 -34v-800zM596 1546q-28 0 -41 28l-32 64q-11 22 -11 40
q0 26 28 41l277 143q26 14 48 14q29 0 43 -28l50 -93q8 -15 8 -34q0 -17 -8 -30t-25 -19l-289 -114q-31 -12 -48 -12z" />
    <glyph glyph-name="Ucircumflex" unicode="&#xdb;" horiz-adv-x="1376" 
d="M511 613q0 -103 38 -160t139 -57t139 57t38 160v800q0 21 13 34t34 13h342q23 0 37 -13t14 -34v-795q0 -318 -158 -485t-459 -167q-314 0 -465.5 164.5t-151.5 486.5v796q0 21 11 34t30 13h355q20 0 32 -13t12 -34v-800zM654 1839q18 12 29 12q15 0 30 -12l228 -166
q19 -14 19 -33q0 -10 -8 -23l-48 -63q-13 -16 -35 -16q-19 0 -37 11l-148 94l-147 -94q-19 -12 -38 -12q-20 0 -33 17l-49 65q-11 15 -11 27q0 9 5.5 15t12 10.5t9.5 6.5z" />
    <glyph glyph-name="Udieresis" unicode="&#xdc;" horiz-adv-x="1376" 
d="M511 613q0 -103 38 -160t139 -57t139 57t38 160v800q0 21 13 34t34 13h342q23 0 37 -13t14 -34v-795q0 -318 -158 -485t-459 -167q-314 0 -465.5 164.5t-151.5 486.5v796q0 21 11 34t30 13h355q20 0 32 -13t12 -34v-800zM448.5 1586.5q-29.5 17.5 -46.5 47t-17 64.5
q0 34 17 63.5t46.5 46.5t64.5 17t64.5 -17t46.5 -46.5t17 -63.5q0 -35 -17 -64.5t-46.5 -47t-64.5 -17.5t-64.5 17.5zM794.5 1586.5q-29.5 17.5 -46.5 47t-17 64.5q0 34 17 63.5t46.5 46.5t64.5 17t64.5 -17t46.5 -46.5t17 -63.5q0 -35 -17 -64.5t-46.5 -47t-64.5 -17.5
t-64.5 17.5z" />
    <glyph glyph-name="Yacute" unicode="&#xdd;" horiz-adv-x="1392" 
d="M1384 1449.5q13 -10.5 13 -30.5q0 -12 -6 -29l-475 -845v-484q0 -28 -16 -44.5t-45 -16.5h-317q-29 0 -46 16.5t-17 44.5v486l-474 843q-6 17 -6 29q0 20 13.5 30.5t37.5 10.5h371q22 0 43 -16t34 -41l201 -399l203 401q13 26 34 40.5t44 14.5h370q25 0 38 -10.5z
M605 1547q-28 0 -41 28l-32 64q-11 22 -11 40q0 26 28 41l277 143q26 14 48 14q29 0 43 -28l50 -93q8 -15 8 -34q0 -17 -8 -30t-25 -19l-289 -114q-31 -12 -48 -12z" />
    <glyph glyph-name="Thorn" unicode="&#xde;" horiz-adv-x="1254" 
d="M967 1179.5q122 -62.5 189.5 -179t67.5 -273.5t-67.5 -274t-189.5 -180.5t-280 -63.5h-145v-165q0 -21 -11.5 -32.5t-32.5 -11.5h-352q-21 0 -32.5 11.5t-11.5 32.5v1373q0 21 11.5 32.5t32.5 11.5h352q21 0 32.5 -11.5t11.5 -32.5v-175h145q158 0 280 -62.5zM721 612.5
q29 17.5 46 47t17 65.5t-17 65.5t-46 47t-64 17.5h-115v-260h115q35 0 64 17.5z" />
    <glyph glyph-name="germandbls" unicode="&#xdf;" horiz-adv-x="1299" 
d="M1092 309q73 -58 113.5 -143.5t40.5 -183.5q0 -139 -56 -238t-153.5 -149t-221.5 -50q-78 0 -168 24.5t-158 66.5q-19 12 -19 32q0 13 9 27l106 250q4 10 13.5 15t21.5 5t25 -5q31 -12 49.5 -16t65.5 -4q38 0 57.5 14.5t19.5 39.5q0 23 -19 36.5t-54 13.5h-157
q-21 0 -33.5 11.5t-13.5 33.5l-6 229q0 12 10 26l155 199h-254v-498q0 -19 -10 -32t-24 -13h-316q-19 0 -31.5 15t-12.5 35v952q0 134 66 246t179.5 176.5t249.5 64.5q14 0 24 -8.5t10 -22.5v-323q0 -19 -10.5 -30t-24.5 -11q-42 0 -71 -26.5t-29 -65.5v-124h617
q49 0 77 -33.5t28 -80.5q0 -49 -29 -85l-233 -293q94 -19 167 -77zM860 396z" />
    <glyph glyph-name="agrave" unicode="&#xe0;" horiz-adv-x="1009" 
d="M731 869q105 -42 160.5 -120.5t55.5 -186.5v-517q0 -21 -11 -33t-30 -12l-189 2q-9 0 -17.5 4.5t-13.5 12.5l-39 61q-47 -52 -126 -83t-155 -31q-156 0 -243.5 74.5t-87.5 213.5q0 122 80 183.5t247 62.5l201 1v31q0 27 -27 42.5t-73 15.5q-73 0 -125.5 -8.5t-99.5 -25.5
q-15 -6 -27 -6q-20 0 -31 23l-75 186q-6 15 -6 26q0 25 33 41q68 34 170 59.5t181 25.5q143 0 248 -42zM539 257.5q23 24.5 24 89.5h-79q-40 0 -57 -17t-17 -41q0 -26 16 -41t45 -15q45 0 68 24.5zM293 1198q-12 7 -18.5 19t-6.5 25q0 23 15 42l66 83q16 21 38 21
q24 0 54 -23l248 -189q21 -17 21 -37q0 -18 -19 -46l-42 -58q-15 -21 -37 -21t-54 21z" />
    <glyph glyph-name="aacute" unicode="&#xe1;" horiz-adv-x="1009" 
d="M731 869q105 -42 160.5 -120.5t55.5 -186.5v-517q0 -21 -11 -33t-30 -12l-189 2q-9 0 -17.5 4.5t-13.5 12.5l-39 61q-47 -52 -126 -83t-155 -31q-156 0 -243.5 74.5t-87.5 213.5q0 122 80 183.5t247 62.5l201 1v31q0 27 -27 42.5t-73 15.5q-73 0 -125.5 -8.5t-99.5 -25.5
q-15 -6 -27 -6q-20 0 -31 23l-75 186q-6 15 -6 26q0 25 33 41q68 34 170 59.5t181 25.5q143 0 248 -42zM539 257.5q23 24.5 24 89.5h-79q-40 0 -57 -17t-17 -41q0 -26 16 -41t45 -15q45 0 68 24.5zM499 1014q-22 0 -37 21l-42 58q-19 28 -19 46q0 20 21 37l248 189
q30 23 54 23q21 0 38 -21l66 -83q15 -19 15 -42q0 -13 -6.5 -25t-18.5 -19l-265 -163q-32 -21 -54 -21z" />
    <glyph glyph-name="acircumflex" unicode="&#xe2;" horiz-adv-x="1009" 
d="M731 869q105 -42 160.5 -120.5t55.5 -186.5v-517q0 -21 -11 -33t-30 -12l-189 2q-9 0 -17.5 4.5t-13.5 12.5l-39 61q-47 -52 -126 -83t-155 -31q-156 0 -243.5 74.5t-87.5 213.5q0 122 80 183.5t247 62.5l201 1v31q0 27 -27 42.5t-73 15.5q-73 0 -125.5 -8.5t-99.5 -25.5
q-15 -6 -27 -6q-20 0 -31 23l-75 186q-6 15 -6 26q0 25 33 41q68 34 170 59.5t181 25.5q143 0 248 -42zM539 257.5q23 24.5 24 89.5h-79q-40 0 -57 -17t-17 -41q0 -26 16 -41t45 -15q45 0 68 24.5zM493 1364q11 8 17.5 11.5t13.5 3.5q16 0 32 -15l245 -199q20 -18 20 -39
q0 -14 -9 -28l-51 -75q-15 -19 -38 -19q-21 0 -39 13l-159 113l-158 -113q-21 -14 -40 -14q-23 0 -36 20l-52 78q-12 17 -12 32q0 11 6.5 18.5t13.5 13t9 6.5z" />
    <glyph glyph-name="atilde" unicode="&#xe3;" horiz-adv-x="1009" 
d="M731 869q105 -42 160.5 -120.5t55.5 -186.5v-517q0 -21 -11 -33t-30 -12l-189 2q-9 0 -17.5 4.5t-13.5 12.5l-39 61q-47 -52 -126 -83t-155 -31q-156 0 -243.5 74.5t-87.5 213.5q0 122 80 183.5t247 62.5l201 1v31q0 27 -27 42.5t-73 15.5q-73 0 -125.5 -8.5t-99.5 -25.5
q-15 -6 -27 -6q-20 0 -31 23l-75 186q-6 15 -6 26q0 25 33 41q68 34 170 59.5t181 25.5q143 0 248 -42zM539 257.5q23 24.5 24 89.5h-79q-40 0 -57 -17t-17 -41q0 -26 16 -41t45 -15q45 0 68 24.5zM239 1194q0 21 23 50q34 42 74.5 62.5t92.5 20.5q23 0 52 -11.5t73 -36.5
q40 -21 61 -21q12 0 22.5 6.5t23.5 23.5q20 23 37 23q16 0 35 -19l67 -67q13 -13 13 -26q0 -10 -8 -21q-38 -57 -83.5 -84t-105.5 -27q-41 0 -120 44q-36 23 -66 23q-27 0 -57 -39q-8 -11 -22 -11q-19 0 -46 26l-46 46q-20 18 -20 38z" />
    <glyph glyph-name="adieresis" unicode="&#xe4;" horiz-adv-x="1009" 
d="M731 869q105 -42 160.5 -120.5t55.5 -186.5v-517q0 -21 -11 -33t-30 -12l-189 2q-9 0 -17.5 4.5t-13.5 12.5l-39 61q-47 -52 -126 -83t-155 -31q-156 0 -243.5 74.5t-87.5 213.5q0 122 80 183.5t247 62.5l201 1v31q0 27 -27 42.5t-73 15.5q-73 0 -125.5 -8.5t-99.5 -25.5
q-15 -6 -27 -6q-20 0 -31 23l-75 186q-6 15 -6 26q0 25 33 41q68 34 170 59.5t181 25.5q143 0 248 -42zM539 257.5q23 24.5 24 89.5h-79q-40 0 -57 -17t-17 -41q0 -26 16 -41t45 -15q45 0 68 24.5zM269 1055.5q-37 21.5 -58.5 58.5t-21.5 81q0 43 21.5 79.5t58.5 58t81 21.5
q43 0 80 -21.5t58.5 -58t21.5 -79.5q0 -44 -21.5 -81t-58.5 -58.5t-80 -21.5q-44 0 -81 21.5zM617 1055.5q-37 21.5 -58.5 58.5t-21.5 81q0 43 21.5 79.5t58.5 58t81 21.5q43 0 80 -21.5t58.5 -58t21.5 -79.5q0 -44 -21.5 -81t-58.5 -58.5t-80 -21.5q-44 0 -81 21.5z" />
    <glyph glyph-name="aring" unicode="&#xe5;" horiz-adv-x="1009" 
d="M731 869q105 -42 160.5 -120.5t55.5 -186.5v-517q0 -21 -11 -33t-30 -12l-189 2q-9 0 -17.5 4.5t-13.5 12.5l-39 61q-47 -52 -126 -83t-155 -31q-156 0 -243.5 74.5t-87.5 213.5q0 122 80 183.5t247 62.5l201 1v31q0 27 -27 42.5t-73 15.5q-73 0 -125.5 -8.5t-99.5 -25.5
q-15 -6 -27 -6q-20 0 -31 23l-75 186q-6 15 -6 26q0 25 33 41q68 34 170 59.5t181 25.5q143 0 248 -42zM539 257.5q23 24.5 24 89.5h-79q-40 0 -57 -17t-17 -41q0 -26 16 -41t45 -15q45 0 68 24.5zM657.5 1433q60.5 -35 96 -95t35.5 -132t-35.5 -132t-96 -94.5t-133.5 -34.5
q-72 0 -132 34.5t-95 94.5t-35 132t35 132t95 95t132 35q73 0 133.5 -35zM461 1269.5q-26 -25.5 -26 -62.5t26 -63.5t64 -26.5t64 26t26 63q0 38 -26 63.5t-64 25.5t-64 -25.5z" />
    <glyph glyph-name="ae" unicode="&#xe6;" horiz-adv-x="1551" 
d="M1502 398.5q-27 -40.5 -85 -44.5h-4h-462q10 -41 48 -66.5t91 -25.5q81 0 135 35q12 8 25 8q18 0 34 -21q28 -43 110 -158q10 -14 10 -28q0 -17 -18 -31q-63 -49 -142 -75.5t-163 -26.5q-80 0 -153 23.5t-134 67.5q-129 -90 -349 -90q-211 0 -310.5 72.5t-99.5 215.5
q0 98 42 154t120 78.5t196 23.5l160 1v20q0 27 -18.5 42.5t-51.5 15.5q-114 0 -184 -30q-22 -8 -38 -8q-31 0 -42 21l-91 180q-8 16 -8 31q0 36 44 61q61 34 146.5 50.5t172.5 16.5q202 0 324 -82q58 39 127 60t144 21q132 0 234.5 -52.5t159.5 -146t57 -210.5
q0 -62 -27 -102.5zM996 576.5q-32 -26.5 -43 -66.5h231q-8 41 -39.5 67t-75.5 26q-41 0 -73 -26.5zM534 283q19 10 19 27v27h-69q-24 0 -39.5 -10.5t-15.5 -22.5q0 -31 54 -31q32 0 51 10z" />
    <glyph glyph-name="ccedilla" unicode="&#xe7;" horiz-adv-x="842" 
d="M822 103q0 -18 -18 -32q-91 -74 -202 -96l-11 -86q44 0 68 -30.5t24 -86.5q0 -10 -2 -34l-6 -52q-12 -99 -78.5 -155.5t-170.5 -56.5h-114q-9 0 -13 6.5t-3 18.5l19 151q2 18 21 18h114q12 0 19.5 5t8.5 14l6 51l1 5q0 7 -6 11.5t-16 4.5h-65q-18 0 -16 17l24 199
q-109 22 -196.5 88.5t-137.5 163.5t-50 209q0 129 65 238t176.5 172.5t243.5 63.5q83 0 159.5 -26.5t137.5 -74.5q18 -13 18 -31q0 -12 -9 -26l-157 -240q-11 -20 -31 -20q-12 0 -27 9q-8 4 -24 14q-20 12 -32.5 18t-28.5 6q-41 0 -64.5 -26.5t-23.5 -74.5q0 -47 23.5 -74
t64.5 -27q16 0 29.5 6t30.5 17q16 10 24 14q14 6 24 6q19 0 33 -20l159 -230q9 -13 9 -27z" />
    <glyph glyph-name="egrave" unicode="&#xe8;" horiz-adv-x="977" 
d="M928 398.5q-27 -40.5 -85 -44.5h-4h-462q10 -41 48 -66.5t91 -25.5q81 0 135 35q12 8 25 8q18 0 34 -21q28 -43 110 -158q10 -14 10 -28q0 -17 -18 -31q-63 -49 -142 -75.5t-163 -26.5q-132 0 -243.5 63t-176.5 171.5t-65 236.5q0 130 64 238.5t174.5 172t243.5 63.5
q132 0 234.5 -52.5t159.5 -146t57 -210.5q0 -62 -27 -102.5zM422 576.5q-32 -26.5 -43 -66.5h231q-8 41 -39.5 67t-75.5 26q-41 0 -73 -26.5zM275 1189q-12 7 -18.5 19t-6.5 25q0 23 15 42l66 83q16 21 38 21q24 0 54 -23l248 -189q21 -17 21 -37q0 -18 -19 -46l-42 -58
q-15 -21 -37 -21t-54 21z" />
    <glyph glyph-name="eacute" unicode="&#xe9;" horiz-adv-x="977" 
d="M928 398.5q-27 -40.5 -85 -44.5h-4h-462q10 -41 48 -66.5t91 -25.5q81 0 135 35q12 8 25 8q18 0 34 -21q28 -43 110 -158q10 -14 10 -28q0 -17 -18 -31q-63 -49 -142 -75.5t-163 -26.5q-132 0 -243.5 63t-176.5 171.5t-65 236.5q0 130 64 238.5t174.5 172t243.5 63.5
q132 0 234.5 -52.5t159.5 -146t57 -210.5q0 -62 -27 -102.5zM422 576.5q-32 -26.5 -43 -66.5h231q-8 41 -39.5 67t-75.5 26q-41 0 -73 -26.5zM481 1005q-22 0 -37 21l-42 58q-19 28 -19 46q0 20 21 37l248 189q30 23 54 23q21 0 38 -21l66 -83q15 -19 15 -42q0 -13 -6.5 -25
t-18.5 -19l-265 -163q-32 -21 -54 -21z" />
    <glyph glyph-name="ecircumflex" unicode="&#xea;" horiz-adv-x="977" 
d="M928 398.5q-27 -40.5 -85 -44.5h-4h-462q10 -41 48 -66.5t91 -25.5q81 0 135 35q12 8 25 8q18 0 34 -21q28 -43 110 -158q10 -14 10 -28q0 -17 -18 -31q-63 -49 -142 -75.5t-163 -26.5q-132 0 -243.5 63t-176.5 171.5t-65 236.5q0 130 64 238.5t174.5 172t243.5 63.5
q132 0 234.5 -52.5t159.5 -146t57 -210.5q0 -62 -27 -102.5zM422 576.5q-32 -26.5 -43 -66.5h231q-8 41 -39.5 67t-75.5 26q-41 0 -73 -26.5zM475 1355q11 8 17.5 11.5t13.5 3.5q16 0 32 -15l245 -199q20 -18 20 -39q0 -14 -9 -28l-51 -75q-15 -19 -38 -19q-21 0 -39 13
l-159 113l-158 -113q-21 -14 -40 -14q-23 0 -36 20l-52 78q-12 17 -12 32q0 11 6.5 18.5t13.5 13t9 6.5z" />
    <glyph glyph-name="edieresis" unicode="&#xeb;" horiz-adv-x="977" 
d="M928 398.5q-27 -40.5 -85 -44.5h-4h-462q10 -41 48 -66.5t91 -25.5q81 0 135 35q12 8 25 8q18 0 34 -21q28 -43 110 -158q10 -14 10 -28q0 -17 -18 -31q-63 -49 -142 -75.5t-163 -26.5q-132 0 -243.5 63t-176.5 171.5t-65 236.5q0 130 64 238.5t174.5 172t243.5 63.5
q132 0 234.5 -52.5t159.5 -146t57 -210.5q0 -62 -27 -102.5zM422 576.5q-32 -26.5 -43 -66.5h231q-8 41 -39.5 67t-75.5 26q-41 0 -73 -26.5zM251 1046.5q-37 21.5 -58.5 58.5t-21.5 81q0 43 21.5 79.5t58.5 58t81 21.5q43 0 80 -21.5t58.5 -58t21.5 -79.5q0 -44 -21.5 -81
t-58.5 -58.5t-80 -21.5q-44 0 -81 21.5zM599 1046.5q-37 21.5 -58.5 58.5t-21.5 81q0 43 21.5 79.5t58.5 58t81 21.5q43 0 80 -21.5t58.5 -58t21.5 -79.5q0 -44 -21.5 -81t-58.5 -58.5t-80 -21.5q-44 0 -81 21.5z" />
    <glyph glyph-name="igrave" unicode="&#xec;" horiz-adv-x="536" 
d="M455 867.5q10 -10.5 10 -28.5v-800q0 -19 -10 -29t-29 -10h-316q-19 0 -29 10t-10 29v800q0 18 10 28.5t29 10.5h316q19 0 29 -10.5zM36 1174q-12 7 -18.5 19t-6.5 25q0 23 15 42l66 83q16 21 38 21q24 0 54 -23l248 -189q21 -17 21 -37q0 -18 -19 -46l-42 -58
q-15 -21 -37 -21t-54 21z" />
    <glyph glyph-name="iacute" unicode="&#xed;" horiz-adv-x="536" 
d="M455 867.5q10 -10.5 10 -28.5v-800q0 -19 -10 -29t-29 -10h-316q-19 0 -29 10t-10 29v800q0 18 10 28.5t29 10.5h316q19 0 29 -10.5zM242 990q-22 0 -37 21l-42 58q-19 28 -19 46q0 20 21 37l248 189q30 23 54 23q21 0 38 -21l66 -83q15 -19 15 -42q0 -13 -6.5 -25
t-18.5 -19l-265 -163q-32 -21 -54 -21z" />
    <glyph glyph-name="icircumflex" unicode="&#xee;" horiz-adv-x="536" 
d="M455 867.5q10 -10.5 10 -28.5v-800q0 -19 -10 -29t-29 -10h-316q-19 0 -29 10t-10 29v800q0 18 10 28.5t29 10.5h316q19 0 29 -10.5zM236 1340q11 8 17.5 11.5t13.5 3.5q16 0 32 -15l245 -199q20 -18 20 -39q0 -14 -9 -28l-51 -75q-15 -19 -38 -19q-21 0 -39 13l-159 113
l-158 -113q-21 -14 -40 -14q-23 0 -36 20l-52 78q-12 17 -12 32q0 11 6.5 18.5t13.5 13t9 6.5z" />
    <glyph glyph-name="idieresis" unicode="&#xef;" horiz-adv-x="536" 
d="M455 867.5q10 -10.5 10 -28.5v-800q0 -19 -10 -29t-29 -10h-316q-19 0 -29 10t-10 29v800q0 18 10 28.5t29 10.5h316q19 0 29 -10.5zM12 1031.5q-37 21.5 -58.5 58.5t-21.5 81q0 43 21.5 79.5t58.5 58t81 21.5q43 0 80 -21.5t58.5 -58t21.5 -79.5q0 -44 -21.5 -81
t-58.5 -58.5t-80 -21.5q-44 0 -81 21.5zM360 1031.5q-37 21.5 -58.5 58.5t-21.5 81q0 43 21.5 79.5t58.5 58t81 21.5q43 0 80 -21.5t58.5 -58t21.5 -79.5q0 -44 -21.5 -81t-58.5 -58.5t-80 -21.5q-44 0 -81 21.5z" />
    <glyph glyph-name="eth" unicode="&#xf0;" horiz-adv-x="1011" 
d="M921.5 923q67.5 -199 67.5 -487q0 -128 -65 -236t-176 -171.5t-241 -63.5q-132 0 -243.5 63t-176.5 171.5t-65 236.5q0 127 63 234t170.5 171.5t235.5 68.5q-21 46 -58 84l-66 -66q-13 -13 -28 -13t-28 13l-53 53q-13 15 -13 28q0 14 13 27l49 49q-37 16 -64 26
q-21 7 -32.5 24t-11.5 35q0 12 4 19l147 258q6 11 17.5 17t24.5 6q15 0 31 -8q88 -46 163 -99l75 75q13 13 27 13t27 -13l53 -53q14 -14 14 -28t-13 -27l-64 -64q149 -144 216.5 -343zM576 366.5q29 29.5 29 71.5q0 43 -29 72t-71 29t-71.5 -29t-29.5 -72q0 -42 29.5 -71.5
t71.5 -29.5t71 29.5z" />
    <glyph glyph-name="ntilde" unicode="&#xf1;" horiz-adv-x="1053" 
d="M907.5 802q83.5 -108 83.5 -325v-434q0 -41 -41 -41h-312q-41 0 -41 41v437q0 25 -18.5 39.5t-42.5 14.5q-30 0 -50 -20t-20 -59v-412q0 -20 -10.5 -30.5t-30.5 -10.5h-313q-20 0 -30.5 10.5t-10.5 30.5v794q0 19 11.5 30.5t30.5 11.5h182q13 0 24.5 -6.5t19.5 -18.5
l45 -70q53 62 121 94t143 32q176 0 259.5 -108zM222 1170q0 21 23 50q34 42 74.5 62.5t92.5 20.5q23 0 52 -11.5t73 -36.5q40 -21 61 -21q12 0 22.5 6.5t23.5 23.5q20 23 37 23q16 0 35 -19l67 -67q13 -13 13 -26q0 -10 -8 -21q-38 -57 -83.5 -84t-105.5 -27q-41 0 -120 44
q-36 23 -66 23q-27 0 -57 -39q-8 -11 -22 -11q-19 0 -46 26l-46 46q-20 18 -20 38z" />
    <glyph glyph-name="ograve" unicode="&#xf2;" horiz-adv-x="1011" 
d="M87 674q65 109 176.5 172.5t243.5 63.5q131 0 242 -64t175.5 -173t64.5 -237t-65 -236t-176 -171.5t-241 -63.5q-132 0 -243.5 63t-176.5 171.5t-65 236.5q0 129 65 238zM433.5 366.5q29.5 -29.5 71.5 -29.5t71 29.5t29 71.5q0 43 -29 72t-71 29t-71.5 -29t-29.5 -72
q0 -42 29.5 -71.5zM275 1186q-12 7 -18.5 19t-6.5 25q0 23 15 42l66 83q16 21 38 21q24 0 54 -23l248 -189q21 -17 21 -37q0 -18 -19 -46l-42 -58q-15 -21 -37 -21t-54 21z" />
    <glyph glyph-name="oacute" unicode="&#xf3;" horiz-adv-x="1011" 
d="M87 674q65 109 176.5 172.5t243.5 63.5q131 0 242 -64t175.5 -173t64.5 -237t-65 -236t-176 -171.5t-241 -63.5q-132 0 -243.5 63t-176.5 171.5t-65 236.5q0 129 65 238zM433.5 366.5q29.5 -29.5 71.5 -29.5t71 29.5t29 71.5q0 43 -29 72t-71 29t-71.5 -29t-29.5 -72
q0 -42 29.5 -71.5zM481 1002q-22 0 -37 21l-42 58q-19 28 -19 46q0 20 21 37l248 189q30 23 54 23q21 0 38 -21l66 -83q15 -19 15 -42q0 -13 -6.5 -25t-18.5 -19l-265 -163q-32 -21 -54 -21z" />
    <glyph glyph-name="ocircumflex" unicode="&#xf4;" horiz-adv-x="1011" 
d="M87 674q65 109 176.5 172.5t243.5 63.5q131 0 242 -64t175.5 -173t64.5 -237t-65 -236t-176 -171.5t-241 -63.5q-132 0 -243.5 63t-176.5 171.5t-65 236.5q0 129 65 238zM433.5 366.5q29.5 -29.5 71.5 -29.5t71 29.5t29 71.5q0 43 -29 72t-71 29t-71.5 -29t-29.5 -72
q0 -42 29.5 -71.5zM475 1352q11 8 17.5 11.5t13.5 3.5q16 0 32 -15l245 -199q20 -18 20 -39q0 -14 -9 -28l-51 -75q-15 -19 -38 -19q-21 0 -39 13l-159 113l-158 -113q-21 -14 -40 -14q-23 0 -36 20l-52 78q-12 17 -12 32q0 11 6.5 18.5t13.5 13t9 6.5z" />
    <glyph glyph-name="otilde" unicode="&#xf5;" horiz-adv-x="1011" 
d="M87 674q65 109 176.5 172.5t243.5 63.5q131 0 242 -64t175.5 -173t64.5 -237t-65 -236t-176 -171.5t-241 -63.5q-132 0 -243.5 63t-176.5 171.5t-65 236.5q0 129 65 238zM433.5 366.5q29.5 -29.5 71.5 -29.5t71 29.5t29 71.5q0 43 -29 72t-71 29t-71.5 -29t-29.5 -72
q0 -42 29.5 -71.5zM221 1182q0 21 23 50q34 42 74.5 62.5t92.5 20.5q23 0 52 -11.5t73 -36.5q40 -21 61 -21q12 0 22.5 6.5t23.5 23.5q20 23 37 23q16 0 35 -19l67 -67q13 -13 13 -26q0 -10 -8 -21q-38 -57 -83.5 -84t-105.5 -27q-41 0 -120 44q-36 23 -66 23q-27 0 -57 -39
q-8 -11 -22 -11q-19 0 -46 26l-46 46q-20 18 -20 38z" />
    <glyph glyph-name="odieresis" unicode="&#xf6;" horiz-adv-x="1011" 
d="M87 674q65 109 176.5 172.5t243.5 63.5q131 0 242 -64t175.5 -173t64.5 -237t-65 -236t-176 -171.5t-241 -63.5q-132 0 -243.5 63t-176.5 171.5t-65 236.5q0 129 65 238zM433.5 366.5q29.5 -29.5 71.5 -29.5t71 29.5t29 71.5q0 43 -29 72t-71 29t-71.5 -29t-29.5 -72
q0 -42 29.5 -71.5zM251 1043.5q-37 21.5 -58.5 58.5t-21.5 81q0 43 21.5 79.5t58.5 58t81 21.5q43 0 80 -21.5t58.5 -58t21.5 -79.5q0 -44 -21.5 -81t-58.5 -58.5t-80 -21.5q-44 0 -81 21.5zM599 1043.5q-37 21.5 -58.5 58.5t-21.5 81q0 43 21.5 79.5t58.5 58t81 21.5
q43 0 80 -21.5t58.5 -58t21.5 -79.5q0 -44 -21.5 -81t-58.5 -58.5t-80 -21.5q-44 0 -81 21.5z" />
    <glyph glyph-name="divide" unicode="&#xf7;" horiz-adv-x="882" 
d="M365 674.5q-35 20.5 -55 55t-20 74.5q0 41 20 75.5t55 54.5t76 20q40 0 74.5 -20t54.5 -54.5t20 -75.5q0 -40 -20 -74.5t-54.5 -55t-74.5 -20.5q-41 0 -76 20.5zM46 575q0 21 13.5 35t33.5 14h698q20 0 32.5 -13t12.5 -33v-185q0 -20 -13.5 -33t-34.5 -13h-697
q-18 0 -31.5 13.5t-13.5 32.5v182zM365 37.5q-35 20.5 -55 55t-20 74.5q0 41 20 75.5t55 54.5t76 20q40 0 74.5 -20t54.5 -54.5t20 -75.5q0 -40 -20 -74.5t-54.5 -55t-74.5 -20.5q-41 0 -76 20.5z" />
    <glyph glyph-name="oslash" unicode="&#xf8;" horiz-adv-x="1011" 
d="M989 436q0 -128 -65 -236t-176 -171.5t-241 -63.5q-88 0 -169 29t-145 82l-49 -41q-13 -10 -26 -10q-15 0 -29 15l-49 57q-10 13 -10 26q0 17 15 29l47 39q-70 115 -70 245q0 129 65 238t176.5 172.5t243.5 63.5q86 0 165.5 -28.5t142.5 -80.5l48 40q11 10 25 10
q16 0 29 -16l48 -57q11 -14 11 -27q0 -15 -15 -27l-45 -38q73 -114 73 -250zM576 366.5q29 29.5 29 71.5q0 43 -29 72t-71 29t-71.5 -29t-29.5 -72q0 -42 29.5 -71.5t71.5 -29.5t71 29.5z" />
    <glyph glyph-name="ugrave" unicode="&#xf9;" horiz-adv-x="1053" 
d="M971.5 865.5q10.5 -10.5 10.5 -30.5v-794q0 -19 -11.5 -30.5t-30.5 -11.5h-182q-13 0 -24.5 6.5t-19.5 18.5l-45 70q-53 -62 -121 -94t-143 -32q-176 0 -259.5 108t-83.5 325v434q0 41 41 41h312q41 0 41 -41v-437q0 -25 18.5 -39.5t42.5 -14.5q30 0 50 20t20 59v412
q0 20 10.5 30.5t30.5 10.5h313q20 0 30.5 -10.5zM284 1174q-12 7 -18.5 19t-6.5 25q0 23 15 42l66 83q16 21 38 21q24 0 54 -23l248 -189q21 -17 21 -37q0 -18 -19 -46l-42 -58q-15 -21 -37 -21t-54 21z" />
    <glyph glyph-name="uacute" unicode="&#xfa;" horiz-adv-x="1053" 
d="M971.5 865.5q10.5 -10.5 10.5 -30.5v-794q0 -19 -11.5 -30.5t-30.5 -11.5h-182q-13 0 -24.5 6.5t-19.5 18.5l-45 70q-53 -62 -121 -94t-143 -32q-176 0 -259.5 108t-83.5 325v434q0 41 41 41h312q41 0 41 -41v-437q0 -25 18.5 -39.5t42.5 -14.5q30 0 50 20t20 59v412
q0 20 10.5 30.5t30.5 10.5h313q20 0 30.5 -10.5zM490 990q-22 0 -37 21l-42 58q-19 28 -19 46q0 20 21 37l248 189q30 23 54 23q21 0 38 -21l66 -83q15 -19 15 -42q0 -13 -6.5 -25t-18.5 -19l-265 -163q-32 -21 -54 -21z" />
    <glyph glyph-name="ucircumflex" unicode="&#xfb;" horiz-adv-x="1053" 
d="M971.5 865.5q10.5 -10.5 10.5 -30.5v-794q0 -19 -11.5 -30.5t-30.5 -11.5h-182q-13 0 -24.5 6.5t-19.5 18.5l-45 70q-53 -62 -121 -94t-143 -32q-176 0 -259.5 108t-83.5 325v434q0 41 41 41h312q41 0 41 -41v-437q0 -25 18.5 -39.5t42.5 -14.5q30 0 50 20t20 59v412
q0 20 10.5 30.5t30.5 10.5h313q20 0 30.5 -10.5zM484 1340q11 8 17.5 11.5t13.5 3.5q16 0 32 -15l245 -199q20 -18 20 -39q0 -14 -9 -28l-51 -75q-15 -19 -38 -19q-21 0 -39 13l-159 113l-158 -113q-21 -14 -40 -14q-23 0 -36 20l-52 78q-12 17 -12 32q0 11 6.5 18.5
t13.5 13t9 6.5z" />
    <glyph glyph-name="udieresis" unicode="&#xfc;" horiz-adv-x="1053" 
d="M971.5 865.5q10.5 -10.5 10.5 -30.5v-794q0 -19 -11.5 -30.5t-30.5 -11.5h-182q-13 0 -24.5 6.5t-19.5 18.5l-45 70q-53 -62 -121 -94t-143 -32q-176 0 -259.5 108t-83.5 325v434q0 41 41 41h312q41 0 41 -41v-437q0 -25 18.5 -39.5t42.5 -14.5q30 0 50 20t20 59v412
q0 20 10.5 30.5t30.5 10.5h313q20 0 30.5 -10.5zM260 1031.5q-37 21.5 -58.5 58.5t-21.5 81q0 43 21.5 79.5t58.5 58t81 21.5q43 0 80 -21.5t58.5 -58t21.5 -79.5q0 -44 -21.5 -81t-58.5 -58.5t-80 -21.5q-44 0 -81 21.5zM608 1031.5q-37 21.5 -58.5 58.5t-21.5 81
q0 43 21.5 79.5t58.5 58t81 21.5q43 0 80 -21.5t58.5 -58t21.5 -79.5q0 -44 -21.5 -81t-58.5 -58.5t-80 -21.5q-44 0 -81 21.5z" />
    <glyph glyph-name="yacute" unicode="&#xfd;" horiz-adv-x="975" 
d="M972 868.5q10 -9.5 10 -25.5q0 -12 -5 -22l-313 -783l-0.5 -0.5l-0.5 -0.5l-173 -423q-14 -36 -52 -36h-283q-59 0 -59 40q0 14 9 35l181 450l-287 718q-5 10 -5 22q0 16 10 25.5t23 9.5h336q19 0 35 -10.5t20 -27.5l70 -326l70 326q4 17 20 27.5t35 10.5h336
q13 0 23 -9.5zM464 990q-22 0 -37 21l-42 58q-19 28 -19 46q0 20 21 37l248 189q30 23 54 23q21 0 38 -21l66 -83q15 -19 15 -42q0 -13 -6.5 -25t-18.5 -19l-265 -163q-32 -21 -54 -21z" />
    <glyph glyph-name="thorn" unicode="&#xfe;" horiz-adv-x="1047" 
d="M838 851q89 -60 138 -167t49 -243q0 -137 -49 -245t-138 -168.5t-204 -60.5q-100 0 -175 52v-402q0 -19 -11 -30.5t-28 -11.5h-307q-19 0 -30.5 11t-11.5 31v1802q0 20 11.5 31t30.5 11h307q17 0 28 -11.5t11 -30.5v-559q76 51 175 51q115 0 204 -60zM625.5 365.5
q29.5 29.5 29.5 72.5t-29 72t-71 29t-71.5 -29t-29.5 -72t29 -72.5t70 -29.5q43 0 72.5 29.5z" />
    <glyph glyph-name="ydieresis" unicode="&#xff;" horiz-adv-x="975" 
d="M972 868.5q10 -9.5 10 -25.5q0 -12 -5 -22l-313 -783l-0.5 -0.5l-0.5 -0.5l-173 -423q-14 -36 -52 -36h-283q-59 0 -59 40q0 14 9 35l181 450l-287 718q-5 10 -5 22q0 16 10 25.5t23 9.5h336q19 0 35 -10.5t20 -27.5l70 -326l70 326q4 17 20 27.5t35 10.5h336
q13 0 23 -9.5zM234 1031.5q-37 21.5 -58.5 58.5t-21.5 81q0 43 21.5 79.5t58.5 58t81 21.5q43 0 80 -21.5t58.5 -58t21.5 -79.5q0 -44 -21.5 -81t-58.5 -58.5t-80 -21.5q-44 0 -81 21.5zM582 1031.5q-37 21.5 -58.5 58.5t-21.5 81q0 43 21.5 79.5t58.5 58t81 21.5
q43 0 80 -21.5t58.5 -58t21.5 -79.5q0 -44 -21.5 -81t-58.5 -58.5t-80 -21.5q-44 0 -81 21.5z" />
    <glyph glyph-name="Amacron" unicode="&#x100;" horiz-adv-x="1474" 
d="M1469 39q0 -18 -13 -29t-37 -11h-350q-26 0 -47 15.5t-29 40.5l-43 138h-426l-43 -137q-7 -23 -28 -39.5t-49 -16.5h-350q-24 0 -36.5 11t-12.5 30q0 15 5 26l518 1337q11 27 33.5 42t46.5 15h260q25 0 46.5 -15.5t31.5 -41.5l517 -1338q6 -13 6 -27zM837 555l-101 323
l-100 -323h201zM511 1719q0 14 9 23t23 9h389q14 0 22 -8t8 -22v-136q0 -14 -9.5 -22t-22.5 -8h-389q-10 0 -20 8t-10 22v134z" />
    <glyph glyph-name="amacron" unicode="&#x101;" horiz-adv-x="1009" 
d="M731 869q105 -42 160.5 -120.5t55.5 -186.5v-517q0 -21 -11 -33t-30 -12l-189 2q-9 0 -17.5 4.5t-13.5 12.5l-39 61q-47 -52 -126 -83t-155 -31q-156 0 -243.5 74.5t-87.5 213.5q0 122 80 183.5t247 62.5l201 1v31q0 27 -27 42.5t-73 15.5q-73 0 -125.5 -8.5t-99.5 -25.5
q-15 -6 -27 -6q-20 0 -31 23l-75 186q-6 15 -6 26q0 25 33 41q68 34 170 59.5t181 25.5q143 0 248 -42zM539 257.5q23 24.5 24 89.5h-79q-40 0 -57 -17t-17 -41q0 -26 16 -41t45 -15q45 0 68 24.5zM299 1198q0 14 9 23t23 9h389q14 0 22 -8t8 -22v-136q0 -14 -9.5 -22
t-22.5 -8h-389q-10 0 -20 8t-10 22v134z" />
    <glyph glyph-name="Abreve" unicode="&#x102;" horiz-adv-x="1474" 
d="M1469 39q0 -18 -13 -29t-37 -11h-350q-26 0 -47 15.5t-29 40.5l-43 138h-426l-43 -137q-7 -23 -28 -39.5t-49 -16.5h-350q-24 0 -36.5 11t-12.5 30q0 15 5 26l518 1337q11 27 33.5 42t46.5 15h260q25 0 46.5 -15.5t31.5 -41.5l517 -1338q6 -13 6 -27zM837 555l-101 323
l-100 -323h201zM558 1595q-66 60 -66 165q0 22 12.5 35t34.5 13h80q26 0 41 -14.5t15 -40.5q0 -23 17.5 -36t48.5 -13q30 0 46.5 13t16.5 36q0 26 14 40.5t39 14.5h80q23 0 36 -12.5t13 -35.5q0 -105 -66 -165t-181 -60t-181 60z" />
    <glyph glyph-name="abreve" unicode="&#x103;" horiz-adv-x="1009" 
d="M731 869q105 -42 160.5 -120.5t55.5 -186.5v-517q0 -21 -11 -33t-30 -12l-189 2q-9 0 -17.5 4.5t-13.5 12.5l-39 61q-47 -52 -126 -83t-155 -31q-156 0 -243.5 74.5t-87.5 213.5q0 122 80 183.5t247 62.5l201 1v31q0 27 -27 42.5t-73 15.5q-73 0 -125.5 -8.5t-99.5 -25.5
q-15 -6 -27 -6q-20 0 -31 23l-75 186q-6 15 -6 26q0 25 33 41q68 34 170 59.5t181 25.5q143 0 248 -42zM539 257.5q23 24.5 24 89.5h-79q-40 0 -57 -17t-17 -41q0 -26 16 -41t45 -15q45 0 68 24.5zM368 1064q-66 32 -101.5 92.5t-35.5 142.5q0 27 15 42t41 15h95
q31 0 48.5 -17.5t17.5 -47.5q0 -27 21 -43t58 -16q35 0 54.5 16t19.5 43q0 30 17 47.5t46 17.5h95q28 0 43 -15t15 -42q0 -125 -78 -196t-215 -71q-90 0 -156 32z" />
    <glyph glyph-name="Aogonek" unicode="&#x104;" horiz-adv-x="1474" 
d="M1569 -461.5q-8 -10.5 -25 -14.5q-71 -17 -157 -17q-141 0 -221.5 69t-80.5 189q0 71 27.5 132t76.5 102h-120q-26 0 -47 15.5t-29 40.5l-43 138h-426l-43 -137q-7 -23 -28 -39.5t-49 -16.5h-350q-24 0 -36.5 11t-12.5 30q0 15 5 26l518 1337q11 27 33.5 42t46.5 15h260
q25 0 46.5 -15.5t31.5 -41.5l517 -1338q5 -11 5 -26q0 -19 -12 -30h2q-81 -49 -126.5 -107.5t-45.5 -114.5q0 -38 31 -59.5t86 -21.5q44 0 112 14q3 1 9 1q27 0 32 -30l18 -128q3 -15 -5 -25.5zM837 555l-101 323l-100 -323h201z" />
    <glyph glyph-name="aogonek" unicode="&#x105;" horiz-adv-x="1009" 
d="M1017 -471.5q-8 -10.5 -25 -14.5q-71 -17 -157 -17q-141 0 -221.5 69t-80.5 189q0 78 33 144.5t91 104.5q23 14 28 16l-38 60q-47 -52 -126 -83t-155 -31q-156 0 -243.5 74.5t-87.5 213.5q0 122 80 183.5t247 62.5l201 1v31q0 27 -27 42.5t-73 15.5q-73 0 -125.5 -8.5
t-99.5 -25.5q-15 -6 -27 -6q-20 0 -31 23l-75 186q-6 15 -6 26q0 25 33 41q68 34 170 59.5t181 25.5q143 0 248 -42t160.5 -120.5t55.5 -186.5v-517q0 -21 -11 -33t-30 -12q-81 -49 -126.5 -107.5t-45.5 -114.5q0 -38 31 -59.5t86 -21.5q44 0 112 14q3 1 9 1q27 0 32 -30
l18 -128q3 -15 -5 -25.5zM539 257.5q23 24.5 24 89.5h-79q-40 0 -57 -17t-17 -41q0 -26 16 -41t45 -15q45 0 68 24.5z" />
    <glyph glyph-name="Cacute" unicode="&#x106;" horiz-adv-x="1318" 
d="M1042 480q29 0 45 -22l184 -284q6 -9 6 -20q0 -15 -9 -29.5t-25 -25.5q-79 -56 -203 -95t-223 -39q-213 0 -389.5 101.5t-279 276.5t-102.5 385q0 211 102.5 386t279 276.5t389.5 101.5q98 0 224 -41t211 -100q12 -9 19 -22t7 -26q0 -17 -8 -28l-187 -281
q-14 -20 -41 -20q-24 0 -45 15q-35 26 -87.5 44.5t-92.5 18.5q-91 0 -167 -43t-120 -117.5t-44 -163.5t44 -162.5t120 -116.5t167 -43q38 0 88.5 16.5t85.5 40.5q26 17 51 17zM726 1577q-28 0 -41 28l-32 64q-11 22 -11 40q0 26 28 41l277 143q26 14 48 14q29 0 43 -28
l50 -93q8 -15 8 -34q0 -17 -8 -30t-25 -19l-289 -114q-31 -12 -48 -12z" />
    <glyph glyph-name="cacute" unicode="&#x107;" horiz-adv-x="842" 
d="M621 380q19 0 33 -20l159 -230q9 -13 9 -27q0 -18 -18 -32q-63 -51 -138.5 -78.5t-158.5 -27.5q-132 0 -243.5 63t-176.5 171.5t-65 236.5q0 129 65 238t176.5 172.5t243.5 63.5q83 0 159.5 -26.5t137.5 -74.5q18 -13 18 -31q0 -12 -9 -26l-157 -240q-11 -20 -31 -20
q-12 0 -27 9q-8 4 -24 14q-20 12 -32.5 18t-28.5 6q-41 0 -64.5 -26.5t-23.5 -74.5q0 -47 23.5 -74t64.5 -27q16 0 29.5 6t30.5 17q16 10 24 14q14 6 24 6zM482 1003q-22 0 -37 21l-42 58q-19 28 -19 46q0 20 21 37l248 189q30 23 54 23q21 0 38 -21l66 -83q15 -19 15 -42
q0 -13 -6.5 -25t-18.5 -19l-265 -163q-32 -21 -54 -21z" />
    <glyph glyph-name="Ccircumflex" unicode="&#x108;" horiz-adv-x="1318" 
d="M1042 480q29 0 45 -22l184 -284q6 -9 6 -20q0 -15 -9 -29.5t-25 -25.5q-79 -56 -203 -95t-223 -39q-213 0 -389.5 101.5t-279 276.5t-102.5 385q0 211 102.5 386t279 276.5t389.5 101.5q98 0 224 -41t211 -100q12 -9 19 -22t7 -26q0 -17 -8 -28l-187 -281
q-14 -20 -41 -20q-24 0 -45 15q-35 26 -87.5 44.5t-92.5 18.5q-91 0 -167 -43t-120 -117.5t-44 -163.5t44 -162.5t120 -116.5t167 -43q38 0 88.5 16.5t85.5 40.5q26 17 51 17zM784 1870q18 12 29 12q15 0 30 -12l228 -166q19 -14 19 -33q0 -10 -8 -23l-48 -63
q-13 -16 -35 -16q-19 0 -37 11l-148 94l-147 -94q-19 -12 -38 -12q-20 0 -33 17l-49 65q-11 15 -11 27q0 9 5.5 15t12 10.5t9.5 6.5z" />
    <glyph glyph-name="ccircumflex" unicode="&#x109;" horiz-adv-x="842" 
d="M621 380q19 0 33 -20l159 -230q9 -13 9 -27q0 -18 -18 -32q-63 -51 -138.5 -78.5t-158.5 -27.5q-132 0 -243.5 63t-176.5 171.5t-65 236.5q0 129 65 238t176.5 172.5t243.5 63.5q83 0 159.5 -26.5t137.5 -74.5q18 -13 18 -31q0 -12 -9 -26l-157 -240q-11 -20 -31 -20
q-12 0 -27 9q-8 4 -24 14q-20 12 -32.5 18t-28.5 6q-41 0 -64.5 -26.5t-23.5 -74.5q0 -47 23.5 -74t64.5 -27q16 0 29.5 6t30.5 17q16 10 24 14q14 6 24 6zM476 1353q11 8 17.5 11.5t13.5 3.5q16 0 32 -15l245 -199q20 -18 20 -39q0 -14 -9 -28l-51 -75q-15 -19 -38 -19
q-21 0 -39 13l-159 113l-158 -113q-21 -14 -40 -14q-23 0 -36 20l-52 78q-12 17 -12 32q0 11 6.5 18.5t13.5 13t9 6.5z" />
    <glyph glyph-name="Cdotaccent" unicode="&#x10a;" horiz-adv-x="1318" 
d="M1042 480q29 0 45 -22l184 -284q6 -9 6 -20q0 -15 -9 -29.5t-25 -25.5q-79 -56 -203 -95t-223 -39q-213 0 -389.5 101.5t-279 276.5t-102.5 385q0 211 102.5 386t279 276.5t389.5 101.5q98 0 224 -41t211 -100q12 -9 19 -22t7 -26q0 -17 -8 -28l-187 -281
q-14 -20 -41 -20q-24 0 -45 15q-35 26 -87.5 44.5t-92.5 18.5q-91 0 -167 -43t-120 -117.5t-44 -163.5t44 -162.5t120 -116.5t167 -43q38 0 88.5 16.5t85.5 40.5q26 17 51 17zM737 1622.5q-37 21.5 -58.5 58.5t-21.5 81q0 43 21.5 79.5t58.5 58t81 21.5q43 0 80 -21.5
t58.5 -58t21.5 -79.5q0 -44 -21.5 -81t-58.5 -58.5t-80 -21.5q-44 0 -81 21.5z" />
    <glyph glyph-name="cdotaccent" unicode="&#x10b;" horiz-adv-x="842" 
d="M621 380q19 0 33 -20l159 -230q9 -13 9 -27q0 -18 -18 -32q-63 -51 -138.5 -78.5t-158.5 -27.5q-132 0 -243.5 63t-176.5 171.5t-65 236.5q0 129 65 238t176.5 172.5t243.5 63.5q83 0 159.5 -26.5t137.5 -74.5q18 -13 18 -31q0 -12 -9 -26l-157 -240q-11 -20 -31 -20
q-12 0 -27 9q-8 4 -24 14q-20 12 -32.5 18t-28.5 6q-41 0 -64.5 -26.5t-23.5 -74.5q0 -47 23.5 -74t64.5 -27q16 0 29.5 6t30.5 17q16 10 24 14q14 6 24 6zM424 1044.5q-37 21.5 -58.5 58.5t-21.5 81q0 43 21.5 79.5t58.5 58t81 21.5q43 0 80 -21.5t58.5 -58t21.5 -79.5
q0 -44 -21.5 -81t-58.5 -58.5t-80 -21.5q-44 0 -81 21.5z" />
    <glyph glyph-name="Ccaron" unicode="&#x10c;" horiz-adv-x="1318" 
d="M1042 480q29 0 45 -22l184 -284q6 -9 6 -20q0 -15 -9 -29.5t-25 -25.5q-79 -56 -203 -95t-223 -39q-213 0 -389.5 101.5t-279 276.5t-102.5 385q0 211 102.5 386t279 276.5t389.5 101.5q98 0 224 -41t211 -100q12 -9 19 -22t7 -26q0 -17 -8 -28l-187 -281
q-14 -20 -41 -20q-24 0 -45 15q-35 26 -87.5 44.5t-92.5 18.5q-91 0 -167 -43t-120 -117.5t-44 -163.5t44 -162.5t120 -116.5t167 -43q38 0 88.5 16.5t85.5 40.5q26 17 51 17zM552.5 1738q-7.5 5 -12 11.5t-4.5 13.5q0 12 11 27l49 65q13 17 33 17q19 0 38 -12l147 -94
l148 94q18 11 37 11q22 0 35 -16l48 -63q8 -13 8 -23q0 -19 -19 -33l-228 -166q-15 -12 -30 -12q-11 0 -29 12l-221 161z" />
    <glyph glyph-name="ccaron" unicode="&#x10d;" horiz-adv-x="842" 
d="M621 380q19 0 33 -20l159 -230q9 -13 9 -27q0 -18 -18 -32q-63 -51 -138.5 -78.5t-158.5 -27.5q-132 0 -243.5 63t-176.5 171.5t-65 236.5q0 129 65 238t176.5 172.5t243.5 63.5q83 0 159.5 -26.5t137.5 -74.5q18 -13 18 -31q0 -12 -9 -26l-157 -240q-11 -20 -31 -20
q-12 0 -27 9q-8 4 -24 14q-20 12 -32.5 18t-28.5 6q-41 0 -64.5 -26.5t-23.5 -74.5q0 -47 23.5 -74t64.5 -27q16 0 29.5 6t30.5 17q16 10 24 14q14 6 24 6zM228.5 1206.5q-8.5 6.5 -13.5 14t-5 16.5q0 15 12 32l52 78q13 20 36 20q19 0 40 -14l158 -113l159 113q18 13 39 13
q23 0 38 -19l51 -75q9 -13 9 -28q0 -21 -20 -39l-245 -199q-16 -15 -32 -15q-7 0 -13.5 3.5t-17.5 11.5l-237 193q-2 1 -10.5 7.5z" />
    <glyph glyph-name="Dcaron" unicode="&#x10e;" horiz-adv-x="1420" 
d="M102 1399q0 25 18.5 43.5t43.5 18.5h481q213 0 379 -92.5t258 -259t92 -380.5q0 -213 -92 -379t-257.5 -258t-379.5 -92h-481q-25 0 -43.5 18.5t-18.5 42.5v1338zM645 418q83 0 148.5 41.5t102 113t36.5 156.5q0 91 -36.5 164t-101.5 115t-149 41l-102 -1v-630h102z
M245.5 1707q-7.5 5 -12 11.5t-4.5 13.5q0 12 11 27l49 65q13 17 33 17q19 0 38 -12l147 -94l148 94q18 11 37 11q22 0 35 -16l48 -63q8 -13 8 -23q0 -19 -19 -33l-228 -166q-15 -12 -30 -12q-11 0 -29 12l-221 161z" />
    <glyph glyph-name="dcaron" unicode="&#x10f;" horiz-adv-x="1048" 
d="M965.5 1450.5q11.5 -11.5 11.5 -30.5v-1376q0 -19 -11.5 -30.5t-30.5 -11.5h-189q-19 0 -30 16l-50 77q-44 -63 -108.5 -96t-144.5 -33q-115 0 -204 60t-138 167t-49 243q0 137 49 245t138 168.5t204 60.5q99 0 172 -50l-3 560q0 19 11 30.5t28 11.5h314q19 0 30.5 -11.5
zM563.5 366.5q29.5 29.5 29.5 71.5q0 43 -29.5 72t-71.5 29t-71 -29t-29 -72q0 -42 29 -71.5t71 -29.5t71.5 29.5zM1168.5 1175q-19.5 -14 -47.5 -14h-52q-28 0 -46 14.5t-18 37.5l1 313q0 33 15 53.5t40 20.5h95q33 0 49.5 -20.5t13.5 -53.5l-29 -315q-2 -22 -21.5 -36z
" />
    <glyph glyph-name="Dcroat" unicode="&#x110;" horiz-adv-x="1420" 
d="M1024 1368.5q166 -92.5 258 -259t92 -380.5q0 -213 -92 -379t-257.5 -258t-379.5 -92h-481q-25 0 -43.5 18.5t-18.5 42.5v594h-69q-18 0 -28.5 10t-10.5 29v75q0 19 10.5 29t28.5 10h69v591q0 25 18.5 43.5t43.5 18.5h481q213 0 379 -92.5zM793.5 459.5
q65.5 41.5 102 113t36.5 156.5q0 91 -36.5 164t-101.5 115t-149 41l-102 -1v-240h178q18 0 28 -10t10 -29v-75q0 -19 -10 -29t-28 -10h-178v-237h102q83 0 148.5 41.5z" />
    <glyph glyph-name="dcroat" unicode="&#x111;" horiz-adv-x="1048" 
d="M1068 1148q10 -10 10 -29v-75q0 -19 -10 -29t-28 -10h-63v-961q0 -19 -11.5 -30.5t-30.5 -11.5h-189q-19 0 -30 16l-50 77q-44 -63 -108.5 -96t-144.5 -33q-115 0 -204 60t-138 167t-49 243q0 137 49 245t138 168.5t204 60.5q99 0 172 -50l-1 145h-112q-18 0 -28.5 10
t-10.5 29v75q0 19 10.5 29t28.5 10h112l-2 262q0 19 11 30.5t28 11.5h314q19 0 30.5 -11.5t11.5 -30.5v-262h63q18 0 28 -10zM563.5 366.5q29.5 29.5 29.5 71.5q0 43 -29.5 72t-71.5 29t-71 -29t-29 -72q0 -42 29 -71.5t71 -29.5t71.5 29.5z" />
    <glyph glyph-name="Emacron" unicode="&#x112;" horiz-adv-x="1277" 
d="M102 1398q0 30 16.5 46.5t45.5 16.5h951q29 0 45.5 -17t16.5 -46v-292q0 -29 -16.5 -46t-45.5 -17h-572v-154h416q32 0 50 -17t18 -47v-199q0 -29 -18 -46t-50 -17h-416v-146h567q40 0 63 -22t23 -59v-275q0 -28 -17 -44.5t-45 -16.5h-970q-29 0 -45.5 16.5t-16.5 44.5
v1337zM440 1719q0 14 9 23t23 9h389q14 0 22 -8t8 -22v-136q0 -14 -9.5 -22t-22.5 -8h-389q-10 0 -20 8t-10 22v134z" />
    <glyph glyph-name="emacron" unicode="&#x113;" horiz-adv-x="977" 
d="M928 398.5q-27 -40.5 -85 -44.5h-4h-462q10 -41 48 -66.5t91 -25.5q81 0 135 35q12 8 25 8q18 0 34 -21q28 -43 110 -158q10 -14 10 -28q0 -17 -18 -31q-63 -49 -142 -75.5t-163 -26.5q-132 0 -243.5 63t-176.5 171.5t-65 236.5q0 130 64 238.5t174.5 172t243.5 63.5
q132 0 234.5 -52.5t159.5 -146t57 -210.5q0 -62 -27 -102.5zM422 576.5q-32 -26.5 -43 -66.5h231q-8 41 -39.5 67t-75.5 26q-41 0 -73 -26.5zM281 1189q0 14 9 23t23 9h389q14 0 22 -8t8 -22v-136q0 -14 -9.5 -22t-22.5 -8h-389q-10 0 -20 8t-10 22v134z" />
    <glyph glyph-name="Ebreve" unicode="&#x114;" horiz-adv-x="1277" 
d="M102 1398q0 30 16.5 46.5t45.5 16.5h951q29 0 45.5 -17t16.5 -46v-292q0 -29 -16.5 -46t-45.5 -17h-572v-154h416q32 0 50 -17t18 -47v-199q0 -29 -18 -46t-50 -17h-416v-146h567q40 0 63 -22t23 -59v-275q0 -28 -17 -44.5t-45 -16.5h-970q-29 0 -45.5 16.5t-16.5 44.5
v1337zM487 1595q-66 60 -66 165q0 22 12.5 35t34.5 13h80q26 0 41 -14.5t15 -40.5q0 -23 17.5 -36t48.5 -13q30 0 46.5 13t16.5 36q0 26 14 40.5t39 14.5h80q23 0 36 -12.5t13 -35.5q0 -105 -66 -165t-181 -60t-181 60z" />
    <glyph glyph-name="ebreve" unicode="&#x115;" horiz-adv-x="977" 
d="M928 398.5q-27 -40.5 -85 -44.5h-4h-462q10 -41 48 -66.5t91 -25.5q81 0 135 35q12 8 25 8q18 0 34 -21q28 -43 110 -158q10 -14 10 -28q0 -17 -18 -31q-63 -49 -142 -75.5t-163 -26.5q-132 0 -243.5 63t-176.5 171.5t-65 236.5q0 130 64 238.5t174.5 172t243.5 63.5
q132 0 234.5 -52.5t159.5 -146t57 -210.5q0 -62 -27 -102.5zM422 576.5q-32 -26.5 -43 -66.5h231q-8 41 -39.5 67t-75.5 26q-41 0 -73 -26.5zM350 1055q-66 32 -101.5 92.5t-35.5 142.5q0 27 15 42t41 15h95q31 0 48.5 -17.5t17.5 -47.5q0 -27 21 -43t58 -16q35 0 54.5 16
t19.5 43q0 30 17 47.5t46 17.5h95q28 0 43 -15t15 -42q0 -125 -78 -196t-215 -71q-90 0 -156 32z" />
    <glyph glyph-name="Edotaccent" unicode="&#x116;" horiz-adv-x="1277" 
d="M102 1398q0 30 16.5 46.5t45.5 16.5h951q29 0 45.5 -17t16.5 -46v-292q0 -29 -16.5 -46t-45.5 -17h-572v-154h416q32 0 50 -17t18 -47v-199q0 -29 -18 -46t-50 -17h-416v-146h567q40 0 63 -22t23 -59v-275q0 -28 -17 -44.5t-45 -16.5h-970q-29 0 -45.5 16.5t-16.5 44.5
v1337zM587 1591.5q-37 21.5 -58.5 58.5t-21.5 81q0 43 21.5 79.5t58.5 58t81 21.5q43 0 80 -21.5t58.5 -58t21.5 -79.5q0 -44 -21.5 -81t-58.5 -58.5t-80 -21.5q-44 0 -81 21.5z" />
    <glyph glyph-name="edotaccent" unicode="&#x117;" horiz-adv-x="977" 
d="M928 398.5q-27 -40.5 -85 -44.5h-4h-462q10 -41 48 -66.5t91 -25.5q81 0 135 35q12 8 25 8q18 0 34 -21q28 -43 110 -158q10 -14 10 -28q0 -17 -18 -31q-63 -49 -142 -75.5t-163 -26.5q-132 0 -243.5 63t-176.5 171.5t-65 236.5q0 130 64 238.5t174.5 172t243.5 63.5
q132 0 234.5 -52.5t159.5 -146t57 -210.5q0 -62 -27 -102.5zM422 576.5q-32 -26.5 -43 -66.5h231q-8 41 -39.5 67t-75.5 26q-41 0 -73 -26.5zM423 1046.5q-37 21.5 -58.5 58.5t-21.5 81q0 43 21.5 79.5t58.5 58t81 21.5q43 0 80 -21.5t58.5 -58t21.5 -79.5q0 -44 -21.5 -81
t-58.5 -58.5t-80 -21.5q-44 0 -81 21.5z" />
    <glyph glyph-name="Eogonek" unicode="&#x118;" horiz-adv-x="1277" 
d="M1281 -462.5q-8 -10.5 -25 -14.5q-71 -17 -157 -17q-141 0 -221.5 69t-80.5 189q0 72 28 134t78 102h-739q-29 0 -45.5 16.5t-16.5 44.5v1337q0 30 16.5 46.5t45.5 16.5h951q29 0 45.5 -17t16.5 -46v-292q0 -29 -16.5 -46t-45.5 -17h-572v-154h416q32 0 50 -17t18 -47
v-199q0 -29 -18 -46t-50 -17h-416v-146h567q40 0 63 -22t23 -59v-275q0 -17 -7 -30.5t-19 -21.5q-81 -49 -126.5 -107.5t-45.5 -114.5q0 -38 31 -59.5t86 -21.5q44 0 112 14q3 1 9 1q27 0 32 -30l18 -128q3 -15 -5 -25.5z" />
    <glyph glyph-name="eogonek" unicode="&#x119;" horiz-adv-x="977" 
d="M377 354q10 -41 48 -66.5t91 -25.5q81 0 135 35q12 8 25 8q18 0 34 -21q28 -43 110 -158q10 -14 10 -28q0 -17 -18 -31q-45 -35 -100 -59q-69 -47 -107 -100.5t-38 -104.5q0 -38 31 -59.5t86 -21.5q44 0 112 14q3 1 9 1q27 0 32 -30l18 -128q3 -15 -5 -25.5t-25 -14.5
q-71 -17 -157 -17q-141 0 -221.5 69t-80.5 189q0 53 16 103t46 88q-114 18 -207 84t-146 165.5t-53 215.5q0 130 64 238.5t174.5 172t243.5 63.5q132 0 234.5 -52.5t159.5 -146t57 -210.5q0 -62 -27 -102.5t-85 -44.5h-4h-462zM422 576.5q-32 -26.5 -43 -66.5h231
q-8 41 -39.5 67t-75.5 26q-41 0 -73 -26.5z" />
    <glyph glyph-name="Ecaron" unicode="&#x11a;" horiz-adv-x="1277" 
d="M102 1398q0 30 16.5 46.5t45.5 16.5h951q29 0 45.5 -17t16.5 -46v-292q0 -29 -16.5 -46t-45.5 -17h-572v-154h416q32 0 50 -17t18 -47v-199q0 -29 -18 -46t-50 -17h-416v-146h567q40 0 63 -22t23 -59v-275q0 -28 -17 -44.5t-45 -16.5h-970q-29 0 -45.5 16.5t-16.5 44.5
v1337zM402.5 1707q-7.5 5 -12 11.5t-4.5 13.5q0 12 11 27l49 65q13 17 33 17q19 0 38 -12l147 -94l148 94q18 11 37 11q22 0 35 -16l48 -63q8 -13 8 -23q0 -19 -19 -33l-228 -166q-15 -12 -30 -12q-11 0 -29 12l-221 161z" />
    <glyph glyph-name="ecaron" unicode="&#x11b;" horiz-adv-x="977" 
d="M928 398.5q-27 -40.5 -85 -44.5h-4h-462q10 -41 48 -66.5t91 -25.5q81 0 135 35q12 8 25 8q18 0 34 -21q28 -43 110 -158q10 -14 10 -28q0 -17 -18 -31q-63 -49 -142 -75.5t-163 -26.5q-132 0 -243.5 63t-176.5 171.5t-65 236.5q0 130 64 238.5t174.5 172t243.5 63.5
q132 0 234.5 -52.5t159.5 -146t57 -210.5q0 -62 -27 -102.5zM422 576.5q-32 -26.5 -43 -66.5h231q-8 41 -39.5 67t-75.5 26q-41 0 -73 -26.5zM227.5 1208.5q-8.5 6.5 -13.5 14t-5 16.5q0 15 12 32l52 78q13 20 36 20q19 0 40 -14l158 -113l159 113q18 13 39 13q23 0 38 -19
l51 -75q9 -13 9 -28q0 -21 -20 -39l-245 -199q-16 -15 -32 -15q-7 0 -13.5 3.5t-17.5 11.5l-237 193q-2 1 -10.5 7.5z" />
    <glyph glyph-name="Gcircumflex" unicode="&#x11c;" horiz-adv-x="1375" 
d="M848 409q20 3 37 7v204q0 26 17.5 43.5t43.5 17.5h318q25 0 42.5 -18t17.5 -43v-475q0 -18 -9.5 -36t-23.5 -26q-82 -49 -219 -83t-254 -34q-213 0 -390 101.5t-279.5 276.5t-102.5 385t102.5 385t279 276t389.5 101q110 0 235 -39.5t198 -97.5q12 -10 18.5 -23t6.5 -27
q0 -16 -10 -33l-182 -273q-7 -12 -19 -18.5t-25 -6.5q-21 0 -39 15q-32 27 -84.5 45.5t-97.5 18.5q-91 0 -167 -43t-120 -117t-44 -163t44 -163t120 -117t167 -43q10 0 30 3zM784 1869q18 12 29 12q15 0 30 -12l228 -166q19 -14 19 -33q0 -10 -8 -23l-48 -63
q-13 -16 -35 -16q-19 0 -37 11l-148 94l-147 -94q-19 -12 -38 -12q-20 0 -33 17l-49 65q-11 15 -11 27q0 9 5.5 15t12 10.5t9.5 6.5z" />
    <glyph glyph-name="gcircumflex" unicode="&#x11d;" horiz-adv-x="971" 
d="M957 863.5q14 -14.5 14 -36.5v-187q0 -24 -14 -38.5t-36 -12.5l-77 8q41 -54 41 -144q0 -98 -52 -179t-146 -128t-213 -47q-67 0 -130 20q-15 -4 -24 -14.5t-9 -22.5q0 -9 12.5 -19.5t29.5 -10.5l212 1q115 0 203 -36.5t136.5 -106t48.5 -162.5q0 -113 -51 -198
t-150 -132t-239 -47q-113 0 -235 19.5t-196 50.5q-13 6 -20.5 17t-7.5 25q0 10 3 19l72 220q4 11 14.5 17t24.5 6q12 0 18 -2q111 -29 166 -37.5t117 -8.5q83 0 111.5 11.5t28.5 30.5q0 32 -60 32h-200q-166 0 -250 76.5t-84 213.5q0 70 31.5 125.5t86.5 95.5
q-62 99 -62 222q0 121 51 213.5t143 144t211 51.5q37 0 83 -9t92 -26h270q22 0 36 -14.5zM539.5 445.5q25.5 25.5 25.5 61.5q0 35 -26 61t-61 26q-36 0 -62 -26t-26 -61t26 -61t62 -26t61.5 25.5zM470 1352q11 8 17.5 11.5t13.5 3.5q16 0 32 -15l245 -199q20 -18 20 -39
q0 -14 -9 -28l-51 -75q-15 -19 -38 -19q-21 0 -39 13l-159 113l-158 -113q-21 -14 -40 -14q-23 0 -36 20l-52 78q-12 17 -12 32q0 11 6.5 18.5t13.5 13t9 6.5z" />
    <glyph glyph-name="Gbreve" unicode="&#x11e;" horiz-adv-x="1375" 
d="M848 409q20 3 37 7v204q0 26 17.5 43.5t43.5 17.5h318q25 0 42.5 -18t17.5 -43v-475q0 -18 -9.5 -36t-23.5 -26q-82 -49 -219 -83t-254 -34q-213 0 -390 101.5t-279.5 276.5t-102.5 385t102.5 385t279 276t389.5 101q110 0 235 -39.5t198 -97.5q12 -10 18.5 -23t6.5 -27
q0 -16 -10 -33l-182 -273q-7 -12 -19 -18.5t-25 -6.5q-21 0 -39 15q-32 27 -84.5 45.5t-97.5 18.5q-91 0 -167 -43t-120 -117t-44 -163t44 -163t120 -117t167 -43q10 0 30 3zM637 1625q-66 60 -66 165q0 22 12.5 35t34.5 13h80q26 0 41 -14.5t15 -40.5q0 -23 17.5 -36
t48.5 -13q30 0 46.5 13t16.5 36q0 26 14 40.5t39 14.5h80q23 0 36 -12.5t13 -35.5q0 -105 -66 -165t-181 -60t-181 60z" />
    <glyph glyph-name="gbreve" unicode="&#x11f;" horiz-adv-x="971" 
d="M957 863.5q14 -14.5 14 -36.5v-187q0 -24 -14 -38.5t-36 -12.5l-77 8q41 -54 41 -144q0 -98 -52 -179t-146 -128t-213 -47q-67 0 -130 20q-15 -4 -24 -14.5t-9 -22.5q0 -9 12.5 -19.5t29.5 -10.5l212 1q115 0 203 -36.5t136.5 -106t48.5 -162.5q0 -113 -51 -198
t-150 -132t-239 -47q-113 0 -235 19.5t-196 50.5q-13 6 -20.5 17t-7.5 25q0 10 3 19l72 220q4 11 14.5 17t24.5 6q12 0 18 -2q111 -29 166 -37.5t117 -8.5q83 0 111.5 11.5t28.5 30.5q0 32 -60 32h-200q-166 0 -250 76.5t-84 213.5q0 70 31.5 125.5t86.5 95.5
q-62 99 -62 222q0 121 51 213.5t143 144t211 51.5q37 0 83 -9t92 -26h270q22 0 36 -14.5zM539.5 445.5q25.5 25.5 25.5 61.5q0 35 -26 61t-61 26q-36 0 -62 -26t-26 -61t26 -61t62 -26t61.5 25.5zM345 1052q-66 32 -101.5 92.5t-35.5 142.5q0 27 15 42t41 15h95
q31 0 48.5 -17.5t17.5 -47.5q0 -27 21 -43t58 -16q35 0 54.5 16t19.5 43q0 30 17 47.5t46 17.5h95q28 0 43 -15t15 -42q0 -125 -78 -196t-215 -71q-90 0 -156 32z" />
    <glyph glyph-name="Gdotaccent" unicode="&#x120;" horiz-adv-x="1375" 
d="M848 409q20 3 37 7v204q0 26 17.5 43.5t43.5 17.5h318q25 0 42.5 -18t17.5 -43v-475q0 -18 -9.5 -36t-23.5 -26q-82 -49 -219 -83t-254 -34q-213 0 -390 101.5t-279.5 276.5t-102.5 385t102.5 385t279 276t389.5 101q110 0 235 -39.5t198 -97.5q12 -10 18.5 -23t6.5 -27
q0 -16 -10 -33l-182 -273q-7 -12 -19 -18.5t-25 -6.5q-21 0 -39 15q-32 27 -84.5 45.5t-97.5 18.5q-91 0 -167 -43t-120 -117t-44 -163t44 -163t120 -117t167 -43q10 0 30 3zM737 1621.5q-37 21.5 -58.5 58.5t-21.5 81q0 43 21.5 79.5t58.5 58t81 21.5q43 0 80 -21.5
t58.5 -58t21.5 -79.5q0 -44 -21.5 -81t-58.5 -58.5t-80 -21.5q-44 0 -81 21.5z" />
    <glyph glyph-name="gdotaccent" unicode="&#x121;" horiz-adv-x="971" 
d="M957 863.5q14 -14.5 14 -36.5v-187q0 -24 -14 -38.5t-36 -12.5l-77 8q41 -54 41 -144q0 -98 -52 -179t-146 -128t-213 -47q-67 0 -130 20q-15 -4 -24 -14.5t-9 -22.5q0 -9 12.5 -19.5t29.5 -10.5l212 1q115 0 203 -36.5t136.5 -106t48.5 -162.5q0 -113 -51 -198
t-150 -132t-239 -47q-113 0 -235 19.5t-196 50.5q-13 6 -20.5 17t-7.5 25q0 10 3 19l72 220q4 11 14.5 17t24.5 6q12 0 18 -2q111 -29 166 -37.5t117 -8.5q83 0 111.5 11.5t28.5 30.5q0 32 -60 32h-200q-166 0 -250 76.5t-84 213.5q0 70 31.5 125.5t86.5 95.5
q-62 99 -62 222q0 121 51 213.5t143 144t211 51.5q37 0 83 -9t92 -26h270q22 0 36 -14.5zM539.5 445.5q25.5 25.5 25.5 61.5q0 35 -26 61t-61 26q-36 0 -62 -26t-26 -61t26 -61t62 -26t61.5 25.5zM418 1043.5q-37 21.5 -58.5 58.5t-21.5 81q0 43 21.5 79.5t58.5 58t81 21.5
q43 0 80 -21.5t58.5 -58t21.5 -79.5q0 -44 -21.5 -81t-58.5 -58.5t-80 -21.5q-44 0 -81 21.5z" />
    <glyph glyph-name="uni0122" unicode="&#x122;" horiz-adv-x="1375" 
d="M848 409q20 3 37 7v204q0 26 17.5 43.5t43.5 17.5h318q25 0 42.5 -18t17.5 -43v-475q0 -18 -9.5 -36t-23.5 -26q-82 -49 -219 -83t-254 -34q-213 0 -390 101.5t-279.5 276.5t-102.5 385t102.5 385t279 276t389.5 101q110 0 235 -39.5t198 -97.5q12 -10 18.5 -23t6.5 -27
q0 -16 -10 -33l-182 -273q-7 -12 -19 -18.5t-25 -6.5q-21 0 -39 15q-32 27 -84.5 45.5t-97.5 18.5q-91 0 -167 -43t-120 -117t-44 -163t44 -163t120 -117t167 -43q10 0 30 3zM668.5 -171.5q21.5 36.5 58.5 58t81 21.5q53 0 95.5 -27t66 -72t23.5 -96q0 -109 -37.5 -190.5
t-117.5 -156.5q-15 -13 -29 -13q-15 0 -31 14l-50 43q-14 12 -14 27q0 16 17 35q38 42 51 60t13 32q0 9 -7.5 16.5t-20.5 11.5q-56 15 -88 56.5t-32 99.5q0 44 21.5 80.5z" />
    <glyph glyph-name="uni0123" unicode="&#x123;" horiz-adv-x="971" 
d="M957 863.5q14 -14.5 14 -36.5v-187q0 -24 -14 -38.5t-36 -12.5l-77 8q41 -54 41 -144q0 -98 -52 -179t-146 -128t-213 -47q-67 0 -130 20q-15 -4 -24 -14.5t-9 -22.5q0 -9 12.5 -19.5t29.5 -10.5l212 1q115 0 203 -36.5t136.5 -106t48.5 -162.5q0 -113 -51 -198
t-150 -132t-239 -47q-113 0 -235 19.5t-196 50.5q-13 6 -20.5 17t-7.5 25q0 10 3 19l72 220q4 11 14.5 17t24.5 6q12 0 18 -2q111 -29 166 -37.5t117 -8.5q83 0 111.5 11.5t28.5 30.5q0 32 -60 32h-200q-166 0 -250 76.5t-84 213.5q0 70 31.5 125.5t86.5 95.5
q-62 99 -62 222q0 121 51 213.5t143 144t211 51.5q37 0 83 -9t92 -26h270q22 0 36 -14.5zM539.5 445.5q25.5 25.5 25.5 61.5q0 35 -26 61t-61 26q-36 0 -62 -26t-26 -61t26 -61t62 -26t61.5 25.5zM639.5 1027.5q-21.5 -36.5 -58.5 -58t-81 -21.5q-53 0 -95.5 27t-66 72
t-23.5 96q0 109 37.5 190.5t117.5 156.5q15 13 29 13q15 0 31 -14l50 -43q14 -12 14 -27q0 -16 -17 -35q-38 -42 -51 -60t-13 -32q0 -9 7.5 -16.5t20.5 -11.5q56 -15 88 -56.5t32 -99.5q0 -44 -21.5 -80.5z" />
    <glyph glyph-name="Hcircumflex" unicode="&#x124;" horiz-adv-x="1497" 
d="M1383 1448.5q12 -11.5 12 -32.5v-1372q0 -21 -12 -32.5t-32 -11.5h-353q-20 0 -32 12t-12 32v493h-411v-493q0 -20 -12 -32t-32 -12h-353q-20 0 -32 11.5t-12 32.5v1372q0 21 12 32.5t32 11.5h353q20 0 32 -12t12 -32v-495h411v495q0 20 12 32t32 12h353q20 0 32 -11.5z
M709 1841q18 12 29 12q15 0 30 -12l228 -166q19 -14 19 -33q0 -10 -8 -23l-48 -63q-13 -16 -35 -16q-19 0 -37 11l-148 94l-147 -94q-19 -12 -38 -12q-20 0 -33 17l-49 65q-11 15 -11 27q0 9 5.5 15t12 10.5t9.5 6.5z" />
    <glyph glyph-name="hcircumflex" unicode="&#x125;" horiz-adv-x="1052" 
d="M906.5 802q83.5 -108 83.5 -325v-434q0 -41 -41 -41h-312q-41 0 -41 41v437q0 25 -18.5 39.5t-42.5 14.5q-30 0 -50 -20t-20 -59v-416q0 -19 -10 -29t-29 -10h-316q-19 0 -29 10t-10 29v1383q0 19 10 29t29 10h316q19 0 29 -10t10 -29v-566q83 54 182 54
q176 0 259.5 -108zM229 1831q18 12 29 12q15 0 30 -12l228 -166q19 -14 19 -33q0 -10 -8 -23l-48 -63q-13 -16 -35 -16q-19 0 -37 11l-148 94l-147 -94q-19 -12 -38 -12q-20 0 -33 17l-49 65q-11 15 -11 27q0 9 5.5 15t12 10.5t9.5 6.5z" />
    <glyph glyph-name="Hbar" unicode="&#x126;" horiz-adv-x="1497" 
d="M1458 1220v-75q0 -39 -36 -39h-27v-1062q0 -21 -12 -32.5t-32 -11.5h-353q-20 0 -32 12t-12 32v493h-411v-493q0 -20 -12 -32t-32 -12h-353q-20 0 -32 11.5t-12 32.5v1062h-39q-17 0 -28 10.5t-11 28.5v75q0 18 11 28.5t28 10.5h39v157q0 21 12 32.5t32 11.5h353
q20 0 32 -12t12 -32v-157h411v157q0 20 12 32t32 12h353q20 0 32 -11.5t12 -32.5v-157h27q36 0 36 -39zM954 1106h-411v-185h411v185z" />
    <glyph glyph-name="hbar" unicode="&#x127;" horiz-adv-x="1052" 
d="M906.5 802q83.5 -108 83.5 -325v-434q0 -41 -41 -41h-312q-41 0 -41 41v437q0 25 -18.5 39.5t-42.5 14.5q-30 0 -50 -20t-20 -59v-416q0 -19 -10 -29t-29 -10h-316q-19 0 -29 10t-10 29v1127h-32q-18 0 -28.5 10t-10.5 29v75q0 19 10.5 29t28.5 10h32v103q0 19 10 29
t29 10h316q19 0 29 -10t10 -29v-103h142q18 0 28 -10t10 -29v-75q0 -19 -10 -29t-28 -10h-142v-310q83 54 182 54q176 0 259.5 -108z" />
    <glyph glyph-name="Itilde" unicode="&#x128;" horiz-adv-x="644" 
d="M542 44q0 -21 -11.5 -32.5t-32.5 -11.5h-352q-21 0 -32.5 11.5t-11.5 32.5v1373q0 21 11.5 32.5t32.5 11.5h352q21 0 32.5 -11.5t11.5 -32.5v-1373zM89 1631q0 18 19 45q30 39 64 57.5t78 18.5q19 0 43.5 -10.5t62.5 -33.5q34 -19 51 -19q21 0 39 27q16 21 32 21
q14 0 29 -17l57 -61q11 -11 11 -24q0 -9 -7 -19q-32 -52 -70.5 -76.5t-89.5 -24.5q-33 0 -101 40q-31 21 -56 21q-23 0 -49 -35q-8 -11 -18 -11q-15 0 -39 24l-39 42q-17 17 -17 35z" />
    <glyph glyph-name="itilde" unicode="&#x129;" horiz-adv-x="536" 
d="M455 867.5q10 -10.5 10 -28.5v-800q0 -19 -10 -29t-29 -10h-316q-19 0 -29 10t-10 29v800q0 18 10 28.5t29 10.5h316q19 0 29 -10.5zM-18 1170q0 21 23 50q34 42 74.5 62.5t92.5 20.5q23 0 52 -11.5t73 -36.5q40 -21 61 -21q12 0 22.5 6.5t23.5 23.5q20 23 37 23
q16 0 35 -19l67 -67q13 -13 13 -26q0 -10 -8 -21q-38 -57 -83.5 -84t-105.5 -27q-41 0 -120 44q-36 23 -66 23q-27 0 -57 -39q-8 -11 -22 -11q-19 0 -46 26l-46 46q-20 18 -20 38z" />
    <glyph glyph-name="Imacron" unicode="&#x12a;" horiz-adv-x="644" 
d="M542 44q0 -21 -11.5 -32.5t-32.5 -11.5h-352q-21 0 -32.5 11.5t-11.5 32.5v1373q0 21 11.5 32.5t32.5 11.5h352q21 0 32.5 -11.5t11.5 -32.5v-1373zM106 1718q0 14 9 23t23 9h389q14 0 22 -8t8 -22v-136q0 -14 -9.5 -22t-22.5 -8h-389q-10 0 -20 8t-10 22v134z" />
    <glyph glyph-name="imacron" unicode="&#x12b;" horiz-adv-x="536" 
d="M455 867.5q10 -10.5 10 -28.5v-800q0 -19 -10 -29t-29 -10h-316q-19 0 -29 10t-10 29v800q0 18 10 28.5t29 10.5h316q19 0 29 -10.5zM42 1174q0 14 9 23t23 9h389q14 0 22 -8t8 -22v-136q0 -14 -9.5 -22t-22.5 -8h-389q-10 0 -20 8t-10 22v134z" />
    <glyph glyph-name="Ibreve" unicode="&#x12c;" horiz-adv-x="644" 
d="M542 44q0 -21 -11.5 -32.5t-32.5 -11.5h-352q-21 0 -32.5 11.5t-11.5 32.5v1373q0 21 11.5 32.5t32.5 11.5h352q21 0 32.5 -11.5t11.5 -32.5v-1373zM153 1594q-66 60 -66 165q0 22 12.5 35t34.5 13h80q26 0 41 -14.5t15 -40.5q0 -23 17.5 -36t48.5 -13q30 0 46.5 13
t16.5 36q0 26 14 40.5t39 14.5h80q23 0 36 -12.5t13 -35.5q0 -105 -66 -165t-181 -60t-181 60z" />
    <glyph glyph-name="ibreve" unicode="&#x12d;" horiz-adv-x="536" 
d="M455 867.5q10 -10.5 10 -28.5v-800q0 -19 -10 -29t-29 -10h-316q-19 0 -29 10t-10 29v800q0 18 10 28.5t29 10.5h316q19 0 29 -10.5zM111 1040q-66 32 -101.5 92.5t-35.5 142.5q0 27 15 42t41 15h95q31 0 48.5 -17.5t17.5 -47.5q0 -27 21 -43t58 -16q35 0 54.5 16
t19.5 43q0 30 17 47.5t46 17.5h95q28 0 43 -15t15 -42q0 -125 -78 -196t-215 -71q-90 0 -156 32z" />
    <glyph glyph-name="Iogonek" unicode="&#x12e;" horiz-adv-x="644" 
d="M642 -464.5q-8 -10.5 -25 -14.5q-71 -17 -157 -17q-141 0 -221.5 69t-80.5 189q0 72 29 135t80 103h-121q-21 0 -32.5 11.5t-11.5 32.5v1373q0 21 11.5 32.5t32.5 11.5h352q21 0 32.5 -11.5t11.5 -32.5v-1373q0 -25 -16 -36l5 -1q-81 -49 -126.5 -107.5t-45.5 -114.5
q0 -38 31 -59.5t86 -21.5q44 0 112 14q3 1 9 1q27 0 32 -30l18 -128q3 -15 -5 -25.5z" />
    <glyph glyph-name="iogonek" unicode="&#x12f;" horiz-adv-x="536" 
d="M155 1058.5q-52 30.5 -82.5 82t-30.5 113.5t30.5 114t82.5 82.5t114 30.5q61 0 113 -31t82.5 -83t30.5 -113t-30.5 -113t-82.5 -82.5t-113 -30.5q-62 0 -114 30.5zM565 -462.5q-8 -10.5 -25 -14.5q-71 -17 -157 -17q-141 0 -221.5 69t-80.5 189q0 72 28 134t78 102h-77
q-19 0 -29 10t-10 29v800q0 18 10 28.5t29 10.5h316q19 0 29 -10.5t10 -28.5v-800q0 -19 -11 -30l-0.5 -0.5l-0.5 -0.5q-2 -2 -8 -4q-77 -49 -120 -106t-43 -111q0 -38 31 -59.5t86 -21.5q44 0 112 14q3 1 9 1q27 0 32 -30l18 -128q3 -15 -5 -25.5z" />
    <glyph glyph-name="Idotaccent" unicode="&#x130;" horiz-adv-x="644" 
d="M542 44q0 -21 -11.5 -32.5t-32.5 -11.5h-352q-21 0 -32.5 11.5t-11.5 32.5v1373q0 21 11.5 32.5t32.5 11.5h352q21 0 32.5 -11.5t11.5 -32.5v-1373zM253 1590.5q-37 21.5 -58.5 58.5t-21.5 81q0 43 21.5 79.5t58.5 58t81 21.5q43 0 80 -21.5t58.5 -58t21.5 -79.5
q0 -44 -21.5 -81t-58.5 -58.5t-80 -21.5q-44 0 -81 21.5z" />
    <glyph glyph-name="dotlessi" unicode="&#x131;" horiz-adv-x="536" 
d="M455 867.5q10 -10.5 10 -28.5v-800q0 -19 -10 -29t-29 -10h-316q-19 0 -29 10t-10 29v800q0 18 10 28.5t29 10.5h316q19 0 29 -10.5z" />
    <glyph glyph-name="IJ" unicode="&#x132;" horiz-adv-x="1447" 
d="M936 1416q0 21 13.5 33t37.5 12h336q25 0 39 -12t14 -33v-863q0 -182 -78.5 -314.5t-226 -203t-348.5 -70.5q-202 0 -349 72.5t-225 208t-78 320.5q0 16 10.5 24.5t29.5 8.5l355 2q21 0 32.5 -12.5t11.5 -34.5q0 -69 56.5 -108.5t156.5 -39.5q99 0 156 39.5t57 107.5v863
zM511 736q0 -20 -11.5 -32t-32.5 -12h-352q-21 0 -32.5 12t-11.5 32v681q0 21 11.5 32.5t32.5 11.5h352q21 0 32.5 -11.5t11.5 -32.5v-681z" />
    <glyph glyph-name="ij" unicode="&#x133;" horiz-adv-x="1072" 
d="M155 1058.5q-52 30.5 -82.5 82t-30.5 113.5t30.5 114t82.5 82.5t114 30.5q61 0 113 -31t82.5 -83t30.5 -113t-30.5 -113t-82.5 -82.5t-113 -30.5q-62 0 -114 30.5zM691 1058.5q-52 30.5 -82.5 82t-30.5 113.5t30.5 114t82.5 82.5t114 30.5q61 0 113 -31t82.5 -83
t30.5 -113t-30.5 -113t-82.5 -82.5t-113 -30.5q-62 0 -114 30.5zM991 867.5q10 -10.5 10 -28.5v-1007q0 -140 -56 -241t-161.5 -155t-250.5 -54t-250.5 53.5t-161.5 153.5t-56 239v21q0 19 11 29.5t30 10.5h312q20 0 30.5 -11t10.5 -30v-16q0 -32 20 -50t54 -18t53.5 19
t19.5 53v203h1v800q0 18 10 28.5t29 10.5h316q19 0 29 -10.5zM426 878q19 0 29 -10.5t10 -28.5v-800q0 -19 -10 -29t-29 -10h-316q-19 0 -29 10t-10 29v800q0 18 10 28.5t29 10.5h316z" />
    <glyph glyph-name="Jcircumflex" unicode="&#x134;" horiz-adv-x="1061" 
d="M533 1416q0 45 51 45h337q53 0 53 -45v-960q0 -149 -61 -260t-174.5 -171t-265.5 -60q-247 0 -391 186q-22 26 -22 50q0 21 17 36l224 204q20 18 41 18q25 0 43 -23q16 -20 36 -30.5t52 -10.5q26 0 43 19t17 42v960zM725 1841q18 12 29 12q15 0 30 -12l228 -166
q19 -14 19 -33q0 -10 -8 -23l-48 -63q-13 -16 -35 -16q-19 0 -37 11l-148 94l-147 -94q-19 -12 -38 -12q-20 0 -33 17l-49 65q-11 15 -11 27q0 9 5.5 15t12 10.5t9.5 6.5z" />
    <glyph glyph-name="jcircumflex" unicode="&#x135;" horiz-adv-x="536" 
d="M455 867.5q10 -10.5 10 -28.5v-845q0 -229 -126 -343.5t-373 -114.5h-12q-20 0 -30.5 10.5t-10.5 30.5v261q0 20 10.5 30.5t30.5 10.5h10q54 0 80.5 18.5t26.5 61.5v880q0 18 10 28.5t29 10.5h316q19 0 29 -10.5zM236 1340q11 8 17.5 11.5t13.5 3.5q16 0 32 -15l245 -199
q20 -18 20 -39q0 -14 -9 -28l-51 -75q-15 -19 -38 -19q-21 0 -39 13l-159 113l-158 -113q-21 -14 -40 -14q-23 0 -36 20l-52 78q-12 17 -12 32q0 11 6.5 18.5t13.5 13t9 6.5z" />
    <glyph glyph-name="uni0136" unicode="&#x136;" horiz-adv-x="1535" 
d="M1527 33q0 -15 -10.5 -24t-30.5 -9h-416q-37 0 -59 25l-296 473l-172 -211v-243q0 -21 -12 -32.5t-32 -11.5h-353q-20 0 -32 11.5t-12 32.5v1373q0 21 12 32.5t32 11.5h353q20 0 32 -11.5t12 -32.5v-526l377 528q18 25 37 33t53 8h404q20 0 30.5 -10t10.5 -26
q0 -20 -16 -40l-433 -530l506 -780q15 -22 15 -41zM640.5 -137.5q21.5 36.5 58.5 58t81 21.5q53 0 95.5 -27t66 -72t23.5 -96q0 -109 -37.5 -190.5t-117.5 -156.5q-15 -13 -29 -13q-15 0 -31 14l-50 43q-14 12 -14 27q0 16 17 35q38 42 51 60t13 32q0 9 -7.5 16.5
t-20.5 11.5q-56 15 -88 56.5t-32 99.5q0 44 21.5 80.5z" />
    <glyph glyph-name="uni0137" unicode="&#x137;" horiz-adv-x="1068" 
d="M1064 31q0 -14 -9.5 -22.5t-25.5 -8.5h-354q-20 0 -32 9t-22 30l-118 226l-38 -43v-183q0 -19 -10 -29t-29 -10h-316q-19 0 -29 10t-10 29v1383q0 19 10 29t29 10h316q19 0 29 -10t10 -29v-782l152 210q14 19 29 23.5t42 4.5h338q20 0 29 -8t9 -21q0 -15 -10 -28
l-268 -308l269 -452q9 -16 9 -30zM389.5 -137.5q21.5 36.5 58.5 58t81 21.5q53 0 95.5 -27t66 -72t23.5 -96q0 -109 -37.5 -190.5t-117.5 -156.5q-15 -13 -29 -13q-15 0 -31 14l-50 43q-14 12 -14 27q0 16 17 35q38 42 51 60t13 32q0 9 -7.5 16.5t-20.5 11.5
q-56 15 -88 56.5t-32 99.5q0 44 21.5 80.5z" />
    <glyph glyph-name="kgreenlandic" unicode="&#x138;" horiz-adv-x="1074" 
d="M1070 31q0 -14 -9.5 -22.5t-25.5 -8.5h-354q-20 0 -32 9t-22 30l-118 226l-44 -49v-177q0 -19 -10 -29t-29 -10h-316q-19 0 -29 10t-10 29v800q0 18 10 28.5t29 10.5h316q19 0 29 -10.5t10 -28.5v-213l1 7l157 217q14 19 29 23.5t42 4.5h338q20 0 29 -8t9 -21
q0 -15 -10 -28l-268 -308l269 -452q9 -16 9 -30z" />
    <glyph glyph-name="Lacute" unicode="&#x139;" horiz-adv-x="1146" 
d="M1074.5 406q11.5 -12 11.5 -32v-330q0 -21 -11.5 -32.5t-32.5 -11.5h-896q-20 0 -32 11.5t-12 32.5v1372q0 21 12 32.5t32 11.5h353q20 0 32 -11.5t12 -32.5v-998h499q21 0 32.5 -12zM250 1548q-28 0 -41 28l-32 64q-11 22 -11 40q0 26 28 41l277 143q26 14 48 14
q29 0 43 -28l50 -93q8 -15 8 -34q0 -17 -8 -30t-25 -19l-289 -114q-31 -12 -48 -12z" />
    <glyph glyph-name="lacute" unicode="&#x13a;" horiz-adv-x="536" 
d="M455 1451q10 -10 10 -29v-1383q0 -19 -10 -29t-29 -10h-316q-19 0 -29 10t-10 29v1383q0 19 10 29t29 10h316q19 0 29 -10zM172 1546q-28 0 -41 28l-32 64q-11 22 -11 40q0 26 28 41l277 143q26 14 48 14q29 0 43 -28l50 -93q8 -15 8 -34q0 -17 -8 -30t-25 -19l-289 -114
q-31 -12 -48 -12z" />
    <glyph glyph-name="uni013B" unicode="&#x13b;" horiz-adv-x="1146" 
d="M1074.5 406q11.5 -12 11.5 -32v-330q0 -21 -11.5 -32.5t-32.5 -11.5h-896q-20 0 -32 11.5t-12 32.5v1372q0 21 12 32.5t32 11.5h353q20 0 32 -11.5t12 -32.5v-998h499q21 0 32.5 -12zM445.5 -137.5q21.5 36.5 58.5 58t81 21.5q53 0 95.5 -27t66 -72t23.5 -96
q0 -109 -37.5 -190.5t-117.5 -156.5q-15 -13 -29 -13q-15 0 -31 14l-50 43q-14 12 -14 27q0 16 17 35q38 42 51 60t13 32q0 9 -7.5 16.5t-20.5 11.5q-56 15 -88 56.5t-32 99.5q0 44 21.5 80.5z" />
    <glyph glyph-name="uni013C" unicode="&#x13c;" horiz-adv-x="536" 
d="M455 1451q10 -10 10 -29v-1383q0 -19 -10 -29t-29 -10h-316q-19 0 -29 10t-10 29v1383q0 19 10 29t29 10h316q19 0 29 -10zM108.5 -137.5q21.5 36.5 58.5 58t81 21.5q53 0 95.5 -27t66 -72t23.5 -96q0 -109 -37.5 -190.5t-117.5 -156.5q-15 -13 -29 -13q-15 0 -31 14
l-50 43q-14 12 -14 27q0 16 17 35q38 42 51 60t13 32q0 9 -7.5 16.5t-20.5 11.5q-56 15 -88 56.5t-32 99.5q0 44 21.5 80.5z" />
    <glyph glyph-name="Lcaron" unicode="&#x13d;" horiz-adv-x="1146" 
d="M1074.5 406q11.5 -12 11.5 -32v-330q0 -21 -11.5 -32.5t-32.5 -11.5h-896q-20 0 -32 11.5t-12 32.5v1372q0 21 12 32.5t32 11.5h353q20 0 32 -11.5t12 -32.5v-998h499q21 0 32.5 -12zM909.5 1039q-19.5 -14 -47.5 -14h-52q-28 0 -46 14.5t-18 37.5l1 313q0 33 15 53.5
t40 20.5h95q33 0 49.5 -20.5t13.5 -53.5l-29 -315q-2 -22 -21.5 -36z" />
    <glyph glyph-name="lcaron" unicode="&#x13e;" horiz-adv-x="536" 
d="M455 1451q10 -10 10 -29v-1383q0 -19 -10 -29t-29 -10h-316q-19 0 -29 10t-10 29v1383q0 19 10 29t29 10h316q19 0 29 -10zM667.5 1175q-19.5 -14 -47.5 -14h-52q-28 0 -46 14.5t-18 37.5l1 313q0 33 15 53.5t40 20.5h95q33 0 49.5 -20.5t13.5 -53.5l-29 -315
q-2 -22 -21.5 -36z" />
    <glyph glyph-name="Ldot" unicode="&#x13f;" horiz-adv-x="1146" 
d="M1074.5 406q11.5 -12 11.5 -32v-330q0 -21 -11.5 -32.5t-32.5 -11.5h-896q-20 0 -32 11.5t-12 32.5v1372q0 21 12 32.5t32 11.5h353q20 0 32 -11.5t12 -32.5v-998h499q21 0 32.5 -12zM700 708q-51 30 -81 81t-30 111q0 61 30 111.5t81 80.5t112 30q60 0 111 -30t80.5 -81
t29.5 -111t-30 -111t-80.5 -81t-110.5 -30q-61 0 -112 30z" />
    <glyph glyph-name="ldot" unicode="&#x140;" horiz-adv-x="855" 
d="M455 1451q10 -10 10 -29v-1383q0 -19 -10 -29t-29 -10h-316q-19 0 -29 10t-10 29v1383q0 19 10 29t29 10h316q19 0 29 -10zM597 548q-44 26 -70 70t-26 96q0 53 26 97t70 70t97 26q52 0 96 -26t70 -70t26 -97q0 -52 -26 -96t-70 -70t-96 -26q-53 0 -97 26z" />
    <glyph glyph-name="Lslash" unicode="&#x141;" horiz-adv-x="1146" 
d="M1074.5 406q11.5 -12 11.5 -32v-330q0 -21 -11.5 -32.5t-32.5 -11.5h-896q-20 0 -32 11.5t-12 32.5v705q-15 -2 -25.5 6t-14.5 24l-18 72q-2 10 -2 13q0 27 30 35l30 7v510q0 21 12 32.5t32 11.5h353q20 0 32 -11.5t12 -32.5v-399l14 3q4 1 11 1q29 0 36 -30l18 -73
q2 -10 2 -13q0 -26 -30 -34l-51 -13v-440h499q21 0 32.5 -12z" />
    <glyph glyph-name="lslash" unicode="&#x142;" horiz-adv-x="536" 
d="M570 721q0 -26 -30 -34l-75 -19v-629q0 -19 -10 -29t-29 -10h-316q-19 0 -29 10t-10 29v531l-16 -4q-8 -2 -12 -2q-13 0 -22 8t-13 23l-18 72q-2 10 -2 13q0 27 30 35l53 13v694q0 19 10 29t29 10h316q19 0 29 -10t10 -29v-595l38 9q4 1 11 1q29 0 36 -30l18 -73
q2 -10 2 -13z" />
    <glyph glyph-name="Nacute" unicode="&#x143;" horiz-adv-x="1552" 
d="M1438.5 1448q11.5 -12 11.5 -32v-1372q0 -21 -12 -32.5t-32 -11.5h-336q-28 0 -50.5 13.5t-38.5 39.5l-438 702v-711q0 -21 -12 -32.5t-32 -11.5h-353q-20 0 -32 11.5t-12 32.5v1372q0 21 12 32.5t32 11.5h365q51 0 87 -54l412 -645v655q0 21 11.5 32.5t32.5 11.5h352
q21 0 32.5 -12zM701 1548q-28 0 -41 28l-32 64q-11 22 -11 40q0 26 28 41l277 143q26 14 48 14q29 0 43 -28l50 -93q8 -15 8 -34q0 -17 -8 -30t-25 -19l-289 -114q-31 -12 -48 -12z" />
    <glyph glyph-name="nacute" unicode="&#x144;" horiz-adv-x="1053" 
d="M907.5 802q83.5 -108 83.5 -325v-434q0 -41 -41 -41h-312q-41 0 -41 41v437q0 25 -18.5 39.5t-42.5 14.5q-30 0 -50 -20t-20 -59v-412q0 -20 -10.5 -30.5t-30.5 -10.5h-313q-20 0 -30.5 10.5t-10.5 30.5v794q0 19 11.5 30.5t30.5 11.5h182q13 0 24.5 -6.5t19.5 -18.5
l45 -70q53 62 121 94t143 32q176 0 259.5 -108zM482 990q-22 0 -37 21l-42 58q-19 28 -19 46q0 20 21 37l248 189q30 23 54 23q21 0 38 -21l66 -83q15 -19 15 -42q0 -13 -6.5 -25t-18.5 -19l-265 -163q-32 -21 -54 -21z" />
    <glyph glyph-name="uni0145" unicode="&#x145;" horiz-adv-x="1552" 
d="M1438.5 1448q11.5 -12 11.5 -32v-1372q0 -21 -12 -32.5t-32 -11.5h-336q-28 0 -50.5 13.5t-38.5 39.5l-438 702v-711q0 -21 -12 -32.5t-32 -11.5h-353q-20 0 -32 11.5t-12 32.5v1372q0 21 12 32.5t32 11.5h365q51 0 87 -54l412 -645v655q0 21 11.5 32.5t32.5 11.5h352
q21 0 32.5 -12zM642.5 -137.5q21.5 36.5 58.5 58t81 21.5q53 0 95.5 -27t66 -72t23.5 -96q0 -109 -37.5 -190.5t-117.5 -156.5q-15 -13 -29 -13q-15 0 -31 14l-50 43q-14 12 -14 27q0 16 17 35q38 42 51 60t13 32q0 9 -7.5 16.5t-20.5 11.5q-56 15 -88 56.5t-32 99.5
q0 44 21.5 80.5z" />
    <glyph glyph-name="uni0146" unicode="&#x146;" horiz-adv-x="1053" 
d="M907.5 802q83.5 -108 83.5 -325v-434q0 -41 -41 -41h-312q-41 0 -41 41v437q0 25 -18.5 39.5t-42.5 14.5q-30 0 -50 -20t-20 -59v-412q0 -20 -10.5 -30.5t-30.5 -10.5h-313q-20 0 -30.5 10.5t-10.5 30.5v794q0 19 11.5 30.5t30.5 11.5h182q13 0 24.5 -6.5t19.5 -18.5
l45 -70q53 62 121 94t143 32q176 0 259.5 -108zM380.5 -136.5q21.5 36.5 58.5 58t81 21.5q53 0 95.5 -27t66 -72t23.5 -96q0 -109 -37.5 -190.5t-117.5 -156.5q-15 -13 -29 -13q-15 0 -31 14l-50 43q-14 12 -14 27q0 16 17 35q38 42 51 60t13 32q0 9 -7.5 16.5t-20.5 11.5
q-56 15 -88 56.5t-32 99.5q0 44 21.5 80.5z" />
    <glyph glyph-name="Ncaron" unicode="&#x147;" horiz-adv-x="1552" 
d="M1438.5 1448q11.5 -12 11.5 -32v-1372q0 -21 -12 -32.5t-32 -11.5h-336q-28 0 -50.5 13.5t-38.5 39.5l-438 702v-711q0 -21 -12 -32.5t-32 -11.5h-353q-20 0 -32 11.5t-12 32.5v1372q0 21 12 32.5t32 11.5h365q51 0 87 -54l412 -645v655q0 21 11.5 32.5t32.5 11.5h352
q21 0 32.5 -12zM527.5 1709q-7.5 5 -12 11.5t-4.5 13.5q0 12 11 27l49 65q13 17 33 17q19 0 38 -12l147 -94l148 94q18 11 37 11q22 0 35 -16l48 -63q8 -13 8 -23q0 -19 -19 -33l-228 -166q-15 -12 -30 -12q-11 0 -29 12l-221 161z" />
    <glyph glyph-name="ncaron" unicode="&#x148;" horiz-adv-x="1053" 
d="M907.5 802q83.5 -108 83.5 -325v-434q0 -41 -41 -41h-312q-41 0 -41 41v437q0 25 -18.5 39.5t-42.5 14.5q-30 0 -50 -20t-20 -59v-412q0 -20 -10.5 -30.5t-30.5 -10.5h-313q-20 0 -30.5 10.5t-10.5 30.5v794q0 19 11.5 30.5t30.5 11.5h182q13 0 24.5 -6.5t19.5 -18.5
l45 -70q53 62 121 94t143 32q176 0 259.5 -108zM228.5 1193.5q-8.5 6.5 -13.5 14t-5 16.5q0 15 12 32l52 78q13 20 36 20q19 0 40 -14l158 -113l159 113q18 13 39 13q23 0 38 -19l51 -75q9 -13 9 -28q0 -21 -20 -39l-245 -199q-16 -15 -32 -15q-7 0 -13.5 3.5t-17.5 11.5
l-237 193q-2 1 -10.5 7.5z" />
    <glyph glyph-name="napostrophe" unicode="&#x149;" horiz-adv-x="1053" 
d="M907.5 802q83.5 -108 83.5 -325v-434q0 -41 -41 -41h-312q-41 0 -41 41v437q0 25 -18.5 39.5t-42.5 14.5q-30 0 -50 -20t-20 -59v-412q0 -20 -10.5 -30.5t-30.5 -10.5h-313q-20 0 -30.5 10.5t-10.5 30.5v794q0 19 11.5 30.5t30.5 11.5h182q13 0 24.5 -6.5t19.5 -18.5
l45 -70q53 62 121 94t143 32q176 0 259.5 -108zM5 1371q19 33 52 52.5t73 19.5q48 0 86 -24.5t59.5 -65t21.5 -86.5q0 -98 -34 -171t-106 -141q-13 -11 -26 -11q-15 0 -28 12l-45 39q-12 11 -12 24q0 16 15 32q35 38 46.5 53.5t11.5 28.5q0 8 -7 15t-18 11q-51 13 -79.5 50
t-28.5 90q0 39 19 72z" />
    <glyph glyph-name="Eng" unicode="&#x14a;" horiz-adv-x="1552" 
d="M1438.5 1448q11.5 -12 11.5 -32v-1372v-8q-8 -223 -138.5 -335t-378.5 -112h-12q-20 0 -31.5 11.5t-11.5 31.5v270q0 21 11.5 32t31.5 11h10q49 0 75.5 14t33.5 46q-35 10 -59 48l-438 702v-711q0 -21 -12 -32.5t-32 -11.5h-353q-20 0 -32 11.5t-12 32.5v1372
q0 21 12 32.5t32 11.5h365q51 0 87 -54l412 -645v655q0 21 11.5 32.5t32.5 11.5h352q21 0 32.5 -12z" />
    <glyph glyph-name="eng" unicode="&#x14b;" horiz-adv-x="1053" 
d="M907.5 802q83.5 -108 83.5 -325v-479q0 -229 -126 -343.5t-373 -114.5h-12q-19 0 -30 10.5t-11 30.5v261q0 20 10.5 30.5t30.5 10.5h10q54 0 80.5 18.5t26.5 61.5v517q0 25 -18.5 39.5t-42.5 14.5q-30 0 -50 -20t-20 -59v-412q0 -20 -10.5 -30.5t-30.5 -10.5h-313
q-20 0 -30.5 10.5t-10.5 30.5v794q0 19 11.5 30.5t30.5 11.5h182q13 0 24.5 -6.5t19.5 -18.5l45 -70q53 62 121 94t143 32q176 0 259.5 -108z" />
    <glyph glyph-name="Omacron" unicode="&#x14c;" horiz-adv-x="1618" 
d="M147.5 1113.5q101.5 174.5 276.5 276t385 101.5t385 -101.5t276.5 -276t101.5 -385.5q0 -210 -101.5 -384.5t-276 -276t-385.5 -101.5t-385.5 101.5t-276 276t-101.5 384.5q0 211 101.5 385.5zM529 566.5q43 -73.5 117 -116.5t163 -43t163 43t117 116.5t43 161.5
q0 89 -43 163t-117 117t-163 43t-163 -43t-117 -117t-43 -163q0 -88 43 -161.5zM582 1749q0 14 9 23t23 9h389q14 0 22 -8t8 -22v-136q0 -14 -9.5 -22t-22.5 -8h-389q-10 0 -20 8t-10 22v134z" />
    <glyph glyph-name="omacron" unicode="&#x14d;" horiz-adv-x="1011" 
d="M87 674q65 109 176.5 172.5t243.5 63.5q131 0 242 -64t175.5 -173t64.5 -237t-65 -236t-176 -171.5t-241 -63.5q-132 0 -243.5 63t-176.5 171.5t-65 236.5q0 129 65 238zM433.5 366.5q29.5 -29.5 71.5 -29.5t71 29.5t29 71.5q0 43 -29 72t-71 29t-71.5 -29t-29.5 -72
q0 -42 29.5 -71.5zM281 1186q0 14 9 23t23 9h389q14 0 22 -8t8 -22v-136q0 -14 -9.5 -22t-22.5 -8h-389q-10 0 -20 8t-10 22v134z" />
    <glyph glyph-name="Obreve" unicode="&#x14e;" horiz-adv-x="1618" 
d="M147.5 1113.5q101.5 174.5 276.5 276t385 101.5t385 -101.5t276.5 -276t101.5 -385.5q0 -210 -101.5 -384.5t-276 -276t-385.5 -101.5t-385.5 101.5t-276 276t-101.5 384.5q0 211 101.5 385.5zM529 566.5q43 -73.5 117 -116.5t163 -43t163 43t117 116.5t43 161.5
q0 89 -43 163t-117 117t-163 43t-163 -43t-117 -117t-43 -163q0 -88 43 -161.5zM629 1625q-66 60 -66 165q0 22 12.5 35t34.5 13h80q26 0 41 -14.5t15 -40.5q0 -23 17.5 -36t48.5 -13q30 0 46.5 13t16.5 36q0 26 14 40.5t39 14.5h80q23 0 36 -12.5t13 -35.5q0 -105 -66 -165
t-181 -60t-181 60z" />
    <glyph glyph-name="obreve" unicode="&#x14f;" horiz-adv-x="1011" 
d="M87 674q65 109 176.5 172.5t243.5 63.5q131 0 242 -64t175.5 -173t64.5 -237t-65 -236t-176 -171.5t-241 -63.5q-132 0 -243.5 63t-176.5 171.5t-65 236.5q0 129 65 238zM433.5 366.5q29.5 -29.5 71.5 -29.5t71 29.5t29 71.5q0 43 -29 72t-71 29t-71.5 -29t-29.5 -72
q0 -42 29.5 -71.5zM350 1052q-66 32 -101.5 92.5t-35.5 142.5q0 27 15 42t41 15h95q31 0 48.5 -17.5t17.5 -47.5q0 -27 21 -43t58 -16q35 0 54.5 16t19.5 43q0 30 17 47.5t46 17.5h95q28 0 43 -15t15 -42q0 -125 -78 -196t-215 -71q-90 0 -156 32z" />
    <glyph glyph-name="Ohungarumlaut" unicode="&#x150;" horiz-adv-x="1618" 
d="M147.5 1113.5q101.5 174.5 276.5 276t385 101.5t385 -101.5t276.5 -276t101.5 -385.5q0 -210 -101.5 -384.5t-276 -276t-385.5 -101.5t-385.5 101.5t-276 276t-101.5 384.5q0 211 101.5 385.5zM529 566.5q43 -73.5 117 -116.5t163 -43t163 43t117 116.5t43 161.5
q0 89 -43 163t-117 117t-163 43t-163 -43t-117 -117t-43 -163q0 -88 43 -161.5zM584 1565q-22 0 -37 21l-42 58q-19 28 -19 46q0 20 21 37l248 189q30 23 54 23q21 0 38 -21l66 -83q15 -19 15 -42q0 -13 -6.5 -25t-18.5 -19l-265 -163q-32 -21 -54 -21zM992 1561
q-22 0 -37 21l-42 58q-19 28 -19 46q0 20 21 37l248 189q30 23 54 23q21 0 38 -21l66 -83q15 -19 15 -42q0 -13 -6.5 -25t-18.5 -19l-265 -163q-32 -21 -54 -21z" />
    <glyph glyph-name="ohungarumlaut" unicode="&#x151;" horiz-adv-x="1011" 
d="M87 674q65 109 176.5 172.5t243.5 63.5q131 0 242 -64t175.5 -173t64.5 -237t-65 -236t-176 -171.5t-241 -63.5q-132 0 -243.5 63t-176.5 171.5t-65 236.5q0 129 65 238zM433.5 366.5q29.5 -29.5 71.5 -29.5t71 29.5t29 71.5q0 43 -29 72t-71 29t-71.5 -29t-29.5 -72
q0 -42 29.5 -71.5zM406.5 1033q-14.5 -10 -44.5 -10h-79q-21 0 -34 11.5t-13 29.5q0 12 6 25l130 276q13 29 30.5 41t47.5 12h115q19 0 32.5 -14t13.5 -33q0 -13 -8 -27l-163 -270q-19 -31 -33.5 -41zM785 1038.5q-10 -10.5 -21 -13t-34 -2.5h-78q-21 0 -34 11.5t-13 29.5
q0 12 6 25l130 276q13 29 30.5 41t46.5 12h115q19 0 33 -14t14 -33q0 -13 -8 -27l-163 -271q-14 -24 -24 -34.5z" />
    <glyph glyph-name="OE" unicode="&#x152;" horiz-adv-x="2309" 
d="M2205 395q23 -22 23 -59v-275q0 -28 -17 -44.5t-45 -16.5h-970q-22 0 -37.5 10t-20.5 28q-155 -72 -329 -72q-211 0 -385.5 101.5t-276 276t-101.5 384.5q0 211 101.5 385.5t276.5 276t385 101.5q172 0 328 -71q5 20 20.5 30.5t38.5 10.5h951q29 0 45.5 -17t16.5 -46
v-292q0 -29 -16.5 -46t-45.5 -17h-572v-154h416q32 0 50 -17t18 -47v-199q0 -29 -18 -46t-50 -17h-416v-146h567q40 0 63 -22zM972 450q74 43 117 116.5t43 161.5q0 89 -43 163t-117 117t-163 43t-163 -43t-117 -117t-43 -163q0 -88 43 -161.5t117 -116.5t163 -43t163 43z
" />
    <glyph glyph-name="oe" unicode="&#x153;" horiz-adv-x="1569" 
d="M1520 398.5q-27 -40.5 -85 -44.5h-4h-449l-5 -22q16 -32 51 -51t80 -19q81 0 135 35q12 8 25 8q18 0 34 -21q28 -43 110 -158q10 -14 10 -28q0 -17 -18 -31q-63 -49 -142 -75.5t-163 -26.5q-83 0 -159 26t-139 73q-63 -47 -138 -73t-156 -26q-132 0 -243.5 63
t-176.5 171.5t-65 236.5q0 129 65 238t176.5 172.5t243.5 63.5q82 0 156.5 -25.5t136.5 -72.5q62 47 137.5 72.5t158.5 25.5q132 0 234.5 -52.5t159.5 -146t57 -210.5q0 -62 -27 -102.5zM1023 583.5q-29 -19.5 -44 -51.5q2 -6 4 -22h219q-8 41 -39.5 67t-75.5 26
q-35 0 -64 -19.5zM576 366.5q29 29.5 29 71.5q0 43 -29 72t-71 29t-71.5 -29t-29.5 -72q0 -42 29.5 -71.5t71.5 -29.5t71 29.5z" />
    <glyph glyph-name="Racute" unicode="&#x154;" horiz-adv-x="1321" 
d="M1287 45q0 -19 -13 -32t-33 -13h-359q-26 0 -40 10t-31 42l-199 386h-69v-377q0 -28 -17.5 -44.5t-47.5 -16.5h-315q-29 0 -45 16t-16 45v1338q0 27 17 44.5t44 17.5h82h235h221q158 0 280 -63t190 -180.5t68 -274.5q0 -129 -55.5 -235.5t-155.5 -174.5l253 -463
q6 -12 6 -25zM763 1039q-36 36 -92 36h-128v-280h128q36 0 65.5 21t46 55.5t16.5 73.5q0 58 -36 94zM488 1547q-28 0 -41 28l-32 64q-11 22 -11 40q0 26 28 41l277 143q26 14 48 14q29 0 43 -28l50 -93q8 -15 8 -34q0 -17 -8 -30t-25 -19l-289 -114q-31 -12 -48 -12z" />
    <glyph glyph-name="racute" unicode="&#x155;" horiz-adv-x="876" 
d="M877 792q0 -16 -10 -30l-141 -222q-10 -18 -34 -18q-11 0 -15 4l-4 4q-19 19 -47 27.5t-51 8.5q-48 0 -78.5 -31.5t-30.5 -76.5v-415q0 -20 -10.5 -30.5t-30.5 -10.5h-313q-20 0 -30.5 10.5t-10.5 30.5v794q0 19 11.5 30.5t30.5 11.5h182q13 0 24.5 -6.5t19.5 -18.5
l52 -80q51 63 117 99.5t130 36.5q71 0 132.5 -23.5t96.5 -69.5q10 -9 10 -25zM446 990q-22 0 -37 21l-42 58q-19 28 -19 46q0 20 21 37l248 189q30 23 54 23q21 0 38 -21l66 -83q15 -19 15 -42q0 -13 -6.5 -25t-18.5 -19l-265 -163q-32 -21 -54 -21z" />
    <glyph glyph-name="uni0156" unicode="&#x156;" horiz-adv-x="1321" 
d="M1287 45q0 -19 -13 -32t-33 -13h-359q-26 0 -40 10t-31 42l-199 386h-69v-377q0 -28 -17.5 -44.5t-47.5 -16.5h-315q-29 0 -45 16t-16 45v1338q0 27 17 44.5t44 17.5h82h235h221q158 0 280 -63t190 -180.5t68 -274.5q0 -129 -55.5 -235.5t-155.5 -174.5l253 -463
q6 -12 6 -25zM763 1039q-36 36 -92 36h-128v-280h128q36 0 65.5 21t46 55.5t16.5 73.5q0 58 -36 94zM553.5 -138.5q21.5 36.5 58.5 58t81 21.5q53 0 95.5 -27t66 -72t23.5 -96q0 -109 -37.5 -190.5t-117.5 -156.5q-15 -13 -29 -13q-15 0 -31 14l-50 43q-14 12 -14 27
q0 16 17 35q38 42 51 60t13 32q0 9 -7.5 16.5t-20.5 11.5q-56 15 -88 56.5t-32 99.5q0 44 21.5 80.5z" />
    <glyph glyph-name="uni0157" unicode="&#x157;" horiz-adv-x="876" 
d="M877 792q0 -16 -10 -30l-141 -222q-10 -18 -34 -18q-11 0 -15 4l-4 4q-19 19 -47 27.5t-51 8.5q-48 0 -78.5 -31.5t-30.5 -76.5v-415q0 -20 -10.5 -30.5t-30.5 -10.5h-313q-20 0 -30.5 10.5t-10.5 30.5v794q0 19 11.5 30.5t30.5 11.5h182q13 0 24.5 -6.5t19.5 -18.5
l52 -80q51 63 117 99.5t130 36.5q71 0 132.5 -23.5t96.5 -69.5q10 -9 10 -25zM121.5 -137.5q21.5 36.5 58.5 58t81 21.5q53 0 95.5 -27t66 -72t23.5 -96q0 -109 -37.5 -190.5t-117.5 -156.5q-15 -13 -29 -13q-15 0 -31 14l-50 43q-14 12 -14 27q0 16 17 35q38 42 51 60
t13 32q0 9 -7.5 16.5t-20.5 11.5q-56 15 -88 56.5t-32 99.5q0 44 21.5 80.5z" />
    <glyph glyph-name="Rcaron" unicode="&#x158;" horiz-adv-x="1321" 
d="M1287 45q0 -19 -13 -32t-33 -13h-359q-26 0 -40 10t-31 42l-199 386h-69v-377q0 -28 -17.5 -44.5t-47.5 -16.5h-315q-29 0 -45 16t-16 45v1338q0 27 17 44.5t44 17.5h82h235h221q158 0 280 -63t190 -180.5t68 -274.5q0 -129 -55.5 -235.5t-155.5 -174.5l253 -463
q6 -12 6 -25zM763 1039q-36 36 -92 36h-128v-280h128q36 0 65.5 21t46 55.5t16.5 73.5q0 58 -36 94zM314.5 1708q-7.5 5 -12 11.5t-4.5 13.5q0 12 11 27l49 65q13 17 33 17q19 0 38 -12l147 -94l148 94q18 11 37 11q22 0 35 -16l48 -63q8 -13 8 -23q0 -19 -19 -33l-228 -166
q-15 -12 -30 -12q-11 0 -29 12l-221 161z" />
    <glyph glyph-name="rcaron" unicode="&#x159;" horiz-adv-x="876" 
d="M877 792q0 -16 -10 -30l-141 -222q-10 -18 -34 -18q-11 0 -15 4l-4 4q-19 19 -47 27.5t-51 8.5q-48 0 -78.5 -31.5t-30.5 -76.5v-415q0 -20 -10.5 -30.5t-30.5 -10.5h-313q-20 0 -30.5 10.5t-10.5 30.5v794q0 19 11.5 30.5t30.5 11.5h182q13 0 24.5 -6.5t19.5 -18.5
l52 -80q51 63 117 99.5t130 36.5q71 0 132.5 -23.5t96.5 -69.5q10 -9 10 -25zM192.5 1193.5q-8.5 6.5 -13.5 14t-5 16.5q0 15 12 32l52 78q13 20 36 20q19 0 40 -14l158 -113l159 113q18 13 39 13q23 0 38 -19l51 -75q9 -13 9 -28q0 -21 -20 -39l-245 -199q-16 -15 -32 -15
q-7 0 -13.5 3.5t-17.5 11.5l-237 193q-2 1 -10.5 7.5z" />
    <glyph glyph-name="Sacute" unicode="&#x15a;" horiz-adv-x="1261" 
d="M63 140q0 21 12 43l131 270q8 16 22 24.5t32 8.5q13 0 34 -7q115 -41 204 -59t192 -18q35 0 55 15.5t20 37.5t-16.5 37.5t-61.5 32.5t-139 45q-165 49 -260.5 106t-139.5 138.5t-44 205.5q0 150 81 256t209 159.5t266 53.5q140 0 271.5 -47.5t208.5 -94.5q39 -26 39 -55
q0 -18 -14 -46l-131 -277q-13 -28 -43 -28q-25 0 -59 17q-85 41 -159.5 66t-162.5 25q-35 0 -54.5 -15.5t-19.5 -37.5q0 -51 239 -122q151 -44 241.5 -87t148 -125t57.5 -219q0 -145 -72.5 -254t-199 -168t-282.5 -59q-146 0 -311.5 35.5t-266.5 97.5q-27 17 -27 45z
M557 1574q-28 0 -41 28l-32 64q-11 22 -11 40q0 26 28 41l277 143q26 14 48 14q29 0 43 -28l50 -93q8 -15 8 -34q0 -17 -8 -30t-25 -19l-289 -114q-31 -12 -48 -12z" />
    <glyph glyph-name="sacute" unicode="&#x15b;" horiz-adv-x="874" 
d="M436 591.5q-9 -7.5 -9 -21.5q0 -23 62 -41q132 -34 205.5 -65t115 -81.5t41.5 -133.5q0 -86 -51 -150t-146.5 -98.5t-226.5 -34.5q-113 0 -221.5 28t-171.5 76q-25 18 -25 43q0 19 13 38l118 183q13 19 42 19q24 0 51 -12q59 -26 113 -41.5t82 -15.5q17 0 25.5 5t8.5 17
q0 15 -18.5 27t-69.5 26q-108 30 -171.5 59t-100.5 80.5t-37 137.5q0 78 43 141.5t130 101t213 37.5q91 0 186 -25.5t158 -70.5q22 -16 32 -27.5t10 -24.5q0 -17 -18 -44l-96 -145q-16 -27 -52 -27q-21 0 -40 8q-45 19 -89.5 29t-79.5 10q-17 0 -26 -7.5zM403 1003
q-22 0 -37 21l-42 58q-19 28 -19 46q0 20 21 37l248 189q30 23 54 23q21 0 38 -21l66 -83q15 -19 15 -42q0 -13 -6.5 -25t-18.5 -19l-265 -163q-32 -21 -54 -21z" />
    <glyph glyph-name="Scircumflex" unicode="&#x15c;" horiz-adv-x="1261" 
d="M63 140q0 21 12 43l131 270q8 16 22 24.5t32 8.5q13 0 34 -7q115 -41 204 -59t192 -18q35 0 55 15.5t20 37.5t-16.5 37.5t-61.5 32.5t-139 45q-165 49 -260.5 106t-139.5 138.5t-44 205.5q0 150 81 256t209 159.5t266 53.5q140 0 271.5 -47.5t208.5 -94.5q39 -26 39 -55
q0 -18 -14 -46l-131 -277q-13 -28 -43 -28q-25 0 -59 17q-85 41 -159.5 66t-162.5 25q-35 0 -54.5 -15.5t-19.5 -37.5q0 -51 239 -122q151 -44 241.5 -87t148 -125t57.5 -219q0 -145 -72.5 -254t-199 -168t-282.5 -59q-146 0 -311.5 35.5t-266.5 97.5q-27 17 -27 45z
M615 1867q18 12 29 12q15 0 30 -12l228 -166q19 -14 19 -33q0 -10 -8 -23l-48 -63q-13 -16 -35 -16q-19 0 -37 11l-148 94l-147 -94q-19 -12 -38 -12q-20 0 -33 17l-49 65q-11 15 -11 27q0 9 5.5 15t12 10.5t9.5 6.5z" />
    <glyph glyph-name="scircumflex" unicode="&#x15d;" horiz-adv-x="874" 
d="M436 591.5q-9 -7.5 -9 -21.5q0 -23 62 -41q132 -34 205.5 -65t115 -81.5t41.5 -133.5q0 -86 -51 -150t-146.5 -98.5t-226.5 -34.5q-113 0 -221.5 28t-171.5 76q-25 18 -25 43q0 19 13 38l118 183q13 19 42 19q24 0 51 -12q59 -26 113 -41.5t82 -15.5q17 0 25.5 5t8.5 17
q0 15 -18.5 27t-69.5 26q-108 30 -171.5 59t-100.5 80.5t-37 137.5q0 78 43 141.5t130 101t213 37.5q91 0 186 -25.5t158 -70.5q22 -16 32 -27.5t10 -24.5q0 -17 -18 -44l-96 -145q-16 -27 -52 -27q-21 0 -40 8q-45 19 -89.5 29t-79.5 10q-17 0 -26 -7.5zM397 1353
q11 8 17.5 11.5t13.5 3.5q16 0 32 -15l245 -199q20 -18 20 -39q0 -14 -9 -28l-51 -75q-15 -19 -38 -19q-21 0 -39 13l-159 113l-158 -113q-21 -14 -40 -14q-23 0 -36 20l-52 78q-12 17 -12 32q0 11 6.5 18.5t13.5 13t9 6.5z" />
    <glyph glyph-name="Scedilla" unicode="&#x15e;" horiz-adv-x="1261" 
d="M1160 206.5q-62 -103.5 -171.5 -165.5t-248.5 -76l-9 -73q44 0 68 -30.5t24 -86.5q0 -10 -2 -34l-6 -52q-12 -99 -78.5 -155.5t-170.5 -56.5h-114q-9 0 -13 6.5t-3 18.5l19 151q2 18 21 18h114q12 0 19.5 5t8.5 14l6 51l1 5q0 7 -6 11.5t-16 4.5h-65q-18 0 -16 17l23 189
q-129 12 -252 45t-203 82q-27 17 -27 45q0 21 12 43l131 270q8 16 22 24.5t32 8.5q13 0 34 -7q115 -41 204 -59t192 -18q35 0 55 15.5t20 37.5t-16.5 37.5t-61.5 32.5t-139 45q-165 49 -260.5 106t-139.5 138.5t-44 205.5q0 150 81 256t209 159.5t266 53.5
q140 0 271.5 -47.5t208.5 -94.5q39 -26 39 -55q0 -18 -14 -46l-131 -277q-13 -28 -43 -28q-25 0 -59 17q-85 41 -159.5 66t-162.5 25q-35 0 -54.5 -15.5t-19.5 -37.5q0 -51 239 -122q151 -44 241.5 -87t148 -125t57.5 -219q0 -133 -62 -236.5z" />
    <glyph glyph-name="scedilla" unicode="&#x15f;" horiz-adv-x="874" 
d="M765.5 63q-85.5 -73 -238.5 -91l-12 -92q44 0 68 -30.5t24 -86.5q0 -10 -2 -34l-6 -52q-12 -99 -78.5 -155.5t-170.5 -56.5h-114q-9 0 -13 6.5t-3 18.5l19 151q2 18 21 18h114q12 0 19.5 5t8.5 14l6 51l1 5q0 7 -6 11.5t-16 4.5h-65q-18 0 -16 17l25 204q-90 10 -169 36
t-128 63q-25 18 -25 43q0 19 13 38l118 183q13 19 42 19q24 0 51 -12q59 -26 113 -41.5t82 -15.5q17 0 25.5 5t8.5 17q0 15 -18.5 27t-69.5 26q-108 30 -171.5 59t-100.5 80.5t-37 137.5q0 78 43 141.5t130 101t213 37.5q91 0 186 -25.5t158 -70.5q22 -16 32 -27.5t10 -24.5
q0 -17 -18 -44l-96 -145q-16 -27 -52 -27q-21 0 -40 8q-45 19 -89.5 29t-79.5 10q-17 0 -26 -7.5t-9 -21.5q0 -23 62 -41q132 -34 205.5 -65t115 -81.5t41.5 -133.5q0 -113 -85.5 -186z" />
    <glyph glyph-name="Scaron" unicode="&#x160;" horiz-adv-x="1261" 
d="M63 140q0 21 12 43l131 270q8 16 22 24.5t32 8.5q13 0 34 -7q115 -41 204 -59t192 -18q35 0 55 15.5t20 37.5t-16.5 37.5t-61.5 32.5t-139 45q-165 49 -260.5 106t-139.5 138.5t-44 205.5q0 150 81 256t209 159.5t266 53.5q140 0 271.5 -47.5t208.5 -94.5q39 -26 39 -55
q0 -18 -14 -46l-131 -277q-13 -28 -43 -28q-25 0 -59 17q-85 41 -159.5 66t-162.5 25q-35 0 -54.5 -15.5t-19.5 -37.5q0 -51 239 -122q151 -44 241.5 -87t148 -125t57.5 -219q0 -145 -72.5 -254t-199 -168t-282.5 -59q-146 0 -311.5 35.5t-266.5 97.5q-27 17 -27 45z
M383.5 1735q-7.5 5 -12 11.5t-4.5 13.5q0 12 11 27l49 65q13 17 33 17q19 0 38 -12l147 -94l148 94q18 11 37 11q22 0 35 -16l48 -63q8 -13 8 -23q0 -19 -19 -33l-228 -166q-15 -12 -30 -12q-11 0 -29 12l-221 161z" />
    <glyph glyph-name="scaron" unicode="&#x161;" horiz-adv-x="874" 
d="M436 591.5q-9 -7.5 -9 -21.5q0 -23 62 -41q132 -34 205.5 -65t115 -81.5t41.5 -133.5q0 -86 -51 -150t-146.5 -98.5t-226.5 -34.5q-113 0 -221.5 28t-171.5 76q-25 18 -25 43q0 19 13 38l118 183q13 19 42 19q24 0 51 -12q59 -26 113 -41.5t82 -15.5q17 0 25.5 5t8.5 17
q0 15 -18.5 27t-69.5 26q-108 30 -171.5 59t-100.5 80.5t-37 137.5q0 78 43 141.5t130 101t213 37.5q91 0 186 -25.5t158 -70.5q22 -16 32 -27.5t10 -24.5q0 -17 -18 -44l-96 -145q-16 -27 -52 -27q-21 0 -40 8q-45 19 -89.5 29t-79.5 10q-17 0 -26 -7.5zM149.5 1206.5
q-8.5 6.5 -13.5 14t-5 16.5q0 15 12 32l52 78q13 20 36 20q19 0 40 -14l158 -113l159 113q18 13 39 13q23 0 38 -19l51 -75q9 -13 9 -28q0 -21 -20 -39l-245 -199q-16 -15 -32 -15q-7 0 -13.5 3.5t-17.5 11.5l-237 193q-2 1 -10.5 7.5z" />
    <glyph glyph-name="uni0162" unicode="&#x162;" horiz-adv-x="1205" 
d="M1141.5 1444q16.5 -17 16.5 -46v-293q0 -29 -16.5 -46t-44.5 -17h-276v-996q0 -29 -16 -45t-46 -16h-56l-12 -91q44 0 68 -30.5t24 -86.5q0 -10 -2 -34l-6 -52q-12 -99 -78.5 -155.5t-170.5 -56.5h-114q-9 0 -13 6.5t-3 18.5l19 151q2 18 21 18h114q12 0 19.5 5t8.5 14
l6 51l1 5q0 7 -6 11.5t-16 4.5h-65q-18 0 -16 17l25 204h-64q-29 0 -45.5 16t-16.5 45v996h-272q-29 0 -45.5 16.5t-16.5 46.5v293q0 30 16.5 46.5t45.5 16.5h988q28 0 44.5 -17z" />
    <glyph glyph-name="uni0163" unicode="&#x163;" horiz-adv-x="724" 
d="M693 867.5q10 -10.5 10 -28.5v-256q0 -19 -10 -29t-28 -10h-139v-505q0 -19 -10 -29t-29 -10h-64l-12 -91q44 0 68 -30.5t24 -86.5q0 -10 -2 -34l-6 -52q-12 -99 -78.5 -155.5t-170.5 -56.5h-114q-9 0 -13 6.5t-3 18.5l19 151q2 18 21 18h114q12 0 19.5 5t8.5 14l6 51
l1 5q0 7 -6 11.5t-16 4.5h-65q-18 0 -16 17l25 204h-56q-19 0 -29 10t-10 29v505h-80q-18 0 -28.5 10t-10.5 29v256q0 18 10.5 28.5t28.5 10.5h79v153q0 35 33 47l314 124q8 4 18 4q14 0 21.5 -10t7.5 -27v-291h140q18 0 28 -10.5z" />
    <glyph glyph-name="Tcaron" unicode="&#x164;" horiz-adv-x="1205" 
d="M47 1398q0 30 16.5 46.5t45.5 16.5h988q28 0 44.5 -17t16.5 -46v-293q0 -29 -16.5 -46t-44.5 -17h-276v-996q0 -29 -16 -45t-46 -16h-316q-29 0 -45.5 16t-16.5 45v996h-272q-29 0 -45.5 16.5t-16.5 46.5v293zM344.5 1706q-7.5 5 -12 11.5t-4.5 13.5q0 12 11 27l49 65
q13 17 33 17q19 0 38 -12l147 -94l148 94q18 11 37 11q22 0 35 -16l48 -63q8 -13 8 -23q0 -19 -19 -33l-228 -166q-15 -12 -30 -12q-11 0 -29 12l-221 161z" />
    <glyph glyph-name="tcaron" unicode="&#x165;" horiz-adv-x="724" 
d="M13 839q0 18 10.5 28.5t28.5 10.5h79v153q0 35 33 47l314 124q8 4 18 4q14 0 21.5 -10t7.5 -27v-291h140q18 0 28 -10.5t10 -28.5v-256q0 -19 -10 -29t-28 -10h-139v-505q0 -19 -10 -29t-29 -10h-316q-19 0 -29 10t-10 29v505h-80q-18 0 -28.5 10t-10.5 29v256z
M716.5 914q-19.5 -14 -47.5 -14h-52q-28 0 -46 14.5t-18 37.5l1 313q0 33 15 53.5t40 20.5h95q33 0 49.5 -20.5t13.5 -53.5l-29 -315q-2 -22 -21.5 -36z" />
    <glyph glyph-name="Tbar" unicode="&#x166;" horiz-adv-x="1205" 
d="M1141.5 1444q16.5 -17 16.5 -46v-293q0 -29 -16.5 -46t-44.5 -17h-276v-294h68q18 0 28 -10t10 -29v-75q0 -19 -10 -29t-28 -10h-68v-549q0 -29 -16 -45t-46 -16h-316q-29 0 -45.5 16t-16.5 45v549h-60q-18 0 -28.5 10t-10.5 29v75q0 19 10.5 29t28.5 10h60v294h-272
q-29 0 -45.5 16.5t-16.5 46.5v293q0 30 16.5 46.5t45.5 16.5h988q28 0 44.5 -17z" />
    <glyph glyph-name="tbar" unicode="&#x167;" horiz-adv-x="724" 
d="M693 867.5q10 -10.5 10 -28.5v-256q0 -19 -10 -29t-28 -10h-139v-135h122q18 0 28 -10t10 -29v-75q0 -19 -10 -29t-28 -10h-122v-217q0 -19 -10 -29t-29 -10h-316q-19 0 -29 10t-10 29v217h-65q-18 0 -28.5 10t-10.5 29v75q0 19 10.5 29t28.5 10h65v135h-80
q-18 0 -28.5 10t-10.5 29v256q0 18 10.5 28.5t28.5 10.5h79v153q0 35 33 47l314 124q8 4 18 4q14 0 21.5 -10t7.5 -27v-291h140q18 0 28 -10.5z" />
    <glyph glyph-name="Utilde" unicode="&#x168;" horiz-adv-x="1376" 
d="M511 613q0 -103 38 -160t139 -57t139 57t38 160v800q0 21 13 34t34 13h342q23 0 37 -13t14 -34v-795q0 -318 -158 -485t-459 -167q-314 0 -465.5 164.5t-151.5 486.5v796q0 21 11 34t30 13h355q20 0 32 -13t12 -34v-800zM443 1632q0 18 19 45q30 39 64 57.5t78 18.5
q19 0 43.5 -10.5t62.5 -33.5q34 -19 51 -19q21 0 39 27q16 21 32 21q14 0 29 -17l57 -61q11 -11 11 -24q0 -9 -7 -19q-32 -52 -70.5 -76.5t-89.5 -24.5q-33 0 -101 40q-31 21 -56 21q-23 0 -49 -35q-8 -11 -18 -11q-15 0 -39 24l-39 42q-17 17 -17 35z" />
    <glyph glyph-name="utilde" unicode="&#x169;" horiz-adv-x="1053" 
d="M971.5 865.5q10.5 -10.5 10.5 -30.5v-794q0 -19 -11.5 -30.5t-30.5 -11.5h-182q-13 0 -24.5 6.5t-19.5 18.5l-45 70q-53 -62 -121 -94t-143 -32q-176 0 -259.5 108t-83.5 325v434q0 41 41 41h312q41 0 41 -41v-437q0 -25 18.5 -39.5t42.5 -14.5q30 0 50 20t20 59v412
q0 20 10.5 30.5t30.5 10.5h313q20 0 30.5 -10.5zM230 1170q0 21 23 50q34 42 74.5 62.5t92.5 20.5q23 0 52 -11.5t73 -36.5q40 -21 61 -21q12 0 22.5 6.5t23.5 23.5q20 23 37 23q16 0 35 -19l67 -67q13 -13 13 -26q0 -10 -8 -21q-38 -57 -83.5 -84t-105.5 -27q-41 0 -120 44
q-36 23 -66 23q-27 0 -57 -39q-8 -11 -22 -11q-19 0 -46 26l-46 46q-20 18 -20 38z" />
    <glyph glyph-name="Umacron" unicode="&#x16a;" horiz-adv-x="1376" 
d="M511 613q0 -103 38 -160t139 -57t139 57t38 160v800q0 21 13 34t34 13h342q23 0 37 -13t14 -34v-795q0 -318 -158 -485t-459 -167q-314 0 -465.5 164.5t-151.5 486.5v796q0 21 11 34t30 13h355q20 0 32 -13t12 -34v-800zM460 1719q0 14 9 23t23 9h389q14 0 22 -8t8 -22
v-136q0 -14 -9.5 -22t-22.5 -8h-389q-10 0 -20 8t-10 22v134z" />
    <glyph glyph-name="umacron" unicode="&#x16b;" horiz-adv-x="1053" 
d="M971.5 865.5q10.5 -10.5 10.5 -30.5v-794q0 -19 -11.5 -30.5t-30.5 -11.5h-182q-13 0 -24.5 6.5t-19.5 18.5l-45 70q-53 -62 -121 -94t-143 -32q-176 0 -259.5 108t-83.5 325v434q0 41 41 41h312q41 0 41 -41v-437q0 -25 18.5 -39.5t42.5 -14.5q30 0 50 20t20 59v412
q0 20 10.5 30.5t30.5 10.5h313q20 0 30.5 -10.5zM290 1174q0 14 9 23t23 9h389q14 0 22 -8t8 -22v-136q0 -14 -9.5 -22t-22.5 -8h-389q-10 0 -20 8t-10 22v134z" />
    <glyph glyph-name="Ubreve" unicode="&#x16c;" horiz-adv-x="1376" 
d="M511 613q0 -103 38 -160t139 -57t139 57t38 160v800q0 21 13 34t34 13h342q23 0 37 -13t14 -34v-795q0 -318 -158 -485t-459 -167q-314 0 -465.5 164.5t-151.5 486.5v796q0 21 11 34t30 13h355q20 0 32 -13t12 -34v-800zM507 1595q-66 60 -66 165q0 22 12.5 35t34.5 13
h80q26 0 41 -14.5t15 -40.5q0 -23 17.5 -36t48.5 -13q30 0 46.5 13t16.5 36q0 26 14 40.5t39 14.5h80q23 0 36 -12.5t13 -35.5q0 -105 -66 -165t-181 -60t-181 60z" />
    <glyph glyph-name="ubreve" unicode="&#x16d;" horiz-adv-x="1053" 
d="M971.5 865.5q10.5 -10.5 10.5 -30.5v-794q0 -19 -11.5 -30.5t-30.5 -11.5h-182q-13 0 -24.5 6.5t-19.5 18.5l-45 70q-53 -62 -121 -94t-143 -32q-176 0 -259.5 108t-83.5 325v434q0 41 41 41h312q41 0 41 -41v-437q0 -25 18.5 -39.5t42.5 -14.5q30 0 50 20t20 59v412
q0 20 10.5 30.5t30.5 10.5h313q20 0 30.5 -10.5zM359 1040q-66 32 -101.5 92.5t-35.5 142.5q0 27 15 42t41 15h95q31 0 48.5 -17.5t17.5 -47.5q0 -27 21 -43t58 -16q35 0 54.5 16t19.5 43q0 30 17 47.5t46 17.5h95q28 0 43 -15t15 -42q0 -125 -78 -196t-215 -71
q-90 0 -156 32z" />
    <glyph glyph-name="Uring" unicode="&#x16e;" horiz-adv-x="1376" 
d="M511 613q0 -103 38 -160t139 -57t139 57t38 160v800q0 21 13 34t34 13h342q23 0 37 -13t14 -34v-795q0 -318 -158 -485t-459 -167q-314 0 -465.5 164.5t-151.5 486.5v796q0 21 11 34t30 13h355q20 0 32 -13t12 -34v-800zM797 1942q50 -29 79.5 -78.5t29.5 -109.5
t-29.5 -109.5t-79.5 -78t-111 -28.5q-60 0 -109.5 28.5t-78.5 78t-29 109.5t29 109.5t78.5 78.5t109.5 29q61 0 111 -29zM634.5 1806q-21.5 -21 -21.5 -52t21.5 -52.5t52.5 -21.5t53 21.5t22 52.5t-21.5 52t-53.5 21q-31 0 -52.5 -21z" />
    <glyph glyph-name="uring" unicode="&#x16f;" horiz-adv-x="1053" 
d="M971.5 865.5q10.5 -10.5 10.5 -30.5v-794q0 -19 -11.5 -30.5t-30.5 -11.5h-182q-13 0 -24.5 6.5t-19.5 18.5l-45 70q-53 -62 -121 -94t-143 -32q-176 0 -259.5 108t-83.5 325v434q0 41 41 41h312q41 0 41 -41v-437q0 -25 18.5 -39.5t42.5 -14.5q30 0 50 20t20 59v412
q0 20 10.5 30.5t30.5 10.5h313q20 0 30.5 -10.5zM648.5 1409q60.5 -35 96 -95t35.5 -132t-35.5 -132t-96 -94.5t-133.5 -34.5q-72 0 -132 34.5t-95 94.5t-35 132t35 132t95 95t132 35q73 0 133.5 -35zM452 1245.5q-26 -25.5 -26 -62.5t26 -63.5t64 -26.5t64 26t26 63
q0 38 -26 63.5t-64 25.5t-64 -25.5z" />
    <glyph glyph-name="Uhungarumlaut" unicode="&#x170;" horiz-adv-x="1376" 
d="M511 613q0 -103 38 -160t139 -57t139 57t38 160v800q0 21 13 34t34 13h342q23 0 37 -13t14 -34v-795q0 -318 -158 -485t-459 -167q-314 0 -465.5 164.5t-151.5 486.5v796q0 21 11 34t30 13h355q20 0 32 -13t12 -34v-800zM462 1535q-22 0 -37 21l-42 58q-19 28 -19 46
q0 20 21 37l248 189q30 23 54 23q21 0 38 -21l66 -83q15 -19 15 -42q0 -13 -6.5 -25t-18.5 -19l-265 -163q-32 -21 -54 -21zM870 1531q-22 0 -37 21l-42 58q-19 28 -19 46q0 20 21 37l248 189q30 23 54 23q21 0 38 -21l66 -83q15 -19 15 -42q0 -13 -6.5 -25t-18.5 -19
l-265 -163q-32 -21 -54 -21z" />
    <glyph glyph-name="uhungarumlaut" unicode="&#x171;" horiz-adv-x="1053" 
d="M971.5 865.5q10.5 -10.5 10.5 -30.5v-794q0 -19 -11.5 -30.5t-30.5 -11.5h-182q-13 0 -24.5 6.5t-19.5 18.5l-45 70q-53 -62 -121 -94t-143 -32q-176 0 -259.5 108t-83.5 325v434q0 41 41 41h312q41 0 41 -41v-437q0 -25 18.5 -39.5t42.5 -14.5q30 0 50 20t20 59v412
q0 20 10.5 30.5t30.5 10.5h313q20 0 30.5 -10.5zM415.5 1021q-14.5 -10 -44.5 -10h-79q-21 0 -34 11.5t-13 29.5q0 12 6 25l130 276q13 29 30.5 41t47.5 12h115q19 0 32.5 -14t13.5 -33q0 -13 -8 -27l-163 -270q-19 -31 -33.5 -41zM794 1026.5q-10 -10.5 -21 -13t-34 -2.5
h-78q-21 0 -34 11.5t-13 29.5q0 12 6 25l130 276q13 29 30.5 41t46.5 12h115q19 0 33 -14t14 -33q0 -13 -8 -27l-163 -271q-14 -24 -24 -34.5z" />
    <glyph glyph-name="Uogonek" unicode="&#x172;" horiz-adv-x="1372" 
d="M1241 274q-64 -142 -190 -219l12 -2q-81 -49 -126.5 -107.5t-45.5 -114.5q0 -38 31 -59.5t86 -21.5q44 0 112 14q3 1 9 1q27 0 32 -30l18 -128q3 -15 -5 -25.5t-25 -14.5q-71 -17 -157 -17q-141 0 -221.5 69t-80.5 189q0 86 41 159q-14 -1 -43 -1q-314 0 -465.5 164.5
t-151.5 486.5v796q0 21 11 34t30 13h355q20 0 32 -13t12 -34v-800q0 -103 38 -160t139 -57t139 57t38 160v800q0 21 13 34t34 13h342q23 0 37 -13t14 -34v-795q0 -202 -64 -344z" />
    <glyph glyph-name="uogonek" unicode="&#x173;" horiz-adv-x="1053" 
d="M1046 -463.5q-8 -10.5 -25 -14.5q-71 -17 -157 -17q-141 0 -221.5 69t-80.5 189q0 78 33 144.5t91 104.5q12 8 26 15l-43 67q-53 -62 -121 -94t-143 -32q-176 0 -259.5 108t-83.5 325v434q0 41 41 41h312q41 0 41 -41v-437q0 -25 18.5 -39.5t42.5 -14.5q30 0 50 20t20 59
v412q0 20 10.5 30.5t30.5 10.5h313q20 0 30.5 -10.5t10.5 -30.5v-794q0 -19 -11.5 -30.5t-30.5 -11.5h-19q-75 -48 -116.5 -104t-41.5 -109q0 -38 31 -59.5t86 -21.5q44 0 112 14q3 1 9 1q27 0 32 -30l18 -128q3 -15 -5 -25.5z" />
    <glyph glyph-name="Wcircumflex" unicode="&#x174;" horiz-adv-x="2108" 
d="M2099.5 1450.5q13.5 -10.5 13.5 -29.5q0 -12 -6 -27l-519 -1338q-10 -25 -32 -41t-47 -16h-260q-25 0 -47.5 16t-31.5 41l-109 327l-127 -327q-10 -27 -32 -42t-47 -15h-260q-26 0 -48 16.5t-31 40.5l-516 1338q-5 11 -5 26q0 18 12.5 29t36.5 11h350q27 0 48 -15.5
t29 -41.5l253 -748l259 750q9 26 30 41t46 15h350q24 0 37 -11t13 -29q0 -12 -6 -27l-174 -449l100 -292l257 752q9 25 30 40.5t47 15.5h349q24 0 37.5 -10.5zM1101 1840q18 12 29 12q15 0 30 -12l228 -166q19 -14 19 -33q0 -10 -8 -23l-48 -63q-13 -16 -35 -16
q-19 0 -37 11l-148 94l-147 -94q-19 -12 -38 -12q-20 0 -33 17l-49 65q-11 15 -11 27q0 9 5.5 15t12 10.5t9.5 6.5z" />
    <glyph glyph-name="wcircumflex" unicode="&#x175;" horiz-adv-x="1503" 
d="M1500.5 868.5q9.5 -9.5 9.5 -25.5q0 -9 -5 -22l-313 -783q-7 -17 -25 -27.5t-40 -10.5h-199q-22 0 -40 10.5t-25 27.5l-97 235l-91 -235q-6 -17 -24.5 -27.5t-40.5 -10.5h-223q-22 0 -39.5 10.5t-24.5 27.5l-324 783q-5 13 -5 22q0 16 10 25.5t24 9.5h335q19 0 35 -10.5
t20 -27.5l78 -327l73 327q4 17 20 27.5t35 10.5h325q14 0 23.5 -10t9.5 -25q0 -11 -4 -22l-55 -143l63 -143l100 304q7 18 21 28.5t32 10.5h338q14 0 23.5 -9.5zM715 1336q11 8 17.5 11.5t13.5 3.5q16 0 32 -15l245 -199q20 -18 20 -39q0 -14 -9 -28l-51 -75
q-15 -19 -38 -19q-21 0 -39 13l-159 113l-158 -113q-21 -14 -40 -14q-23 0 -36 20l-52 78q-12 17 -12 32q0 11 6.5 18.5t13.5 13t9 6.5z" />
    <glyph glyph-name="Ycircumflex" unicode="&#x176;" horiz-adv-x="1392" 
d="M1384 1449.5q13 -10.5 13 -30.5q0 -12 -6 -29l-475 -845v-484q0 -28 -16 -44.5t-45 -16.5h-317q-29 0 -46 16.5t-17 44.5v486l-474 843q-6 17 -6 29q0 20 13.5 30.5t37.5 10.5h371q22 0 43 -16t34 -41l201 -399l203 401q13 26 34 40.5t44 14.5h370q25 0 38 -10.5z
M663 1840q18 12 29 12q15 0 30 -12l228 -166q19 -14 19 -33q0 -10 -8 -23l-48 -63q-13 -16 -35 -16q-19 0 -37 11l-148 94l-147 -94q-19 -12 -38 -12q-20 0 -33 17l-49 65q-11 15 -11 27q0 9 5.5 15t12 10.5t9.5 6.5z" />
    <glyph glyph-name="ycircumflex" unicode="&#x177;" horiz-adv-x="975" 
d="M972 868.5q10 -9.5 10 -25.5q0 -12 -5 -22l-313 -783l-0.5 -0.5l-0.5 -0.5l-173 -423q-14 -36 -52 -36h-283q-59 0 -59 40q0 14 9 35l181 450l-287 718q-5 10 -5 22q0 16 10 25.5t23 9.5h336q19 0 35 -10.5t20 -27.5l70 -326l70 326q4 17 20 27.5t35 10.5h336
q13 0 23 -9.5zM458 1340q11 8 17.5 11.5t13.5 3.5q16 0 32 -15l245 -199q20 -18 20 -39q0 -14 -9 -28l-51 -75q-15 -19 -38 -19q-21 0 -39 13l-159 113l-158 -113q-21 -14 -40 -14q-23 0 -36 20l-52 78q-12 17 -12 32q0 11 6.5 18.5t13.5 13t9 6.5z" />
    <glyph glyph-name="Ydieresis" unicode="&#x178;" horiz-adv-x="1392" 
d="M1384 1449.5q13 -10.5 13 -30.5q0 -12 -6 -29l-475 -845v-484q0 -28 -16 -44.5t-45 -16.5h-317q-29 0 -46 16.5t-17 44.5v486l-474 843q-6 17 -6 29q0 20 13.5 30.5t37.5 10.5h371q22 0 43 -16t34 -41l201 -399l203 401q13 26 34 40.5t44 14.5h370q25 0 38 -10.5z
M457.5 1587.5q-29.5 17.5 -46.5 47t-17 64.5q0 34 17 63.5t46.5 46.5t64.5 17t64.5 -17t46.5 -46.5t17 -63.5q0 -35 -17 -64.5t-46.5 -47t-64.5 -17.5t-64.5 17.5zM803.5 1587.5q-29.5 17.5 -46.5 47t-17 64.5q0 34 17 63.5t46.5 46.5t64.5 17t64.5 -17t46.5 -46.5t17 -63.5
q0 -35 -17 -64.5t-46.5 -47t-64.5 -17.5t-64.5 17.5z" />
    <glyph glyph-name="Zacute" unicode="&#x179;" horiz-adv-x="1408" 
d="M1331.5 423q15.5 -15 15.5 -41v-327q0 -26 -15.5 -41t-41.5 -15h-1163q-27 0 -42 15.5t-15 40.5v221q0 22 6 41.5t16 31.5l561 673h-518q-27 0 -42 15t-15 42v325q0 26 15 41.5t42 15.5h1114q28 0 43.5 -15.5t15.5 -41.5v-214q0 -40 -19 -58l-577 -694h578q26 0 41.5 -15
zM619 1547q-28 0 -41 28l-32 64q-11 22 -11 40q0 26 28 41l277 143q26 14 48 14q29 0 43 -28l50 -93q8 -15 8 -34q0 -17 -8 -30t-25 -19l-289 -114q-31 -12 -48 -12z" />
    <glyph glyph-name="zacute" unicode="&#x17a;" horiz-adv-x="897" 
d="M836.5 344q12.5 -13 12.5 -31v-268q0 -20 -11.5 -32.5t-30.5 -12.5h-682q-29 0 -51 17.5t-22 44.5v160q0 26 4 39.5t19 32.5l255 226h-218q-17 0 -29.5 13.5t-12.5 30.5v267q0 20 12 33.5t30 13.5h683q21 0 32 -11t11 -31l4 -192q0 -22 -4 -31t-17 -21l-229 -235h215
q17 0 29.5 -13zM431 990q-22 0 -37 21l-42 58q-19 28 -19 46q0 20 21 37l248 189q30 23 54 23q21 0 38 -21l66 -83q15 -19 15 -42q0 -13 -6.5 -25t-18.5 -19l-265 -163q-32 -21 -54 -21z" />
    <glyph glyph-name="Zdotaccent" unicode="&#x17b;" horiz-adv-x="1408" 
d="M1331.5 423q15.5 -15 15.5 -41v-327q0 -26 -15.5 -41t-41.5 -15h-1163q-27 0 -42 15.5t-15 40.5v221q0 22 6 41.5t16 31.5l561 673h-518q-27 0 -42 15t-15 42v325q0 26 15 41.5t42 15.5h1114q28 0 43.5 -15.5t15.5 -41.5v-214q0 -40 -19 -58l-577 -694h578q26 0 41.5 -15
zM630 1592.5q-37 21.5 -58.5 58.5t-21.5 81q0 43 21.5 79.5t58.5 58t81 21.5q43 0 80 -21.5t58.5 -58t21.5 -79.5q0 -44 -21.5 -81t-58.5 -58.5t-80 -21.5q-44 0 -81 21.5z" />
    <glyph glyph-name="zdotaccent" unicode="&#x17c;" horiz-adv-x="897" 
d="M836.5 344q12.5 -13 12.5 -31v-268q0 -20 -11.5 -32.5t-30.5 -12.5h-682q-29 0 -51 17.5t-22 44.5v160q0 26 4 39.5t19 32.5l255 226h-218q-17 0 -29.5 13.5t-12.5 30.5v267q0 20 12 33.5t30 13.5h683q21 0 32 -11t11 -31l4 -192q0 -22 -4 -31t-17 -21l-229 -235h215
q17 0 29.5 -13zM373 1031.5q-37 21.5 -58.5 58.5t-21.5 81q0 43 21.5 79.5t58.5 58t81 21.5q43 0 80 -21.5t58.5 -58t21.5 -79.5q0 -44 -21.5 -81t-58.5 -58.5t-80 -21.5q-44 0 -81 21.5z" />
    <glyph glyph-name="Zcaron" unicode="&#x17d;" horiz-adv-x="1408" 
d="M1331.5 423q15.5 -15 15.5 -41v-327q0 -26 -15.5 -41t-41.5 -15h-1163q-27 0 -42 15.5t-15 40.5v221q0 22 6 41.5t16 31.5l561 673h-518q-27 0 -42 15t-15 42v325q0 26 15 41.5t42 15.5h1114q28 0 43.5 -15.5t15.5 -41.5v-214q0 -40 -19 -58l-577 -694h578q26 0 41.5 -15
zM445.5 1708q-7.5 5 -12 11.5t-4.5 13.5q0 12 11 27l49 65q13 17 33 17q19 0 38 -12l147 -94l148 94q18 11 37 11q22 0 35 -16l48 -63q8 -13 8 -23q0 -19 -19 -33l-228 -166q-15 -12 -30 -12q-11 0 -29 12l-221 161z" />
    <glyph glyph-name="zcaron" unicode="&#x17e;" horiz-adv-x="897" 
d="M836.5 344q12.5 -13 12.5 -31v-268q0 -20 -11.5 -32.5t-30.5 -12.5h-682q-29 0 -51 17.5t-22 44.5v160q0 26 4 39.5t19 32.5l255 226h-218q-17 0 -29.5 13.5t-12.5 30.5v267q0 20 12 33.5t30 13.5h683q21 0 32 -11t11 -31l4 -192q0 -22 -4 -31t-17 -21l-229 -235h215
q17 0 29.5 -13zM177.5 1193.5q-8.5 6.5 -13.5 14t-5 16.5q0 15 12 32l52 78q13 20 36 20q19 0 40 -14l158 -113l159 113q18 13 39 13q23 0 38 -19l51 -75q9 -13 9 -28q0 -21 -20 -39l-245 -199q-16 -15 -32 -15q-7 0 -13.5 3.5t-17.5 11.5l-237 193q-2 1 -10.5 7.5z" />
    <glyph glyph-name="uni018F" unicode="&#x18f;" horiz-adv-x="1618" 
d="M1194 1389.5q175 -101.5 276.5 -276t101.5 -385.5q0 -210 -101.5 -384.5t-276 -276t-385.5 -101.5t-385.5 101.5t-276 276t-101.5 384.5v38q0 130 156 130h884q-43 71 -116.5 113t-160.5 42q-114 0 -203 -70q-15 -12 -32 -12q-21 0 -34 17l-221 278q-10 13 -10 26
q0 19 17 33q99 79 222 123.5t261 44.5q210 0 385 -101.5zM963.5 451.5q71.5 44.5 116.5 114.5h-542q46 -71 117 -115t154 -44t154.5 44.5z" />
    <glyph glyph-name="florin" unicode="&#x192;" horiz-adv-x="749" 
d="M892 1406q0 -6 -4 -18l-111 -277q-9 -23 -28 -23q-7 0 -17 5q-14 8 -33.5 12.5t-38.5 4.5q-57 0 -90 -38t-33 -105v-89h139q18 0 28.5 -10.5t10.5 -28.5v-256q0 -19 -10.5 -29t-28.5 -10h-139v-550q0 -229 -126 -343.5t-373 -114.5h-12q-19 0 -30 10.5t-11 30.5v261
q0 20 10.5 30.5t30.5 10.5h10q54 0 80.5 18.5t26.5 61.5v69q-1 4 -1 11v505h-79q-18 0 -28 10t-10 29v256q0 18 10 28.5t28 10.5h79v83q0 165 61.5 285t177.5 184t275 64q58 0 116 -15t102 -42q18 -12 18 -31z" />
    <glyph glyph-name="uni019D" unicode="&#x19d;" horiz-adv-x="1552" 
d="M1438.5 1448q11.5 -12 11.5 -32v-1372q0 -21 -12 -32.5t-32 -11.5h-336q-28 0 -50.5 13.5t-38.5 39.5l-438 702v-714q0 -256 -140.5 -384t-417.5 -128h-14q-22 0 -33.5 12t-11.5 34v292q0 22 11.5 34t33.5 12h12q61 0 90 20.5t29 68.5v1414q0 21 12 32.5t32 11.5h365
q51 0 87 -54l412 -645v655q0 21 11.5 32.5t32.5 11.5h352q21 0 32.5 -12z" />
    <glyph glyph-name="Gcaron" unicode="&#x1e6;" horiz-adv-x="1375" 
d="M848 409q20 3 37 7v204q0 26 17.5 43.5t43.5 17.5h318q25 0 42.5 -18t17.5 -43v-475q0 -18 -9.5 -36t-23.5 -26q-82 -49 -219 -83t-254 -34q-213 0 -390 101.5t-279.5 276.5t-102.5 385t102.5 385t279 276t389.5 101q110 0 235 -39.5t198 -97.5q12 -10 18.5 -23t6.5 -27
q0 -16 -10 -33l-182 -273q-7 -12 -19 -18.5t-25 -6.5q-21 0 -39 15q-32 27 -84.5 45.5t-97.5 18.5q-91 0 -167 -43t-120 -117t-44 -163t44 -163t120 -117t167 -43q10 0 30 3zM552.5 1737q-7.5 5 -12 11.5t-4.5 13.5q0 12 11 27l49 65q13 17 33 17q19 0 38 -12l147 -94
l148 94q18 11 37 11q22 0 35 -16l48 -63q8 -13 8 -23q0 -19 -19 -33l-228 -166q-15 -12 -30 -12q-11 0 -29 12l-221 161z" />
    <glyph glyph-name="gcaron" unicode="&#x1e7;" horiz-adv-x="971" 
d="M957 863.5q14 -14.5 14 -36.5v-187q0 -24 -14 -38.5t-36 -12.5l-77 8q41 -54 41 -144q0 -98 -52 -179t-146 -128t-213 -47q-67 0 -130 20q-15 -4 -24 -14.5t-9 -22.5q0 -9 12.5 -19.5t29.5 -10.5l212 1q115 0 203 -36.5t136.5 -106t48.5 -162.5q0 -113 -51 -198
t-150 -132t-239 -47q-113 0 -235 19.5t-196 50.5q-13 6 -20.5 17t-7.5 25q0 10 3 19l72 220q4 11 14.5 17t24.5 6q12 0 18 -2q111 -29 166 -37.5t117 -8.5q83 0 111.5 11.5t28.5 30.5q0 32 -60 32h-200q-166 0 -250 76.5t-84 213.5q0 70 31.5 125.5t86.5 95.5
q-62 99 -62 222q0 121 51 213.5t143 144t211 51.5q37 0 83 -9t92 -26h270q22 0 36 -14.5zM539.5 445.5q25.5 25.5 25.5 61.5q0 35 -26 61t-61 26q-36 0 -62 -26t-26 -61t26 -61t62 -26t61.5 25.5zM222.5 1205.5q-8.5 6.5 -13.5 14t-5 16.5q0 15 12 32l52 78q13 20 36 20
q19 0 40 -14l158 -113l159 113q18 13 39 13q23 0 38 -19l51 -75q9 -13 9 -28q0 -21 -20 -39l-245 -199q-16 -15 -32 -15q-7 0 -13.5 3.5t-17.5 11.5l-237 193q-2 1 -10.5 7.5z" />
    <glyph glyph-name="uni01EA" unicode="&#x1ea;" horiz-adv-x="1618" 
d="M999.5 -76q-41.5 -56 -41.5 -109q0 -38 31 -59.5t86 -21.5q44 0 112 14q3 1 9 1q27 0 32 -30l18 -128q3 -15 -5 -25.5t-25 -14.5q-71 -17 -157 -17q-141 0 -221.5 69t-80.5 189q0 97 50 174q-210 0 -384.5 102t-275.5 276.5t-101 383.5q0 211 101.5 385.5t276.5 276
t385 101.5t385 -101.5t276.5 -276t101.5 -385.5q0 -156 -57 -294.5t-160.5 -243t-239.5 -162.5q-74 -48 -115.5 -104zM529 566.5q43 -73.5 117 -116.5t163 -43t163 43t117 116.5t43 161.5q0 89 -43 163t-117 117t-163 43t-163 -43t-117 -117t-43 -163q0 -88 43 -161.5z" />
    <glyph glyph-name="uni01EB" unicode="&#x1eb;" horiz-adv-x="1011" 
d="M864 -416q3 -15 -5 -25.5t-25 -14.5q-71 -17 -157 -17q-141 0 -221.5 69t-80.5 189q0 53 15 100.5t43 84.5q-116 17 -210 83t-147.5 166.5t-53.5 216.5q0 129 65 238t176.5 172.5t243.5 63.5q131 0 242 -64t175.5 -173t64.5 -237q0 -133 -70.5 -245t-187.5 -172
q-73 -47 -114 -102.5t-41 -108.5q0 -38 31 -59.5t86 -21.5q44 0 112 14q3 1 9 1q27 0 32 -30zM433.5 510q-29.5 -29 -29.5 -72q0 -42 29.5 -71.5t71.5 -29.5t71 29.5t29 71.5q0 43 -29 72t-71 29t-71.5 -29z" />
    <glyph glyph-name="Aringacute" unicode="&#x1fa;" horiz-adv-x="1474" 
d="M1469 39q0 -18 -13 -29t-37 -11h-350q-26 0 -47 15.5t-29 40.5l-43 138h-426l-43 -137q-7 -23 -28 -39.5t-49 -16.5h-350q-24 0 -36.5 11t-12.5 30q0 15 5 26l518 1337q11 27 33.5 42t46.5 15h260q25 0 46.5 -15.5t31.5 -41.5l517 -1338q6 -13 6 -27zM837 555l-101 323
l-100 -323h201zM848 1942q50 -29 79.5 -78.5t29.5 -109.5t-29.5 -109.5t-79.5 -78t-111 -28.5q-60 0 -109.5 28.5t-78.5 78t-29 109.5t29 109.5t78.5 78.5t109.5 29q61 0 111 -29zM685.5 1806q-21.5 -21 -21.5 -52t21.5 -52.5t52.5 -21.5t53 21.5t22 52.5t-21.5 52t-53.5 21
q-31 0 -52.5 -21zM590 1970q-28 0 -41 28l-32 64q-11 22 -11 40q0 26 28 41l277 143q26 14 48 14q29 0 43 -28l50 -93q8 -15 8 -34q0 -17 -8 -30t-25 -19l-289 -114q-31 -12 -48 -12z" />
    <glyph glyph-name="aringacute" unicode="&#x1fb;" horiz-adv-x="1009" 
d="M731 869q105 -42 160.5 -120.5t55.5 -186.5v-517q0 -21 -11 -33t-30 -12l-189 2q-9 0 -17.5 4.5t-13.5 12.5l-39 61q-47 -52 -126 -83t-155 -31q-156 0 -243.5 74.5t-87.5 213.5q0 122 80 183.5t247 62.5l201 1v31q0 27 -27 42.5t-73 15.5q-73 0 -125.5 -8.5t-99.5 -25.5
q-15 -6 -27 -6q-20 0 -31 23l-75 186q-6 15 -6 26q0 25 33 41q68 34 170 59.5t181 25.5q143 0 248 -42zM539 257.5q23 24.5 24 89.5h-79q-40 0 -57 -17t-17 -41q0 -26 16 -41t45 -15q45 0 68 24.5zM657.5 1433q60.5 -35 96 -95t35.5 -132t-35.5 -132t-96 -94.5t-133.5 -34.5
q-72 0 -132 34.5t-95 94.5t-35 132t35 132t95 95t132 35q73 0 133.5 -35zM461 1269.5q-26 -25.5 -26 -62.5t26 -63.5t64 -26.5t64 26t26 63q0 38 -26 63.5t-64 25.5t-64 -25.5zM499 1511q-22 0 -37 21l-42 58q-19 28 -19 46q0 20 21 37l248 189q30 23 54 23q21 0 38 -21
l66 -83q15 -19 15 -42q0 -13 -6.5 -25t-18.5 -19l-265 -163q-32 -21 -54 -21z" />
    <glyph glyph-name="AEacute" unicode="&#x1fc;" horiz-adv-x="2202" 
d="M2098 395q23 -22 23 -59v-275q0 -28 -17 -44.5t-45 -16.5h-970q-29 0 -45.5 16.5t-16.5 44.5v153h-386l-106 -159q-19 -27 -38 -41t-44 -14h-396q-24 0 -38 13t-14 33q0 16 11 36l920 1324q22 31 37.5 43t43.5 12h1023q29 0 45.5 -17t16.5 -46v-292q0 -29 -16.5 -46
t-45.5 -17h-572v-154h416q32 0 50 -17t18 -47v-199q0 -29 -18 -46t-50 -17h-416v-146h567q40 0 63 -22zM1027 544v248l-165 -248h165zM1501 1546q-28 0 -41 28l-32 64q-11 22 -11 40q0 26 28 41l277 143q26 14 48 14q29 0 43 -28l50 -93q8 -15 8 -34q0 -17 -8 -30t-25 -19
l-289 -114q-31 -12 -48 -12z" />
    <glyph glyph-name="aeacute" unicode="&#x1fd;" horiz-adv-x="1551" 
d="M1502 398.5q-27 -40.5 -85 -44.5h-4h-462q10 -41 48 -66.5t91 -25.5q81 0 135 35q12 8 25 8q18 0 34 -21q28 -43 110 -158q10 -14 10 -28q0 -17 -18 -31q-63 -49 -142 -75.5t-163 -26.5q-80 0 -153 23.5t-134 67.5q-129 -90 -349 -90q-211 0 -310.5 72.5t-99.5 215.5
q0 98 42 154t120 78.5t196 23.5l160 1v20q0 27 -18.5 42.5t-51.5 15.5q-114 0 -184 -30q-22 -8 -38 -8q-31 0 -42 21l-91 180q-8 16 -8 31q0 36 44 61q61 34 146.5 50.5t172.5 16.5q202 0 324 -82q58 39 127 60t144 21q132 0 234.5 -52.5t159.5 -146t57 -210.5
q0 -62 -27 -102.5zM996 576.5q-32 -26.5 -43 -66.5h231q-8 41 -39.5 67t-75.5 26q-41 0 -73 -26.5zM534 283q19 10 19 27v27h-69q-24 0 -39.5 -10.5t-15.5 -22.5q0 -31 54 -31q32 0 51 10zM772 1014q-22 0 -37 21l-42 58q-19 28 -19 46q0 20 21 37l248 189q30 23 54 23
q21 0 38 -21l66 -83q15 -19 15 -42q0 -13 -6.5 -25t-18.5 -19l-265 -163q-32 -21 -54 -21z" />
    <glyph glyph-name="Oslashacute" unicode="&#x1fe;" horiz-adv-x="1618" 
d="M1528 989q44 -124 44 -261q0 -210 -101.5 -384.5t-276 -276t-385.5 -101.5q-136 0 -260 44t-224 125l-89 -89q-12 -12 -27 -12q-14 0 -28 12l-53 54q-13 12 -13 27t13 28l88 88q-81 100 -125.5 224t-44.5 261q0 211 101.5 385.5t276.5 276t385 101.5q137 0 261 -44
t225 -126l89 89q12 12 24 12q14 0 28 -14l53 -53q15 -15 15 -29q0 -12 -12 -24l-89 -89q81 -100 125 -224zM533 560l445 444q-77 47 -169 47q-89 0 -163 -43t-117 -117t-43 -163q0 -93 47 -168zM972 450q74 43 117 116.5t43 161.5q0 90 -46 168l-444 -444q76 -45 167 -45
q89 0 163 43zM718 1576q-28 0 -41 28l-32 64q-11 22 -11 40q0 26 28 41l277 143q26 14 48 14q29 0 43 -28l50 -93q8 -15 8 -34q0 -17 -8 -30t-25 -19l-289 -114q-31 -12 -48 -12z" />
    <glyph glyph-name="oslashacute" unicode="&#x1ff;" horiz-adv-x="1011" 
d="M989 436q0 -128 -65 -236t-176 -171.5t-241 -63.5q-88 0 -169 29t-145 82l-49 -41q-13 -10 -26 -10q-15 0 -29 15l-49 57q-10 13 -10 26q0 17 15 29l47 39q-70 115 -70 245q0 129 65 238t176.5 172.5t243.5 63.5q86 0 165.5 -28.5t142.5 -80.5l48 40q11 10 25 10
q16 0 29 -16l48 -57q11 -14 11 -27q0 -15 -15 -27l-45 -38q73 -114 73 -250zM576 366.5q29 29.5 29 71.5q0 43 -29 72t-71 29t-71.5 -29t-29.5 -72q0 -42 29.5 -71.5t71.5 -29.5t71 29.5zM481 1002q-22 0 -37 21l-42 58q-19 28 -19 46q0 20 21 37l248 189q30 23 54 23
q21 0 38 -21l66 -83q15 -19 15 -42q0 -13 -6.5 -25t-18.5 -19l-265 -163q-32 -21 -54 -21z" />
    <glyph glyph-name="uni0218" unicode="&#x218;" horiz-adv-x="1261" 
d="M63 140q0 21 12 43l131 270q8 16 22 24.5t32 8.5q13 0 34 -7q115 -41 204 -59t192 -18q35 0 55 15.5t20 37.5t-16.5 37.5t-61.5 32.5t-139 45q-165 49 -260.5 106t-139.5 138.5t-44 205.5q0 150 81 256t209 159.5t266 53.5q140 0 271.5 -47.5t208.5 -94.5q39 -26 39 -55
q0 -18 -14 -46l-131 -277q-13 -28 -43 -28q-25 0 -59 17q-85 41 -159.5 66t-162.5 25q-35 0 -54.5 -15.5t-19.5 -37.5q0 -51 239 -122q151 -44 241.5 -87t148 -125t57.5 -219q0 -145 -72.5 -254t-199 -168t-282.5 -59q-146 0 -311.5 35.5t-266.5 97.5q-27 17 -27 45z
M497.5 -154.5q21.5 36.5 58.5 58t81 21.5q53 0 95.5 -27t66 -72t23.5 -96q0 -109 -37.5 -190.5t-117.5 -156.5q-15 -13 -29 -13q-15 0 -31 14l-50 43q-14 12 -14 27q0 16 17 35q38 42 51 60t13 32q0 9 -7.5 16.5t-20.5 11.5q-56 15 -88 56.5t-32 99.5q0 44 21.5 80.5z" />
    <glyph glyph-name="uni0219" unicode="&#x219;" horiz-adv-x="874" 
d="M436 591.5q-9 -7.5 -9 -21.5q0 -23 62 -41q132 -34 205.5 -65t115 -81.5t41.5 -133.5q0 -86 -51 -150t-146.5 -98.5t-226.5 -34.5q-113 0 -221.5 28t-171.5 76q-25 18 -25 43q0 19 13 38l118 183q13 19 42 19q24 0 51 -12q59 -26 113 -41.5t82 -15.5q17 0 25.5 5t8.5 17
q0 15 -18.5 27t-69.5 26q-108 30 -171.5 59t-100.5 80.5t-37 137.5q0 78 43 141.5t130 101t213 37.5q91 0 186 -25.5t158 -70.5q22 -16 32 -27.5t10 -24.5q0 -17 -18 -44l-96 -145q-16 -27 -52 -27q-21 0 -40 8q-45 19 -89.5 29t-79.5 10q-17 0 -26 -7.5zM281.5 -166.5
q21.5 36.5 58.5 58t81 21.5q53 0 95.5 -27t66 -72t23.5 -96q0 -109 -37.5 -190.5t-117.5 -156.5q-15 -13 -29 -13q-15 0 -31 14l-50 43q-14 12 -14 27q0 16 17 35q38 42 51 60t13 32q0 9 -7.5 16.5t-20.5 11.5q-56 15 -88 56.5t-32 99.5q0 44 21.5 80.5z" />
    <glyph glyph-name="uni021A" unicode="&#x21a;" horiz-adv-x="1205" 
d="M47 1398q0 30 16.5 46.5t45.5 16.5h988q28 0 44.5 -17t16.5 -46v-293q0 -29 -16.5 -46t-44.5 -17h-276v-996q0 -29 -16 -45t-46 -16h-316q-29 0 -45.5 16t-16.5 45v996h-272q-29 0 -45.5 16.5t-16.5 46.5v293zM457.5 -152.5q21.5 36.5 58.5 58t81 21.5q53 0 95.5 -27
t66 -72t23.5 -96q0 -109 -37.5 -190.5t-117.5 -156.5q-15 -13 -29 -13q-15 0 -31 14l-50 43q-14 12 -14 27q0 16 17 35q38 42 51 60t13 32q0 9 -7.5 16.5t-20.5 11.5q-56 15 -88 56.5t-32 99.5q0 44 21.5 80.5z" />
    <glyph glyph-name="uni021B" unicode="&#x21b;" horiz-adv-x="724" 
d="M13 839q0 18 10.5 28.5t28.5 10.5h79v153q0 35 33 47l314 124q8 4 18 4q14 0 21.5 -10t7.5 -27v-291h140q18 0 28 -10.5t10 -28.5v-256q0 -19 -10 -29t-28 -10h-139v-505q0 -19 -10 -29t-29 -10h-316q-19 0 -29 10t-10 29v505h-80q-18 0 -28.5 10t-10.5 29v256z
M177.5 -137.5q21.5 36.5 58.5 58t81 21.5q53 0 95.5 -27t66 -72t23.5 -96q0 -109 -37.5 -190.5t-117.5 -156.5q-15 -13 -29 -13q-15 0 -31 14l-50 43q-14 12 -14 27q0 16 17 35q38 42 51 60t13 32q0 9 -7.5 16.5t-20.5 11.5q-56 15 -88 56.5t-32 99.5q0 44 21.5 80.5z" />
    <glyph glyph-name="uni0232" unicode="&#x232;" horiz-adv-x="1392" 
d="M1384 1449.5q13 -10.5 13 -30.5q0 -12 -6 -29l-475 -845v-484q0 -28 -16 -44.5t-45 -16.5h-317q-29 0 -46 16.5t-17 44.5v486l-474 843q-6 17 -6 29q0 20 13.5 30.5t37.5 10.5h371q22 0 43 -16t34 -41l201 -399l203 401q13 26 34 40.5t44 14.5h370q25 0 38 -10.5z
M469 1720q0 14 9 23t23 9h389q14 0 22 -8t8 -22v-136q0 -14 -9.5 -22t-22.5 -8h-389q-10 0 -20 8t-10 22v134z" />
    <glyph glyph-name="uni0233" unicode="&#x233;" horiz-adv-x="975" 
d="M972 868.5q10 -9.5 10 -25.5q0 -12 -5 -22l-313 -783l-0.5 -0.5l-0.5 -0.5l-173 -423q-14 -36 -52 -36h-283q-59 0 -59 40q0 14 9 35l181 450l-287 718q-5 10 -5 22q0 16 10 25.5t23 9.5h336q19 0 35 -10.5t20 -27.5l70 -326l70 326q4 17 20 27.5t35 10.5h336
q13 0 23 -9.5zM264 1174q0 14 9 23t23 9h389q14 0 22 -8t8 -22v-136q0 -14 -9.5 -22t-22.5 -8h-389q-10 0 -20 8t-10 22v134z" />
    <glyph glyph-name="uni0237" unicode="&#x237;" horiz-adv-x="536" 
d="M455 867.5q10 -10.5 10 -28.5v-845q0 -229 -126 -343.5t-373 -114.5h-12q-20 0 -30.5 10.5t-10.5 30.5v261q0 20 10.5 30.5t30.5 10.5h10q54 0 80.5 18.5t26.5 61.5v880q0 18 10 28.5t29 10.5h316q19 0 29 -10.5z" />
    <glyph glyph-name="uni0259" unicode="&#x259;" horiz-adv-x="977" 
d="M713.5 850q111.5 -63 176.5 -171.5t65 -236.5q0 -130 -64 -238.5t-174.5 -172t-243.5 -63.5q-132 0 -234.5 52.5t-159.5 146t-57 210.5q0 62 27 102.5t85 44.5h4h462q-10 41 -48 66.5t-91 25.5q-81 0 -135 -35q-12 -8 -25 -8q-18 0 -34 21q-28 43 -110 158q-10 14 -10 28
q0 18 18 31q63 49 142 75.5t163 26.5q132 0 243.5 -63zM555 301.5q32 26.5 43 66.5h-231q8 -41 39.5 -67t75.5 -26q41 0 73 26.5z" />
    <glyph glyph-name="uni0272" unicode="&#x272;" horiz-adv-x="1053" 
d="M907.5 802q83.5 -108 83.5 -325v-434q0 -41 -41 -41h-312q-41 0 -41 41v437q0 25 -18.5 39.5t-42.5 14.5q-30 0 -50 -20t-20 -59v-457q0 -229 -126 -343.5t-373 -114.5h-12q-20 0 -30.5 10.5t-10.5 30.5v261q0 20 10.5 30.5t30.5 10.5h10q54 0 80.5 18.5t26.5 61.5v69
q-1 3 -1 11v794q0 19 11.5 30.5t30.5 11.5h182q13 0 24.5 -6.5t19.5 -18.5l45 -70q53 62 121 94t143 32q176 0 259.5 -108z" />
    <glyph glyph-name="uni02B0" unicode="&#x2b0;" horiz-adv-x="705" 
d="M633 1401.5q59 -77.5 57 -230.5l-4 -300q0 -29 -30 -29h-235q-31 0 -31 29v303q0 22 -20 22q-14 0 -20.5 -9t-6.5 -33v-286q0 -13 -8 -20.5t-21 -7.5h-238q-14 0 -21.5 7.5t-7.5 20.5v864q0 13 7.5 20.5t21.5 7.5h238q13 0 21 -7.5t8 -20.5v-284q53 31 112 31
q119 0 178 -77.5z" />
    <glyph glyph-name="uni02BC" unicode="&#x2bc;" horiz-adv-x="614" 
d="M178 1373q19 33 52 52.5t73 19.5q48 0 86 -24.5t59.5 -65t21.5 -86.5q0 -98 -34 -171t-106 -141q-13 -11 -26 -11q-15 0 -28 12l-45 39q-12 11 -12 24q0 16 15 32q35 38 46.5 53.5t11.5 28.5q0 8 -7 15t-18 11q-51 13 -79.5 50t-28.5 90q0 39 19 72z" />
    <glyph glyph-name="circumflex" unicode="&#x2c6;" horiz-adv-x="614" 
d="M356 1340q11 8 17.5 11.5t13.5 3.5q16 0 32 -15l245 -199q20 -18 20 -39q0 -14 -9 -28l-51 -75q-15 -19 -38 -19q-21 0 -39 13l-159 113l-158 -113q-21 -14 -40 -14q-23 0 -36 20l-52 78q-12 17 -12 32q0 11 6.5 18.5t13.5 13t9 6.5z" />
    <glyph glyph-name="caron" unicode="&#x2c7;" horiz-adv-x="614" 
d="M108.5 1193.5q-8.5 6.5 -13.5 14t-5 16.5q0 15 12 32l52 78q13 20 36 20q19 0 40 -14l158 -113l159 113q18 13 39 13q23 0 38 -19l51 -75q9 -13 9 -28q0 -21 -20 -39l-245 -199q-16 -15 -32 -15q-7 0 -13.5 3.5t-17.5 11.5l-237 193q-2 1 -10.5 7.5z" />
    <glyph glyph-name="uni02C9" unicode="&#x2c9;" horiz-adv-x="600" 
 />
    <glyph glyph-name="breve" unicode="&#x2d8;" horiz-adv-x="614" 
d="M163 1040q-66 32 -101.5 92.5t-35.5 142.5q0 27 15 42t41 15h95q31 0 48.5 -17.5t17.5 -47.5q0 -27 21 -43t58 -16q35 0 54.5 16t19.5 43q0 30 17 47.5t46 17.5h95q28 0 43 -15t15 -42q0 -125 -78 -196t-215 -71q-90 0 -156 32z" />
    <glyph glyph-name="dotaccent" unicode="&#x2d9;" horiz-adv-x="614" 
d="M151 1031.5q-37 21.5 -58.5 58.5t-21.5 81q0 43 21.5 79.5t58.5 58t81 21.5q43 0 80 -21.5t58.5 -58t21.5 -79.5q0 -44 -21.5 -81t-58.5 -58.5t-80 -21.5q-44 0 -81 21.5z" />
    <glyph glyph-name="ring" unicode="&#x2da;" horiz-adv-x="614" 
d="M492.5 1409q60.5 -35 96 -95t35.5 -132t-35.5 -132t-96 -94.5t-133.5 -34.5q-72 0 -132 34.5t-95 94.5t-35 132t35 132t95 95t132 35q73 0 133.5 -35zM296 1245.5q-26 -25.5 -26 -62.5t26 -63.5t64 -26.5t64 26t26 63q0 38 -26 63.5t-64 25.5t-64 -25.5z" />
    <glyph glyph-name="ogonek" unicode="&#x2db;" horiz-adv-x="614" 
d="M457 0q-81 -49 -126.5 -107.5t-45.5 -114.5q0 -38 31 -59.5t86 -21.5q44 0 112 14q3 1 9 1q27 0 32 -30l18 -128q3 -15 -5 -25.5t-25 -14.5q-71 -17 -157 -17q-141 0 -221.5 69t-80.5 189q0 78 33 144.5t91 104.5q43 27 74 27q9 0 13 -1z" />
    <glyph glyph-name="tilde" unicode="&#x2dc;" horiz-adv-x="614" 
d="M59 1170q0 21 23 50q34 42 74.5 62.5t92.5 20.5q23 0 52 -11.5t73 -36.5q40 -21 61 -21q12 0 22.5 6.5t23.5 23.5q20 23 37 23q16 0 35 -19l67 -67q13 -13 13 -26q0 -10 -8 -21q-38 -57 -83.5 -84t-105.5 -27q-41 0 -120 44q-36 23 -66 23q-27 0 -57 -39q-8 -11 -22 -11
q-19 0 -46 26l-46 46q-20 18 -20 38z" />
    <glyph glyph-name="hungarumlaut" unicode="&#x2dd;" horiz-adv-x="614" 
d="M334.5 1021q-14.5 -10 -44.5 -10h-79q-21 0 -34 11.5t-13 29.5q0 12 6 25l130 276q13 29 30.5 41t47.5 12h115q19 0 32.5 -14t13.5 -33q0 -13 -8 -27l-163 -270q-19 -31 -33.5 -41zM713 1026.5q-10 -10.5 -21 -13t-34 -2.5h-78q-21 0 -34 11.5t-13 29.5q0 12 6 25
l130 276q13 29 30.5 41t46.5 12h115q19 0 33 -14t14 -33q0 -13 -8 -27l-163 -271q-14 -24 -24 -34.5z" />
    <glyph glyph-name="uni02E1" unicode="&#x2e1;" horiz-adv-x="390" 
d="M335 1752.5q8 -7.5 8 -20.5v-864q0 -13 -8 -20.5t-21 -7.5h-238q-14 0 -21.5 7.5t-7.5 20.5v864q0 13 7.5 20.5t21.5 7.5h238q13 0 21 -7.5z" />
    <glyph glyph-name="uni02E2" unicode="&#x2e2;" horiz-adv-x="662" 
d="M325.5 1247.5q-7.5 -5.5 -7.5 -13.5q0 -10 10.5 -18t26.5 -10q80 -6 141.5 -32t96 -66t34.5 -88q0 -61 -36 -108.5t-101 -74t-149 -26.5q-69 0 -148.5 17t-136.5 43q-10 5 -15.5 14.5t-5.5 21.5q0 13 5 23l59 135q9 21 38 21q16 0 31 -7q41 -17 87 -28t77 -11
q12 0 19.5 6t7.5 14q0 13 -8 20.5t-21 7.5q-6 0 -9 -1q-9 -1 -26 -1q-68 0 -119.5 23t-80 66t-28.5 99q0 61 33.5 108.5t94.5 74t140 26.5q62 0 135 -19.5t128 -50.5q22 -12 22 -37q0 -13 -6 -25l-60 -127q-6 -12 -27 -12q-14 0 -31 6l-35 10q-43 13 -68 19t-49 6
q-11 0 -18.5 -5.5z" />
    <glyph glyph-name="gravecomb" unicode="&#x300;" horiz-adv-x="0" 
d="M-443 1174q-12 7 -18.5 19t-6.5 25q0 23 15 42l66 83q16 21 38 21q24 0 54 -23l248 -189q21 -17 21 -37q0 -18 -19 -46l-42 -58q-15 -21 -37 -21t-54 21z" />
    <glyph glyph-name="acutecomb" unicode="&#x301;" horiz-adv-x="0" 
d="M-444 990q-22 0 -37 21l-42 58q-19 28 -19 46q0 20 21 37l248 189q30 23 54 23q21 0 38 -21l66 -83q15 -19 15 -42q0 -13 -6.5 -25t-18.5 -19l-265 -163q-32 -21 -54 -21z" />
    <glyph glyph-name="uni0302" unicode="&#x302;" horiz-adv-x="0" 
d="M-427 1340q11 8 17.5 11.5t13.5 3.5q16 0 32 -15l245 -199q20 -18 20 -39q0 -14 -9 -28l-51 -75q-15 -19 -38 -19q-21 0 -39 13l-159 113l-158 -113q-21 -14 -40 -14q-23 0 -36 20l-52 78q-12 17 -12 32q0 11 6.5 18.5t13.5 13t9 6.5z" />
    <glyph glyph-name="tildecomb" unicode="&#x303;" horiz-adv-x="0" 
d="M-555 1170q0 21 23 50q34 42 74.5 62.5t92.5 20.5q23 0 52 -11.5t73 -36.5q40 -21 61 -21q12 0 22.5 6.5t23.5 23.5q20 23 37 23q16 0 35 -19l67 -67q13 -13 13 -26q0 -10 -8 -21q-38 -57 -83.5 -84t-105.5 -27q-41 0 -120 44q-36 23 -66 23q-27 0 -57 -39
q-8 -11 -22 -11q-19 0 -46 26l-46 46q-20 18 -20 38z" />
    <glyph glyph-name="uni0304" unicode="&#x304;" horiz-adv-x="0" 
d="M-735 1174q0 14 9 23t23 9h389q14 0 22 -8t8 -22v-136q0 -14 -9.5 -22t-22.5 -8h-389q-10 0 -20 8t-10 22v134z" />
    <glyph glyph-name="uni0306" unicode="&#x306;" horiz-adv-x="0" 
d="M-451 1040q-66 32 -101.5 92.5t-35.5 142.5q0 27 15 42t41 15h95q31 0 48.5 -17.5t17.5 -47.5q0 -27 21 -43t58 -16q35 0 54.5 16t19.5 43q0 30 17 47.5t46 17.5h95q28 0 43 -15t15 -42q0 -125 -78 -196t-215 -71q-90 0 -156 32z" />
    <glyph glyph-name="uni0307" unicode="&#x307;" horiz-adv-x="0" 
d="M-313 1031.5q-37 21.5 -58.5 58.5t-21.5 81q0 43 21.5 79.5t58.5 58t81 21.5q43 0 80 -21.5t58.5 -58t21.5 -79.5q0 -44 -21.5 -81t-58.5 -58.5t-80 -21.5q-44 0 -81 21.5z" />
    <glyph glyph-name="uni0308" unicode="&#x308;" horiz-adv-x="0" 
d="M-742 1031.5q-37 21.5 -58.5 58.5t-21.5 81q0 43 21.5 79.5t58.5 58t81 21.5q43 0 80 -21.5t58.5 -58t21.5 -79.5q0 -44 -21.5 -81t-58.5 -58.5t-80 -21.5q-44 0 -81 21.5zM-394 1031.5q-37 21.5 -58.5 58.5t-21.5 81q0 43 21.5 79.5t58.5 58t81 21.5q43 0 80 -21.5
t58.5 -58t21.5 -79.5q0 -44 -21.5 -81t-58.5 -58.5t-80 -21.5q-44 0 -81 21.5z" />
    <glyph glyph-name="hookabovecomb" unicode="&#x309;" horiz-adv-x="0" 
d="M-207 1287q69 -54 69 -149q0 -85 -51 -134t-139 -49q-17 0 -27.5 6t-12.5 16l-13 78q-1 4 -1 10q0 13 7 21t19 8q19 0 29 10.5t10 29.5q0 20 -21.5 32.5t-58.5 12.5h-18q-16 0 -26 7.5t-11 21.5l-5 100q-1 15 5.5 23.5t17.5 8.5l36 1q122 0 191 -54z" />
    <glyph glyph-name="uni030A" unicode="&#x30a;" horiz-adv-x="0" 
d="M-228.5 1409q60.5 -35 96 -95t35.5 -132t-35.5 -132t-96 -94.5t-133.5 -34.5q-72 0 -132 34.5t-95 94.5t-35 132t35 132t95 95t132 35q73 0 133.5 -35zM-425 1245.5q-26 -25.5 -26 -62.5t26 -63.5t64 -26.5t64 26t26 63q0 38 -26 63.5t-64 25.5t-64 -25.5z" />
    <glyph glyph-name="uni030B" unicode="&#x30b;" horiz-adv-x="0" 
d="M-736.5 1021q-14.5 -10 -44.5 -10h-79q-21 0 -34 11.5t-13 29.5q0 12 6 25l130 276q13 29 30.5 41t47.5 12h115q19 0 32.5 -14t13.5 -33q0 -13 -8 -27l-163 -270q-19 -31 -33.5 -41zM-358 1026.5q-10 -10.5 -21 -13t-34 -2.5h-78q-21 0 -34 11.5t-13 29.5q0 12 6 25
l130 276q13 29 30.5 41t46.5 12h115q19 0 33 -14t14 -33q0 -13 -8 -27l-163 -271q-14 -24 -24 -34.5z" />
    <glyph glyph-name="uni030C" unicode="&#x30c;" horiz-adv-x="0" 
d="M-674.5 1193.5q-8.5 6.5 -13.5 14t-5 16.5q0 15 12 32l52 78q13 20 36 20q19 0 40 -14l158 -113l159 113q18 13 39 13q23 0 38 -19l51 -75q9 -13 9 -28q0 -21 -20 -39l-245 -199q-16 -15 -32 -15q-7 0 -13.5 3.5t-17.5 11.5l-237 193q-2 1 -10.5 7.5z" />
    <glyph glyph-name="uni0312" unicode="&#x312;" horiz-adv-x="0" 
d="M-191.5 1050.5q-21.5 -36.5 -58.5 -58t-81 -21.5q-53 0 -95.5 27t-66 72t-23.5 96q0 109 37.5 190.5t117.5 156.5q15 13 29 13q15 0 31 -14l50 -43q14 -12 14 -27q0 -16 -17 -35q-38 -42 -51 -60t-13 -32q0 -9 7.5 -16.5t20.5 -11.5q56 -15 88 -56.5t32 -99.5
q0 -44 -21.5 -80.5z" />
    <glyph glyph-name="uni031B" unicode="&#x31b;" horiz-adv-x="0" 
d="M-248 1111q20 0 32.5 21.5t12.5 58.5v18q0 16 7.5 26t21.5 11l100 5q15 1 23.5 -5.5t8.5 -17.5l1 -36q0 -122 -54 -191t-149 -69q-44 0 -80 14l50 172q10 -7 26 -7z" />
    <glyph glyph-name="dotbelowcomb" unicode="&#x323;" horiz-adv-x="0" 
d="M-334 -414.5q-37 21.5 -58.5 58.5t-21.5 81q0 43 21.5 79.5t58.5 58t81 21.5q43 0 80 -21.5t58.5 -58t21.5 -79.5q0 -44 -21.5 -81t-58.5 -58.5t-80 -21.5q-44 0 -81 21.5z" />
    <glyph glyph-name="uni0326" unicode="&#x326;" horiz-adv-x="0" 
d="M-423.5 -137.5q21.5 36.5 58.5 58t81 21.5q53 0 95.5 -27t66 -72t23.5 -96q0 -109 -37.5 -190.5t-117.5 -156.5q-15 -13 -29 -13q-15 0 -31 14l-50 43q-14 12 -14 27q0 16 17 35q38 42 51 60t13 32q0 9 -7.5 16.5t-20.5 11.5q-56 15 -88 56.5t-32 99.5q0 44 21.5 80.5z
" />
    <glyph glyph-name="uni0327" unicode="&#x327;" horiz-adv-x="0" 
d="M-174 19l-14 -110q44 0 68 -30.5t24 -86.5q0 -10 -2 -34l-6 -52q-12 -99 -78.5 -155.5t-170.5 -56.5h-114q-9 0 -13 6.5t-3 18.5l19 151q1 18 21 18h114q12 0 19.5 5t8.5 14l6 51l1 5q0 7 -6 11.5t-16 4.5h-65q-18 0 -16 17l27 223h196z" />
    <glyph glyph-name="uni0328" unicode="&#x328;" horiz-adv-x="0" 
d="M-157 0q-81 -49 -126.5 -107.5t-45.5 -114.5q0 -38 31 -59.5t86 -21.5q44 0 112 14q3 1 9 1q27 0 32 -30l18 -128q3 -15 -5 -25.5t-25 -14.5q-71 -17 -157 -17q-141 0 -221.5 69t-80.5 189q0 78 33 144.5t91 104.5q43 27 74 27q9 0 13 -1z" />
    <glyph glyph-name="uni0331" unicode="&#x331;" horiz-adv-x="0" 
d="M-533 -162q10 8 20 8h389q13 0 22.5 -8t9.5 -22v-136q0 -14 -8 -22t-22 -8h-389q-14 0 -23 9t-9 23v134q0 14 10 22z" />
    <glyph glyph-name="uni0335" unicode="&#x335;" horiz-adv-x="0" 
d="M-50 1015q-10 -10 -28 -10h-568q-18 0 -28.5 10t-10.5 29v75q0 19 10.5 29t28.5 10h568q18 0 28 -10t10 -29v-75q0 -19 -10 -29z" />
    <glyph glyph-name="uni0336" unicode="&#x336;" horiz-adv-x="0" 
d="M-149 413q-10 -10 -28 -10h-612q-18 0 -28.5 10.5t-10.5 28.5v75q0 18 10.5 28.5t28.5 10.5h612q18 0 28 -10t10 -29v-75q0 -19 -10 -29z" />
    <glyph glyph-name="uni0337" unicode="&#x337;" horiz-adv-x="0" 
d="M-186 564q0 -26 -30 -34l-485 -121q-8 -2 -12 -2q-13 0 -22 8t-13 23l-18 72q-2 10 -2 13q0 27 30 35l485 121q4 1 11 1q28 0 36 -30l18 -73q2 -10 2 -13z" />
    <glyph glyph-name="uni0338" unicode="&#x338;" horiz-adv-x="0" 
d="M-64 751q0 -15 -15 -27l-229 -193q-14 -11 -26 -11q-15 0 -29 16l-48 58q-11 14 -11 26q0 15 16 29l229 192q11 10 25 10q16 0 29 -16l48 -57q11 -14 11 -27zM-648 259q0 -15 -16 -28l-232 -196q-13 -10 -26 -10q-16 0 -29 15l-49 57q-10 13 -10 26q0 17 15 29l233 196
q11 10 25 10q16 0 29 -16l48 -57q12 -13 12 -26z" />
    <glyph glyph-name="uni0374" unicode="&#x374;" horiz-adv-x="589" 
d="M130 1392q5 37 16 53t37 16h249q27 0 40.5 -12.5t13.5 -33.5q0 -7 -4 -23l-83 -347q-8 -33 -17.5 -46t-30.5 -13h-204q-25 0 -35.5 19t-8.5 48z" />
    </font>
</defs>
</svg>
